rosario_bold.sfdir
StartChar: exclam
Encoding: 33 33 246
Width: 329
GlyphClass: 2
Flags: W
LayerCount: 2
Back
Fore
SplineSet
248 690 m 2,0,-1
 219 219 l 1,1,-1
 129 219 l 1,2,3
 100 693 100 693 100 695 c 0,4,5
 100 725 100 725 138 725 c 2,6,-1
 209 725 l 2,7,8
 248 725 248 725 248 690 c 2,0,-1
226 117 m 0,9,10
 249 94 249 94 249 62 c 128,-1,11
 249 30 249 30 226.5 7.5 c 128,-1,12
 204 -15 204 -15 172 -15 c 256,13,14
 140 -15 140 -15 117.5 7.5 c 128,-1,15
 95 30 95 30 95 62 c 128,-1,16
 95 94 95 94 117.5 117 c 128,-1,17
 140 140 140 140 172 140 c 256,18,19
 204 140 204 140 226 117 c 0,9,10
EndSplineSet
EndChar
StartChar: quotedbl
Encoding: 34 34 247
Width: 367
GlyphClass: 2
Flags: W
LayerCount: 2
Back
Fore
SplineSet
304 559 m 1,0,-1
 268 449 l 1,1,-1
 246 449 l 1,2,-1
 210 559 l 1,3,-1
 210 732 l 1,4,-1
 304 732 l 1,5,-1
 304 559 l 1,0,-1
157 559 m 1,6,-1
 121 449 l 1,7,-1
 100 449 l 2,8,9
 99 452 99 452 90 479.5 c 128,-1,10
 81 507 81 507 72 533 c 2,11,-1
 63 559 l 1,12,-1
 63 732 l 1,13,-1
 157 732 l 1,14,-1
 157 559 l 1,6,-1
EndSplineSet
EndChar
StartChar: dollar
Encoding: 36 36 4
Width: 430
GlyphClass: 2
Flags: W
LayerCount: 2
Back
Fore
SplineSet
393 155 m 0,0,1
 393 84 393 84 343 39 c 128,-1,2
 293 -6 293 -6 220 -13 c 1,3,-1
 210 -125 l 1,4,-1
 137 -125 l 1,5,-1
 169 -12 l 1,6,7
 93 -5 93 -5 32 29 c 1,8,-1
 75 111 l 1,9,10
 143 71 143 71 188 71 c 0,11,12
 220 71 220 71 241.5 87.5 c 128,-1,13
 263 104 263 104 263 135 c 0,14,15
 263 162 263 162 240.5 179.5 c 128,-1,16
 218 197 218 197 186 208.5 c 128,-1,17
 154 220 154 220 121.5 234 c 128,-1,18
 89 248 89 248 66.5 278.5 c 128,-1,19
 44 309 44 309 44 354 c 0,20,21
 44 425 44 425 96 465.5 c 128,-1,22
 148 506 148 506 222 510 c 1,23,-1
 232 624 l 1,24,-1
 304 624 l 1,25,-1
 273 508 l 1,26,27
 340 500 340 500 383 479 c 1,28,-1
 341 395 l 1,29,30
 297 429 297 429 242 429 c 0,31,32
 214 429 214 429 194 415.5 c 128,-1,33
 174 402 174 402 174 376 c 0,34,35
 174 351 174 351 196.5 335 c 128,-1,36
 219 319 219 319 251.5 307.5 c 128,-1,37
 284 296 284 296 316 281 c 128,-1,38
 348 266 348 266 370.5 234.5 c 128,-1,39
 393 203 393 203 393 155 c 0,0,1
EndSplineSet
EndChar
StartChar: percent
Encoding: 37 37 5
Width: 863
GlyphClass: 2
Flags: W
LayerCount: 2
Back
Fore
SplineSet
797 348 m 0,0,1
 842 291 842 291 842 201 c 128,-1,2
 842 111 842 111 797.5 53.5 c 128,-1,3
 753 -4 753 -4 665 -4 c 256,4,5
 577 -4 577 -4 532.5 53.5 c 128,-1,6
 488 111 488 111 488 201 c 128,-1,7
 488 291 488 291 532.5 348 c 128,-1,8
 577 405 577 405 665 405 c 256,9,10
 753 405 753 405 797 348 c 0,0,1
640 699 m 1,11,-1
 294 -12 l 1,12,-1
 227 -12 l 1,13,-1
 549 645 l 1,14,-1
 350 645 l 1,15,16
 387 590 387 590 387 509 c 0,17,18
 387 419 387 419 342 361.5 c 128,-1,19
 297 304 297 304 210 304 c 0,20,21
 122 304 122 304 77.5 361.5 c 128,-1,22
 33 419 33 419 33 509 c 128,-1,23
 33 599 33 599 77.5 656 c 128,-1,24
 122 713 122 713 210 713 c 0,25,26
 252 713 252 713 284 699 c 1,27,-1
 640 699 l 1,11,-1
733 201 m 0,28,29
 733 326 733 326 665 326 c 256,30,31
 597 326 597 326 597 201 c 0,32,33
 597 75 597 75 665 75 c 256,34,35
 733 75 733 75 733 201 c 0,28,29
278 509 m 0,36,37
 278 634 278 634 210 634 c 256,38,39
 142 634 142 634 142 509 c 0,40,41
 142 383 142 383 210 383 c 256,42,43
 278 383 278 383 278 509 c 0,36,37
EndSplineSet
EndChar
StartChar: ampersand
Encoding: 38 38 6
Width: 679
GlyphClass: 2
Flags: W
LayerCount: 2
Back
Fore
SplineSet
679 0 m 1,0,-1
 605 0 l 2,1,2
 555 0 555 0 520 19 c 128,-1,3
 485 38 485 38 443 79 c 1,4,5
 355 -12 355 -12 245 -12 c 0,6,7
 154 -12 154 -12 92.5 41.5 c 128,-1,8
 31 95 31 95 31 185 c 0,9,10
 31 303 31 303 161 388 c 1,11,12
 107 462 107 462 107 524 c 0,13,14
 107 595 107 595 158.5 642.5 c 128,-1,15
 210 690 210 690 282 690 c 0,16,17
 351 690 351 690 397.5 653.5 c 128,-1,18
 444 617 444 617 444 550 c 0,19,20
 444 500 444 500 412.5 461.5 c 128,-1,21
 381 423 381 423 328 386 c 1,22,23
 341 372 341 372 448 249 c 1,24,25
 480 318 480 318 480 381 c 1,26,-1
 558 362 l 1,27,28
 558 270 558 270 511 178 c 1,29,-1
 517 171 l 2,30,31
 560 123 560 123 578 114 c 128,-1,32
 596 105 596 105 652 105 c 2,33,-1
 679 105 l 1,34,-1
 679 0 l 1,0,-1
338 546 m 0,35,36
 338 574 338 574 322 592 c 128,-1,37
 306 610 306 610 278 610 c 0,38,39
 251 610 251 610 231.5 591 c 128,-1,40
 212 572 212 572 212 545 c 0,41,42
 212 504 212 504 264 452 c 1,43,44
 338 499 338 499 338 546 c 0,35,36
374 149 m 1,45,-1
 222 315 l 1,46,47
 148 262 148 262 148 204 c 0,48,49
 148 157 148 157 179.5 130 c 128,-1,50
 211 103 211 103 258 103 c 0,51,52
 320 103 320 103 374 149 c 1,45,-1
EndSplineSet
EndChar
StartChar: quotesingle
Encoding: 39 39 7
Width: 226
GlyphClass: 2
Flags: W
LayerCount: 2
Back
Fore
SplineSet
157 559 m 1,0,-1
 121 449 l 1,1,-1
 100 449 l 2,2,3
 99 452 99 452 90 479.5 c 128,-1,4
 81 507 81 507 72 533 c 2,5,-1
 63 559 l 1,6,-1
 63 732 l 1,7,-1
 157 732 l 1,8,-1
 157 559 l 1,0,-1
EndSplineSet
EndChar
StartChar: parenleft
Encoding: 40 40 8
Width: 306
GlyphClass: 2
Flags: W
LayerCount: 2
Back
Fore
SplineSet
321 -130 m 1,0,-1
 226 -146 l 1,1,2
 35 65 35 65 35 298 c 0,3,4
 35 532 35 532 226 743 c 1,5,-1
 321 727 l 1,6,7
 234 623 234 623 194.5 523.5 c 128,-1,8
 155 424 155 424 155 298 c 128,-1,9
 155 172 155 172 195 72.5 c 128,-1,10
 235 -27 235 -27 321 -130 c 1,0,-1
EndSplineSet
EndChar
StartChar: parenright
Encoding: 41 41 9
Width: 306
GlyphClass: 2
Flags: W
LayerCount: 2
Back
Fore
SplineSet
298 298 m 0,0,1
 298 65 298 65 107 -146 c 1,2,-1
 12 -130 l 1,3,4
 98 -27 98 -27 138 72.5 c 128,-1,5
 178 172 178 172 178 298 c 128,-1,6
 178 424 178 424 138.5 523.5 c 128,-1,7
 99 623 99 623 12 727 c 1,8,-1
 107 743 l 1,9,10
 298 532 298 532 298 298 c 0,0,1
EndSplineSet
EndChar
StartChar: asterisk
Encoding: 42 42 10
Width: 510
GlyphClass: 2
Flags: W
LayerCount: 2
Back
Fore
SplineSet
458 555 m 1,0,-1
 300 528 l 1,1,-1
 415 422 l 1,2,-1
 326 353 l 1,3,-1
 255 494 l 1,4,-1
 184 356 l 1,5,-1
 98 420 l 1,6,-1
 209 531 l 1,7,-1
 56 552 l 1,8,-1
 86 659 l 1,9,-1
 226 585 l 1,10,-1
 197 741 l 1,11,-1
 308 741 l 1,12,-1
 283 585 l 1,13,-1
 417 663 l 1,14,-1
 458 555 l 1,0,-1
EndSplineSet
EndChar
StartChar: plus
Encoding: 43 43 11
Width: 642
GlyphClass: 2
Flags: W
LayerCount: 2
Back
Fore
SplineSet
565 205 m 1,0,-1
 360 205 l 1,1,-1
 360 0 l 1,2,-1
 272 0 l 1,3,-1
 272 204 l 1,4,-1
 67 204 l 1,5,-1
 67 292 l 1,6,-1
 272 292 l 1,7,-1
 272 497 l 1,8,-1
 360 497 l 1,9,-1
 360 293 l 1,10,-1
 565 293 l 1,11,-1
 565 205 l 1,0,-1
EndSplineSet
EndChar
StartChar: comma
Encoding: 44 44 12
Width: 235
GlyphClass: 2
Flags: W
LayerCount: 2
Back
Fore
SplineSet
183 46 m 0,0,1
 183 -55 183 -55 74 -134 c 1,2,3
 47 -107 47 -107 35 -93 c 1,4,5
 50 -79 50 -79 65.5 -56.5 c 128,-1,6
 81 -34 81 -34 81 -20 c 0,7,8
 81 -10 81 -10 69 1 c 128,-1,9
 57 12 57 12 45 28.5 c 128,-1,10
 33 45 33 45 33 69 c 0,11,12
 33 98 33 98 53 118.5 c 128,-1,13
 73 139 73 139 102 139 c 0,14,15
 139 139 139 139 161 111.5 c 128,-1,16
 183 84 183 84 183 46 c 0,0,1
EndSplineSet
EndChar
StartChar: hyphen
Encoding: 45 45 13
Width: 313
GlyphClass: 2
Flags: W
LayerCount: 2
Back
Fore
SplineSet
270 210 m 1,0,-1
 49 210 l 1,1,-1
 49 305 l 1,2,-1
 270 305 l 1,3,-1
 270 210 l 1,0,-1
EndSplineSet
EndChar
StartChar: period
Encoding: 46 46 14
Width: 228
GlyphClass: 2
Flags: W
LayerCount: 2
Back
Fore
SplineSet
160 120 m 0,0,1
 183 97 183 97 183 65 c 128,-1,2
 183 33 183 33 160.5 10.5 c 128,-1,3
 138 -12 138 -12 106 -12 c 256,4,5
 74 -12 74 -12 51.5 10.5 c 128,-1,6
 29 33 29 33 29 65 c 128,-1,7
 29 97 29 97 51.5 120 c 128,-1,8
 74 143 74 143 106 143 c 256,9,10
 138 143 138 143 160 120 c 0,0,1
EndSplineSet
EndChar
StartChar: slash
Encoding: 47 47 15
Width: 326
GlyphClass: 2
Flags: W
LayerCount: 2
Back
Fore
SplineSet
345 732 m 1,0,-1
 75 0 l 1,1,-1
 -18 0 l 1,2,-1
 251 732 l 1,3,-1
 345 732 l 1,0,-1
EndSplineSet
EndChar
StartChar: zero
Encoding: 48 48 16
Width: 578
GlyphClass: 2
Flags: W
LayerCount: 2
Back
Fore
SplineSet
549 249 m 0,0,1
 549 127 549 127 480 57.5 c 128,-1,2
 411 -12 411 -12 289 -12 c 256,3,4
 167 -12 167 -12 98 57.5 c 128,-1,5
 29 127 29 127 29 249 c 0,6,7
 29 374 29 374 96.5 442 c 128,-1,8
 164 510 164 510 289 510 c 0,9,10
 413 510 413 510 481 442 c 128,-1,11
 549 374 549 374 549 249 c 0,0,1
417 249 m 0,12,13
 417 429 417 429 289 429 c 0,14,15
 160 429 160 429 160 249 c 0,16,17
 160 219 160 219 162.5 195 c 128,-1,18
 165 171 165 171 173.5 146.5 c 128,-1,19
 182 122 182 122 195.5 106 c 128,-1,20
 209 90 209 90 233 79.5 c 128,-1,21
 257 69 257 69 289 69 c 0,22,23
 329 69 329 69 356 83.5 c 128,-1,24
 383 98 383 98 395.5 125.5 c 128,-1,25
 408 153 408 153 412.5 181.5 c 128,-1,26
 417 210 417 210 417 249 c 0,12,13
EndSplineSet
EndChar
StartChar: one
Encoding: 49 49 17
Width: 383
GlyphClass: 2
Flags: W
LayerCount: 2
Back
Fore
SplineSet
370 0 m 1,0,-1
 36 0 l 1,1,-1
 36 99 l 1,2,-1
 145 99 l 1,3,-1
 145 378 l 1,4,-1
 36 349 l 1,5,-1
 15 413 l 1,6,-1
 188 498 l 1,7,-1
 266 498 l 1,8,-1
 266 99 l 1,9,-1
 370 99 l 1,10,-1
 370 0 l 1,0,-1
EndSplineSet
EndChar
StartChar: two
Encoding: 50 50 18
Width: 465
GlyphClass: 2
Flags: W
LayerCount: 2
Back
Fore
SplineSet
463 99 m 1,0,-1
 442 0 l 1,1,-1
 29 0 l 1,2,-1
 29 54 l 1,3,4
 70 97 70 97 146.5 184.5 c 128,-1,5
 223 272 223 272 246 297 c 0,6,7
 279 332 279 332 279 365 c 0,8,9
 279 391 279 391 262 406 c 128,-1,10
 245 421 245 421 219 421 c 0,11,12
 161 421 161 421 93 355 c 1,13,-1
 33 419 l 1,14,15
 136 512 136 512 253 512 c 0,16,17
 322 512 322 512 372.5 476.5 c 128,-1,18
 423 441 423 441 423 375 c 0,19,20
 423 313 423 313 368 256 c 0,21,22
 342 229 342 229 202 99 c 1,23,-1
 463 99 l 1,0,-1
EndSplineSet
EndChar
StartChar: three
Encoding: 51 51 19
Width: 410
GlyphClass: 2
Flags: W
LayerCount: 2
Back
Fore
SplineSet
385 88 m 0,0,1
 385 28 385 28 356.5 -22 c 128,-1,2
 328 -72 328 -72 282.5 -104 c 128,-1,3
 237 -136 237 -136 179 -157.5 c 128,-1,4
 121 -179 121 -179 64 -188.5 c 128,-1,5
 7 -198 7 -198 -48 -198 c 2,6,-1
 -63 -198 l 1,7,-1
 -77 -128 l 1,8,9
 -35 -127 -35 -127 5 -121.5 c 128,-1,10
 45 -116 45 -116 90 -101.5 c 128,-1,11
 135 -87 135 -87 168 -65.5 c 128,-1,12
 201 -44 201 -44 223 -8 c 128,-1,13
 245 28 245 28 245 74 c 0,14,15
 245 148 245 148 173 148 c 0,16,17
 140 148 140 148 103 134 c 1,18,-1
 68 206 l 1,19,20
 124 232 124 232 173 282.5 c 128,-1,21
 222 333 222 333 222 386 c 0,22,23
 222 428 222 428 185 428 c 0,24,25
 137 428 137 428 86 379 c 1,26,-1
 30 435 l 1,27,28
 61 471 61 471 114.5 491 c 128,-1,29
 168 511 168 511 219 511 c 0,30,31
 278 511 278 511 319.5 485.5 c 128,-1,32
 361 460 361 460 361 405 c 0,33,34
 361 352 361 352 310 303 c 128,-1,35
 259 254 259 254 198 223 c 1,36,37
 218 225 218 225 229 225 c 0,38,39
 299 225 299 225 342 190.5 c 128,-1,40
 385 156 385 156 385 88 c 0,0,1
EndSplineSet
EndChar
StartChar: four
Encoding: 52 52 20
Width: 497
GlyphClass: 2
Flags: W
LayerCount: 2
Back
Fore
SplineSet
526 99 m 1,0,-1
 498 -1 l 1,1,-1
 419 -1 l 1,2,-1
 419 -184 l 1,3,-1
 294 -184 l 1,4,-1
 294 -1 l 1,5,-1
 2 -1 l 1,6,-1
 2 57 l 1,7,-1
 288 498 l 1,8,-1
 419 498 l 1,9,-1
 419 99 l 1,10,-1
 526 99 l 1,0,-1
294 99 m 1,11,-1
 294 329 l 1,12,-1
 145 99 l 1,13,-1
 294 99 l 1,11,-1
EndSplineSet
EndChar
StartChar: five
Encoding: 53 53 21
Width: 372
GlyphClass: 2
Flags: W
LayerCount: 2
Back
Fore
SplineSet
397 498 m 1,0,-1
 362 377 l 1,1,-1
 174 377 l 1,2,-1
 152 327 l 1,3,4
 328 229 328 229 328 82 c 0,5,6
 328 20 328 20 297.5 -33 c 128,-1,7
 267 -86 267 -86 217.5 -121 c 128,-1,8
 168 -156 168 -156 111 -177.5 c 128,-1,9
 54 -199 54 -199 -6 -207 c 1,10,-1
 -28 -145 l 1,11,12
 66 -117 66 -117 131 -62.5 c 128,-1,13
 196 -8 196 -8 196 77 c 0,14,15
 196 137 196 137 140.5 190.5 c 128,-1,16
 85 244 85 244 18 273 c 1,17,-1
 120 498 l 1,18,-1
 397 498 l 1,0,-1
EndSplineSet
EndChar
StartChar: six
Encoding: 54 54 22
Width: 536
GlyphClass: 2
Flags: W
LayerCount: 2
Back
Fore
SplineSet
512 212 m 0,0,1
 512 116 512 116 441.5 52 c 128,-1,2
 371 -12 371 -12 274 -12 c 0,3,4
 162 -12 162 -12 93 59.5 c 128,-1,5
 24 131 24 131 24 244 c 0,6,7
 24 383 24 383 108 491.5 c 128,-1,8
 192 600 192 600 328 672 c 0,9,10
 405 714 405 714 469 730 c 1,11,-1
 497 665 l 1,12,13
 400 632 400 632 313.5 554 c 128,-1,14
 227 476 227 476 183 384 c 1,15,16
 241 421 241 421 299 421 c 0,17,18
 392 421 392 421 452 363 c 128,-1,19
 512 305 512 305 512 212 c 0,0,1
273 335 m 0,20,21
 211 335 211 335 163 282 c 1,22,23
 159 264 159 264 159 232 c 0,24,25
 159 171 159 171 187 121 c 128,-1,26
 215 71 215 71 272 71 c 0,27,28
 324 71 324 71 350.5 111.5 c 128,-1,29
 377 152 377 152 377 206 c 128,-1,30
 377 260 377 260 350.5 297.5 c 128,-1,31
 324 335 324 335 273 335 c 0,20,21
EndSplineSet
EndChar
StartChar: seven
Encoding: 55 55 23
Width: 425
GlyphClass: 2
Flags: W
LayerCount: 2
Back
Fore
SplineSet
428 434 m 1,0,-1
 143 -189 l 1,1,-1
 7 -189 l 1,2,-1
 277 386 l 1,3,-1
 -11 386 l 1,4,-1
 21 497 l 1,5,-1
 428 497 l 1,6,-1
 428 434 l 1,0,-1
EndSplineSet
EndChar
StartChar: eight
Encoding: 56 56 24
Width: 461
GlyphClass: 2
Flags: W
LayerCount: 2
Back
Fore
SplineSet
464 170 m 0,0,1
 464 82 464 82 399 35 c 128,-1,2
 334 -12 334 -12 243 -12 c 0,3,4
 155 -12 155 -12 91.5 36.5 c 128,-1,5
 28 85 28 85 28 170 c 0,6,7
 28 192 28 192 30.5 210 c 128,-1,8
 33 228 33 228 43 246 c 128,-1,9
 53 264 53 264 57.5 274 c 128,-1,10
 62 284 62 284 80.5 302 c 128,-1,11
 99 320 99 320 103.5 324.5 c 128,-1,12
 108 329 108 329 133 350 c 128,-1,13
 158 371 158 371 161 374 c 1,14,-1
 149 385 l 2,15,16
 121 411 121 411 107.5 424.5 c 128,-1,17
 94 438 94 438 78 460.5 c 128,-1,18
 62 483 62 483 56 508 c 128,-1,19
 50 533 50 533 50 565 c 0,20,21
 50 642 50 642 110 687 c 128,-1,22
 170 732 170 732 250 732 c 0,23,24
 332 732 332 732 386 688.5 c 128,-1,25
 440 645 440 645 440 565 c 0,26,27
 440 543 440 543 435 524 c 128,-1,28
 430 505 430 505 425 492.5 c 128,-1,29
 420 480 420 480 406 463 c 128,-1,30
 392 446 392 446 385 439 c 128,-1,31
 378 432 378 432 357.5 413 c 128,-1,32
 337 394 337 394 330 388 c 1,33,-1
 346 373 l 2,34,35
 377 344 377 344 392 328.5 c 128,-1,36
 407 313 407 313 427 286.5 c 128,-1,37
 447 260 447 260 455.5 232 c 128,-1,38
 464 204 464 204 464 170 c 0,0,1
328 564 m 0,39,40
 328 601 328 601 310 627 c 128,-1,41
 292 653 292 653 256 653 c 0,42,43
 222 653 222 653 203.5 628 c 128,-1,44
 185 603 185 603 185 567 c 0,45,46
 185 555 185 555 189 543 c 128,-1,47
 193 531 193 531 196 523.5 c 128,-1,48
 199 516 199 516 210 503.5 c 128,-1,49
 221 491 221 491 224 488 c 128,-1,50
 227 485 227 485 242 471 c 128,-1,51
 257 457 257 457 258 456 c 2,52,-1
 262 460 l 2,53,54
 285 479 285 479 295.5 489.5 c 128,-1,55
 306 500 306 500 317 520.5 c 128,-1,56
 328 541 328 541 328 564 c 0,39,40
329 171 m 0,57,58
 329 187 329 187 323.5 202 c 128,-1,59
 318 217 318 217 304.5 233.5 c 128,-1,60
 291 250 291 250 283 258.5 c 128,-1,61
 275 267 275 267 255.5 284.5 c 128,-1,62
 236 302 236 302 232 306 c 1,63,64
 228 302 228 302 211 288 c 128,-1,65
 194 274 194 274 188 269 c 128,-1,66
 182 264 182 264 170 250.5 c 128,-1,67
 158 237 158 237 153 227.5 c 128,-1,68
 148 218 148 218 143.5 203 c 128,-1,69
 139 188 139 188 139 173 c 0,70,71
 139 128 139 128 165.5 98.5 c 128,-1,72
 192 69 192 69 237 69 c 0,73,74
 281 69 281 69 305 97.5 c 128,-1,75
 329 126 329 126 329 171 c 0,57,58
EndSplineSet
EndChar
StartChar: nine
Encoding: 57 57 25
Width: 536
GlyphClass: 2
Flags: W
LayerCount: 2
Back
Fore
SplineSet
512 255 m 0,0,1
 512 167 512 167 473 87 c 128,-1,2
 434 7 434 7 369 -51.5 c 128,-1,3
 304 -110 304 -110 225 -151.5 c 128,-1,4
 146 -193 146 -193 62 -214 c 1,5,-1
 35 -149 l 1,6,7
 136 -115 136 -115 222.5 -45 c 128,-1,8
 309 25 309 25 353 115 c 1,9,10
 295 78 295 78 237 78 c 0,11,12
 144 78 144 78 84.5 136 c 128,-1,13
 25 194 25 194 25 287 c 0,14,15
 25 383 25 383 95.5 447 c 128,-1,16
 166 511 166 511 263 511 c 0,17,18
 375 511 375 511 443.5 439.5 c 128,-1,19
 512 368 512 368 512 255 c 0,0,1
377 267 m 0,20,21
 377 329 377 329 349 378.5 c 128,-1,22
 321 428 321 428 264 428 c 0,23,24
 212 428 212 428 185.5 387.5 c 128,-1,25
 159 347 159 347 159 293 c 0,26,27
 159 240 159 240 186 202 c 128,-1,28
 213 164 213 164 264 164 c 0,29,30
 326 164 326 164 374 217 c 1,31,32
 377 243 377 243 377 267 c 0,20,21
EndSplineSet
EndChar
StartChar: colon
Encoding: 58 58 26
Width: 331
GlyphClass: 2
Flags: W
LayerCount: 2
Back
Fore
SplineSet
220 120 m 0,0,1
 243 97 243 97 243 65 c 128,-1,2
 243 33 243 33 220.5 10.5 c 128,-1,3
 198 -12 198 -12 166 -12 c 256,4,5
 134 -12 134 -12 111.5 10.5 c 128,-1,6
 89 33 89 33 89 65 c 128,-1,7
 89 97 89 97 111.5 120 c 128,-1,8
 134 143 134 143 166 143 c 256,9,10
 198 143 198 143 220 120 c 0,0,1
220 409 m 0,11,12
 243 386 243 386 243 354 c 128,-1,13
 243 322 243 322 220.5 299.5 c 128,-1,14
 198 277 198 277 166 277 c 256,15,16
 134 277 134 277 111.5 299.5 c 128,-1,17
 89 322 89 322 89 354 c 128,-1,18
 89 386 89 386 111.5 409 c 128,-1,19
 134 432 134 432 166 432 c 256,20,21
 198 432 198 432 220 409 c 0,11,12
EndSplineSet
EndChar
StartChar: semicolon
Encoding: 59 59 27
Width: 334
GlyphClass: 2
Flags: W
LayerCount: 2
Back
Fore
SplineSet
221 409 m 0,0,1
 244 386 244 386 244 354 c 128,-1,2
 244 322 244 322 221.5 299.5 c 128,-1,3
 199 277 199 277 167 277 c 256,4,5
 135 277 135 277 112.5 299.5 c 128,-1,6
 90 322 90 322 90 354 c 128,-1,7
 90 386 90 386 112.5 409 c 128,-1,8
 135 432 135 432 167 432 c 256,9,10
 199 432 199 432 221 409 c 0,0,1
243 46 m 0,11,12
 243 -55 243 -55 134 -134 c 1,13,14
 107 -107 107 -107 95 -93 c 1,15,16
 110 -79 110 -79 125.5 -56.5 c 128,-1,17
 141 -34 141 -34 141 -20 c 0,18,19
 141 -10 141 -10 129 1 c 128,-1,20
 117 12 117 12 105 28.5 c 128,-1,21
 93 45 93 45 93 69 c 0,22,23
 93 98 93 98 113 118.5 c 128,-1,24
 133 139 133 139 162 139 c 0,25,26
 199 139 199 139 221 111.5 c 128,-1,27
 243 84 243 84 243 46 c 0,11,12
EndSplineSet
EndChar
StartChar: less
Encoding: 60 60 28
Width: 630
GlyphClass: 2
Flags: W
LayerCount: 2
Back
Fore
SplineSet
564 -12 m 1,0,-1
 66 223 l 1,1,-1
 66 275 l 1,2,-1
 564 509 l 1,3,-1
 564 419 l 1,4,-1
 196 249 l 1,5,-1
 564 76 l 1,6,-1
 564 -12 l 1,0,-1
EndSplineSet
EndChar
StartChar: equal
Encoding: 61 61 29
Width: 630
GlyphClass: 2
Flags: W
LayerCount: 2
Back
Fore
SplineSet
565 109 m 1,0,-1
 69 109 l 1,1,-1
 69 197 l 1,2,-1
 565 197 l 1,3,-1
 565 109 l 1,0,-1
565 302 m 1,4,-1
 69 302 l 1,5,-1
 69 390 l 1,6,-1
 565 390 l 1,7,-1
 565 302 l 1,4,-1
EndSplineSet
EndChar
StartChar: question
Encoding: 63 63 31
Width: 438
GlyphClass: 2
Flags: W
LayerCount: 2
Back
Fore
SplineSet
403 544 m 0,0,1
 403 474 403 474 362 430.5 c 128,-1,2
 321 387 321 387 251 357 c 0,3,4
 238 351 238 351 238 336 c 2,5,-1
 238 217 l 1,6,-1
 131 217 l 1,7,-1
 131 422 l 1,8,9
 184 426 184 426 229 456.5 c 128,-1,10
 274 487 274 487 274 537 c 0,11,12
 274 578 274 578 243 601.5 c 128,-1,13
 212 625 212 625 170 625 c 0,14,15
 118 625 118 625 66 590 c 1,16,-1
 20 678 l 1,17,18
 88 722 88 722 183 722 c 0,19,20
 271 722 271 722 337 675.5 c 128,-1,21
 403 629 403 629 403 544 c 0,0,1
238 120 m 0,22,23
 261 97 261 97 261 65 c 128,-1,24
 261 33 261 33 238.5 10.5 c 128,-1,25
 216 -12 216 -12 184 -12 c 256,26,27
 152 -12 152 -12 129.5 10.5 c 128,-1,28
 107 33 107 33 107 65 c 128,-1,29
 107 97 107 97 129.5 120 c 128,-1,30
 152 143 152 143 184 143 c 256,31,32
 216 143 216 143 238 120 c 0,22,23
EndSplineSet
EndChar
StartChar: A
Encoding: 65 65 33
Width: 631
GlyphClass: 2
Flags: W
LayerCount: 2
Back
Fore
SplineSet
629 0 m 1,0,-1
 481 0 l 1,1,-1
 409 210 l 1,2,-1
 193 210 l 1,3,-1
 118 0 l 1,4,-1
 2 0 l 1,5,-1
 261 732 l 1,6,-1
 370 732 l 1,7,-1
 629 0 l 1,0,-1
376 308 m 1,8,9
 328 455 328 455 300 558 c 1,10,11
 266 433 266 433 227 308 c 1,12,-1
 376 308 l 1,8,9
EndSplineSet
EndChar
StartChar: B
Encoding: 66 66 34
Width: 614
GlyphClass: 2
Flags: W
LayerCount: 2
Back
Fore
SplineSet
586 203 m 0,0,1
 586 132 586 132 546 84.5 c 128,-1,2
 506 37 506 37 449 18.5 c 128,-1,3
 392 0 392 0 323 0 c 2,4,-1
 67 0 l 1,5,-1
 67 671 l 2,6,7
 67 672 67 672 63.5 686 c 128,-1,8
 60 700 60 700 56.5 715 c 128,-1,9
 53 730 53 730 53 732 c 2,10,-1
 313 732 l 2,11,12
 360 732 360 732 399.5 724.5 c 128,-1,13
 439 717 439 717 475 699 c 128,-1,14
 511 681 511 681 531.5 645.5 c 128,-1,15
 552 610 552 610 552 561 c 0,16,17
 552 498 552 498 509 453 c 128,-1,18
 466 408 466 408 403 399 c 1,19,20
 480 386 480 386 533 332.5 c 128,-1,21
 586 279 586 279 586 203 c 0,0,1
407 542 m 0,22,23
 407 588 407 588 379.5 610.5 c 128,-1,24
 352 633 352 633 305 633 c 2,25,-1
 205 633 l 1,26,-1
 205 446 l 1,27,-1
 308 446 l 2,28,29
 351 446 351 446 379 472.5 c 128,-1,30
 407 499 407 499 407 542 c 0,22,23
441 219 m 0,31,32
 441 282 441 282 395 314.5 c 128,-1,33
 349 347 349 347 283 347 c 2,34,-1
 205 347 l 1,35,-1
 205 99 l 1,36,-1
 314 99 l 2,37,38
 371 99 371 99 406 131 c 128,-1,39
 441 163 441 163 441 219 c 0,31,32
EndSplineSet
EndChar
StartChar: C
Encoding: 67 67 35
Width: 624
GlyphClass: 2
Flags: W
LayerCount: 2
Back
Fore
SplineSet
612 62 m 1,0,1
 549 23 549 23 494.5 5.5 c 128,-1,2
 440 -12 440 -12 370 -12 c 0,3,4
 201 -12 201 -12 110.5 94 c 128,-1,5
 20 200 20 200 20 371 c 0,6,7
 20 534 20 534 115 640 c 128,-1,8
 210 746 210 746 371 746 c 0,9,10
 433 746 433 746 501 728 c 128,-1,11
 569 710 569 710 608 675 c 1,12,-1
 536 583 l 1,13,14
 509 613 509 613 464 631 c 128,-1,15
 419 649 419 649 376 649 c 0,16,17
 302 649 302 649 253.5 607 c 128,-1,18
 205 565 205 565 187 506 c 128,-1,19
 169 447 169 447 169 374 c 0,20,21
 169 326 169 326 181.5 276.5 c 128,-1,22
 194 227 194 227 218 182.5 c 128,-1,23
 242 138 242 138 284 110 c 128,-1,24
 326 82 326 82 378 82 c 0,25,26
 471 82 471 82 549 157 c 1,27,-1
 612 62 l 1,0,1
EndSplineSet
EndChar
StartChar: D
Encoding: 68 68 36
Width: 699
GlyphClass: 2
Flags: W
LayerCount: 2
Back
Fore
SplineSet
680 365 m 0,0,1
 680 197 680 197 577 95 c 0,2,3
 482 0 482 0 327 0 c 2,4,-1
 67 0 l 1,5,-1
 67 671 l 2,6,7
 67 672 67 672 59.5 700.5 c 128,-1,8
 52 729 52 729 51 732 c 2,9,-1
 328 732 l 2,10,11
 493 732 493 732 586.5 631.5 c 128,-1,12
 680 531 680 531 680 365 c 0,0,1
532 361 m 0,13,14
 532 433 532 433 512 492 c 128,-1,15
 492 551 492 551 442.5 592 c 128,-1,16
 393 633 393 633 319 633 c 2,17,-1
 205 633 l 1,18,-1
 205 99 l 1,19,-1
 321 99 l 2,20,21
 376 99 376 99 418 120.5 c 128,-1,22
 460 142 460 142 484 179.5 c 128,-1,23
 508 217 508 217 520 262.5 c 128,-1,24
 532 308 532 308 532 361 c 0,13,14
EndSplineSet
EndChar
StartChar: E
Encoding: 69 69 37
Width: 549
GlyphClass: 2
Flags: W
LayerCount: 2
Back
Fore
SplineSet
512 0 m 1,0,-1
 67 0 l 1,1,-1
 67 671 l 1,2,-1
 52 732 l 1,3,-1
 512 732 l 1,4,-1
 512 633 l 1,5,-1
 204 633 l 1,6,-1
 204 426 l 1,7,-1
 440 426 l 1,8,-1
 440 327 l 1,9,-1
 204 327 l 1,10,-1
 204 99 l 1,11,-1
 512 99 l 1,12,-1
 512 0 l 1,0,-1
EndSplineSet
EndChar
StartChar: F
Encoding: 70 70 38
Width: 510
GlyphClass: 2
Flags: W
LayerCount: 2
Back
Fore
SplineSet
482 633 m 1,0,-1
 206 633 l 1,1,-1
 206 426 l 1,2,-1
 419 426 l 1,3,-1
 419 327 l 1,4,-1
 206 327 l 1,5,-1
 206 0 l 1,6,-1
 67 0 l 1,7,-1
 67 671 l 2,8,9
 67 672 67 672 63.5 686 c 128,-1,10
 60 700 60 700 56.5 715 c 128,-1,11
 53 730 53 730 53 732 c 2,12,-1
 482 732 l 1,13,-1
 482 633 l 1,0,-1
EndSplineSet
EndChar
StartChar: G
Encoding: 71 71 39
Width: 707
GlyphClass: 2
Flags: W
LayerCount: 2
Back
Fore
SplineSet
668 -1 m 1,0,-1
 597 -1 l 1,1,-1
 563 75 l 1,2,3
 513 29 513 29 463 9 c 128,-1,4
 413 -11 413 -11 345 -11 c 0,5,6
 189 -11 189 -11 105 93.5 c 128,-1,7
 21 198 21 198 21 359 c 0,8,9
 21 534 21 534 118 639 c 128,-1,10
 215 744 215 744 387 744 c 0,11,12
 455 744 455 744 529 724 c 128,-1,13
 603 704 603 704 644 665 c 1,14,-1
 571 583 l 1,15,16
 518 622 518 622 482.5 636 c 128,-1,17
 447 650 447 650 387 650 c 0,18,19
 308 650 308 650 256.5 608.5 c 128,-1,20
 205 567 205 567 185.5 506.5 c 128,-1,21
 166 446 166 446 166 368 c 0,22,23
 166 319 166 319 177.5 271.5 c 128,-1,24
 189 224 189 224 211.5 181 c 128,-1,25
 234 138 234 138 275 111.5 c 128,-1,26
 316 85 316 85 368 85 c 0,27,28
 439 85 439 85 482.5 127 c 128,-1,29
 526 169 526 169 526 240 c 2,30,-1
 526 302 l 1,31,-1
 374 302 l 1,32,-1
 387 390 l 1,33,-1
 665 390 l 1,34,35
 663 268 663 268 663 206 c 0,36,37
 663 85 663 85 668 -1 c 1,0,-1
EndSplineSet
EndChar
StartChar: H
Encoding: 72 72 40
Width: 714
GlyphClass: 2
Flags: W
LayerCount: 2
Back
Fore
SplineSet
650 0 m 1,0,-1
 512 0 l 1,1,-1
 512 327 l 1,2,-1
 205 327 l 1,3,-1
 205 0 l 1,4,-1
 67 0 l 1,5,-1
 67 671 l 2,6,7
 67 672 67 672 63.5 686 c 128,-1,8
 60 700 60 700 56.5 715 c 128,-1,9
 53 730 53 730 53 732 c 2,10,-1
 205 732 l 1,11,-1
 205 426 l 1,12,-1
 512 426 l 1,13,-1
 512 732 l 1,14,-1
 650 732 l 1,15,-1
 650 0 l 1,0,-1
EndSplineSet
EndChar
StartChar: I
Encoding: 73 73 41
Width: 268
GlyphClass: 2
Flags: W
LayerCount: 2
Back
Fore
SplineSet
204 0 m 1,0,-1
 66 0 l 1,1,-1
 66 671 l 2,2,3
 66 672 66 672 62.5 686 c 128,-1,4
 59 700 59 700 55.5 715 c 128,-1,5
 52 730 52 730 52 732 c 2,6,-1
 204 732 l 1,7,-1
 204 0 l 1,0,-1
EndSplineSet
EndChar
StartChar: J
Encoding: 74 74 42
Width: 268
GlyphClass: 2
Flags: W
LayerCount: 2
Back
Fore
SplineSet
205 98 m 2,0,1
 205 42 205 42 201 2 c 128,-1,2
 197 -38 197 -38 183.5 -79 c 128,-1,3
 170 -120 170 -120 146 -146 c 128,-1,4
 122 -172 122 -172 81 -189 c 128,-1,5
 40 -206 40 -206 -18 -209 c 1,6,-1
 -38 -131 l 1,7,8
 -3 -127 -3 -127 19 -110.5 c 128,-1,9
 41 -94 41 -94 51 -66.5 c 128,-1,10
 61 -39 61 -39 64 -14 c 128,-1,11
 67 11 67 11 67 47 c 2,12,-1
 67 671 l 2,13,14
 67 672 67 672 63.5 686 c 128,-1,15
 60 700 60 700 56.5 715 c 128,-1,16
 53 730 53 730 53 732 c 2,17,-1
 205 732 l 1,18,-1
 205 98 l 2,0,1
EndSplineSet
EndChar
StartChar: K
Encoding: 75 75 43
Width: 584
GlyphClass: 2
Flags: W
LayerCount: 2
Back
Fore
SplineSet
597 0 m 1,0,-1
 437 0 l 1,1,-1
 204 371 l 1,2,-1
 204 0 l 1,3,-1
 66 0 l 1,4,-1
 66 671 l 2,5,6
 66 672 66 672 62.5 686 c 128,-1,7
 59 700 59 700 55.5 715 c 128,-1,8
 52 730 52 730 52 732 c 2,9,-1
 204 732 l 1,10,-1
 204 405 l 1,11,-1
 448 732 l 1,12,-1
 576 732 l 1,13,-1
 338 412 l 1,14,-1
 597 0 l 1,0,-1
EndSplineSet
EndChar
StartChar: L
Encoding: 76 76 44
Width: 514
GlyphClass: 2
Flags: W
LayerCount: 2
Back
Fore
SplineSet
492 0 m 1,0,-1
 66 0 l 1,1,-1
 66 671 l 2,2,3
 66 672 66 672 63 686 c 128,-1,4
 60 700 60 700 56.5 715 c 128,-1,5
 53 730 53 730 53 732 c 2,6,-1
 205 732 l 1,7,-1
 205 99 l 1,8,-1
 492 99 l 1,9,-1
 492 0 l 1,0,-1
EndSplineSet
EndChar
StartChar: M
Encoding: 77 77 45
Width: 838
GlyphClass: 2
Flags: W
LayerCount: 2
Back
Fore
SplineSet
786 1 m 1,0,-1
 651 1 l 1,1,-1
 651 497 l 2,2,3
 651 511 651 511 656 569 c 1,4,5
 653 561 653 561 648.5 546.5 c 128,-1,6
 644 532 644 532 640 520 c 128,-1,7
 636 508 636 508 632 497 c 2,8,-1
 453 0 l 1,9,-1
 379 0 l 1,10,-1
 195 497 l 2,11,12
 191 508 191 508 187 520 c 128,-1,13
 183 532 183 532 178.5 546.5 c 128,-1,14
 174 561 174 561 171 569 c 1,15,16
 171 560 171 560 173.5 535 c 128,-1,17
 176 510 176 510 176 497 c 2,18,-1
 176 1 l 1,19,-1
 67 1 l 1,20,-1
 67 671 l 2,21,22
 67 672 67 672 63.5 686 c 128,-1,23
 60 700 60 700 56.5 715 c 128,-1,24
 53 730 53 730 53 732 c 2,25,-1
 245 732 l 1,26,-1
 401 312 l 2,27,28
 412 282 412 282 430 191 c 1,29,30
 432 198 432 198 440.5 241.5 c 128,-1,31
 449 285 449 285 457 308 c 2,32,-1
 610 732 l 1,33,-1
 786 732 l 1,34,-1
 786 1 l 1,0,-1
EndSplineSet
EndChar
StartChar: N
Encoding: 78 78 46
Width: 714
GlyphClass: 2
Flags: W
LayerCount: 2
Back
Fore
SplineSet
650 -5 m 1,0,-1
 542 -5 l 1,1,-1
 213 497 l 2,2,3
 179 550 179 550 171 564 c 1,4,5
 177 498 177 498 177 497 c 2,6,-1
 177 0 l 1,7,-1
 66 0 l 1,8,-1
 66 670 l 2,9,10
 66 671 66 671 62.5 685 c 128,-1,11
 59 699 59 699 55.5 714 c 128,-1,12
 52 729 52 729 52 731 c 2,13,-1
 216 731 l 1,14,-1
 504 293 l 2,15,16
 519 271 519 271 545 227 c 1,17,18
 539 302 539 302 539 304 c 2,19,-1
 539 731 l 1,20,-1
 650 731 l 1,21,-1
 650 -5 l 1,0,-1
EndSplineSet
EndChar
StartChar: O
Encoding: 79 79 47
Width: 737
GlyphClass: 2
Flags: W
LayerCount: 2
Back
Fore
SplineSet
718 365 m 0,0,1
 718 200 718 200 623 94.5 c 128,-1,2
 528 -11 528 -11 365 -11 c 256,3,4
 202 -11 202 -11 110.5 95.5 c 128,-1,5
 19 202 19 202 19 367 c 0,6,7
 19 533 19 533 111 638 c 128,-1,8
 203 743 203 743 366 743 c 0,9,10
 533 743 533 743 625.5 638.5 c 128,-1,11
 718 534 718 534 718 365 c 0,0,1
570 361 m 0,12,13
 570 414 570 414 560 461.5 c 128,-1,14
 550 509 550 509 528 552.5 c 128,-1,15
 506 596 506 596 464.5 622 c 128,-1,16
 423 648 423 648 367 648 c 0,17,18
 312 648 312 648 271 623.5 c 128,-1,19
 230 599 230 599 208 557.5 c 128,-1,20
 186 516 186 516 176 469.5 c 128,-1,21
 166 423 166 423 166 371 c 0,22,23
 166 318 166 318 176 270.5 c 128,-1,24
 186 223 186 223 208 179.5 c 128,-1,25
 230 136 230 136 271.5 110 c 128,-1,26
 313 84 313 84 369 84 c 0,27,28
 424 84 424 84 465 108.5 c 128,-1,29
 506 133 506 133 528 174.5 c 128,-1,30
 550 216 550 216 560 262.5 c 128,-1,31
 570 309 570 309 570 361 c 0,12,13
EndSplineSet
EndChar
StartChar: P
Encoding: 80 80 48
Width: 575
GlyphClass: 2
Flags: W
LayerCount: 2
Back
Fore
SplineSet
549 513 m 0,0,1
 549 405 549 405 472.5 349.5 c 128,-1,2
 396 294 396 294 285 294 c 2,3,-1
 203 294 l 1,4,-1
 203 0 l 1,5,-1
 66 0 l 1,6,-1
 66 671 l 2,7,8
 66 673 66 673 59 700.5 c 128,-1,9
 52 728 52 728 51 732 c 1,10,-1
 283 732 l 2,11,12
 403 732 403 732 476 680.5 c 128,-1,13
 549 629 549 629 549 513 c 0,0,1
403 513 m 0,14,15
 403 569 403 569 374 601 c 128,-1,16
 345 633 345 633 289 633 c 2,17,-1
 204 633 l 1,18,-1
 204 391 l 1,19,-1
 288 391 l 2,20,21
 342 391 342 391 372.5 424.5 c 128,-1,22
 403 458 403 458 403 513 c 0,14,15
EndSplineSet
EndChar
StartChar: Q
Encoding: 81 81 49
Width: 737
GlyphClass: 2
Flags: W
LayerCount: 2
Back
Fore
SplineSet
1184 -163 m 1,0,1
 1085 -197 1085 -197 1044 -206.5 c 128,-1,2
 1003 -216 1003 -216 935 -216 c 0,3,4
 892 -216 892 -216 841 -205 c 128,-1,5
 790 -194 790 -194 728.5 -171 c 128,-1,6
 667 -148 667 -148 627 -131 c 128,-1,7
 587 -114 587 -114 517 -82 c 128,-1,8
 447 -50 447 -50 429 -42 c 0,9,10
 399 -29 399 -29 301 -8 c 0,11,12
 156 23 156 23 87.5 123 c 128,-1,13
 19 223 19 223 19 364 c 0,14,15
 19 439 19 439 41 506.5 c 128,-1,16
 63 574 63 574 105 627.5 c 128,-1,17
 147 681 147 681 215 712.5 c 128,-1,18
 283 744 283 744 369 744 c 256,19,20
 455 744 455 744 523 712.5 c 128,-1,21
 591 681 591 681 633 627.5 c 128,-1,22
 675 574 675 574 696.5 506.5 c 128,-1,23
 718 439 718 439 718 364 c 0,24,25
 718 259 718 259 674 168.5 c 128,-1,26
 630 78 630 78 536 27 c 1,27,-1
 548 21 l 2,28,29
 629 -18 629 -18 682 -42 c 128,-1,30
 735 -66 735 -66 825 -94 c 128,-1,31
 915 -122 915 -122 976 -122 c 0,32,33
 1044 -122 1044 -122 1161 -87 c 1,34,-1
 1184 -163 l 1,0,1
571 364 m 0,35,36
 571 438 571 438 552 499.5 c 128,-1,37
 533 561 533 561 486 604.5 c 128,-1,38
 439 648 439 648 369 648 c 0,39,40
 300 648 300 648 252.5 604.5 c 128,-1,41
 205 561 205 561 186 499 c 128,-1,42
 167 437 167 437 167 363 c 0,43,44
 167 290 167 290 186 229.5 c 128,-1,45
 205 169 205 169 252.5 127 c 128,-1,46
 300 85 300 85 369 85 c 0,47,48
 471 85 471 85 521 166.5 c 128,-1,49
 571 248 571 248 571 364 c 0,35,36
EndSplineSet
EndChar
StartChar: R
Encoding: 82 82 50
Width: 591
GlyphClass: 2
Flags: W
LayerCount: 2
Back
Fore
SplineSet
617 0 m 1,0,-1
 461 0 l 1,1,-1
 258 326 l 1,2,-1
 203 326 l 1,3,-1
 203 0 l 1,4,-1
 66 0 l 1,5,-1
 66 671 l 2,6,7
 66 673 66 673 59 700.5 c 128,-1,8
 52 728 52 728 51 732 c 1,9,-1
 302 732 l 2,10,11
 413 732 413 732 481 685 c 128,-1,12
 549 638 549 638 549 532 c 0,13,14
 549 470 549 470 502 416 c 128,-1,15
 455 362 455 362 393 347 c 1,16,-1
 617 0 l 1,0,-1
404 533 m 0,17,18
 404 580 404 580 371 606 c 128,-1,19
 338 632 338 632 289 632 c 2,20,-1
 203 632 l 1,21,-1
 203 424 l 1,22,-1
 267 424 l 2,23,24
 404 424 404 424 404 533 c 0,17,18
EndSplineSet
EndChar
StartChar: S
Encoding: 83 83 51
Width: 516
GlyphClass: 2
Flags: W
LayerCount: 2
Back
Fore
SplineSet
496 215 m 0,0,1
 496 109 496 109 421.5 48.5 c 128,-1,2
 347 -12 347 -12 239 -12 c 0,3,4
 102 -12 102 -12 4 46 c 1,5,-1
 51 157 l 1,6,7
 129 84 129 84 226 84 c 0,8,9
 277 84 277 84 313.5 112 c 128,-1,10
 350 140 350 140 350 190 c 0,11,12
 350 226 350 226 326 254 c 128,-1,13
 302 282 302 282 266.5 298 c 128,-1,14
 231 314 231 314 189 335.5 c 128,-1,15
 147 357 147 357 111.5 379 c 128,-1,16
 76 401 76 401 52 441.5 c 128,-1,17
 28 482 28 482 28 535 c 0,18,19
 28 638 28 638 99.5 691 c 128,-1,20
 171 744 171 744 290 744 c 0,21,22
 335 744 335 744 394 726 c 128,-1,23
 453 708 453 708 484 684 c 1,24,-1
 415 598 l 1,25,26
 359 648 359 648 277 648 c 0,27,28
 235 648 235 648 204.5 626 c 128,-1,29
 174 604 174 604 174 564 c 0,30,31
 174 529 174 529 198 502.5 c 128,-1,32
 222 476 222 476 257.5 460 c 128,-1,33
 293 444 293 444 335 422 c 128,-1,34
 377 400 377 400 412.5 377.5 c 128,-1,35
 448 355 448 355 472 313 c 128,-1,36
 496 271 496 271 496 215 c 0,0,1
EndSplineSet
EndChar
StartChar: T
Encoding: 84 84 52
Width: 578
GlyphClass: 2
Flags: W
LayerCount: 2
Back
Fore
SplineSet
565 633 m 1,0,-1
 359 633 l 1,1,-1
 359 0 l 1,2,-1
 216 0 l 1,3,-1
 216 633 l 1,4,-1
 13 633 l 1,5,-1
 13 732 l 1,6,-1
 565 732 l 1,7,-1
 565 633 l 1,0,-1
EndSplineSet
EndChar
StartChar: U
Encoding: 85 85 53
Width: 707
GlyphClass: 2
Flags: W
LayerCount: 2
Back
Fore
SplineSet
644 278 m 2,0,1
 644 129 644 129 565.5 59 c 128,-1,2
 487 -11 487 -11 356 -11 c 0,3,4
 217 -11 217 -11 142.5 63.5 c 128,-1,5
 68 138 68 138 68 278 c 2,6,-1
 68 672 l 1,7,-1
 52 732 l 1,8,-1
 209 732 l 1,9,-1
 209 245 l 2,10,11
 209 172 209 172 253 128 c 128,-1,12
 297 84 297 84 370 84 c 0,13,14
 444 84 444 84 487.5 127 c 128,-1,15
 531 170 531 170 531 245 c 2,16,-1
 531 732 l 1,17,-1
 644 732 l 1,18,-1
 644 278 l 2,0,1
EndSplineSet
EndChar
StartChar: V
Encoding: 86 86 54
Width: 603
GlyphClass: 2
Flags: W
LayerCount: 2
Back
Fore
SplineSet
603 731 m 1,0,-1
 350 -2 l 1,1,-1
 252 -2 l 1,2,-1
 0 731 l 1,3,-1
 146 731 l 1,4,5
 282 335 282 335 289 313 c 0,6,7
 303 269 303 269 318 199 c 1,8,9
 332 267 332 267 357 336 c 2,10,-1
 492 731 l 1,11,-1
 603 731 l 1,0,-1
EndSplineSet
EndChar
StartChar: W
Encoding: 87 87 55
Width: 894
GlyphClass: 2
Flags: W
LayerCount: 2
Back
Fore
SplineSet
908 732 m 1,0,-1
 705 -2 l 1,1,-1
 581 -2 l 1,2,3
 570 36 570 36 544.5 126.5 c 128,-1,4
 519 217 519 217 501 284.5 c 128,-1,5
 483 352 483 352 468 414 c 0,6,7
 454 474 454 474 448 526 c 1,8,9
 435 438 435 438 414 361 c 2,10,-1
 315 -2 l 1,11,-1
 187 -2 l 1,12,-1
 -14 732 l 1,13,-1
 124 732 l 1,14,15
 229 352 229 352 240 309 c 0,16,17
 253 255 253 255 263 182 c 1,18,19
 272 247 272 247 298 346 c 2,20,-1
 403 732 l 1,21,-1
 519 732 l 1,22,23
 531 688 531 688 556.5 599.5 c 128,-1,24
 582 511 582 511 601 440.5 c 128,-1,25
 620 370 620 370 636 307 c 0,26,27
 648 258 648 258 657 182 c 1,28,29
 669 268 669 268 691 346 c 2,30,-1
 797 732 l 1,31,-1
 908 732 l 1,0,-1
EndSplineSet
EndChar
StartChar: X
Encoding: 88 88 56
Width: 585
GlyphClass: 2
Flags: W
LayerCount: 2
Back
Fore
SplineSet
597 0 m 1,0,-1
 437 0 l 1,1,-1
 282 266 l 1,2,-1
 117 0 l 1,3,-1
 -12 0 l 1,4,-1
 217 371 l 1,5,-1
 2 732 l 1,6,-1
 161 732 l 1,7,-1
 298 503 l 1,8,-1
 440 732 l 1,9,-1
 569 732 l 1,10,-1
 362 394 l 1,11,-1
 597 0 l 1,0,-1
EndSplineSet
EndChar
StartChar: Y
Encoding: 89 89 57
Width: 584
GlyphClass: 2
Flags: W
LayerCount: 2
Back
Fore
SplineSet
574 732 m 1,0,-1
 357 333 l 1,1,-1
 357 0 l 1,2,-1
 224 0 l 1,3,-1
 224 333 l 1,4,-1
 10 732 l 1,5,-1
 158 732 l 1,6,-1
 304 460 l 1,7,-1
 454 732 l 1,8,-1
 574 732 l 1,0,-1
EndSplineSet
EndChar
StartChar: Z
Encoding: 90 90 58
Width: 571
GlyphClass: 2
Flags: W
LayerCount: 2
Back
Fore
SplineSet
558 99 m 1,0,-1
 546 0 l 1,1,-1
 13 0 l 1,2,-1
 13 82 l 1,3,-1
 364 634 l 1,4,-1
 37 634 l 1,5,-1
 37 732 l 1,6,-1
 540 732 l 1,7,-1
 540 659 l 1,8,-1
 182 99 l 1,9,-1
 558 99 l 1,0,-1
EndSplineSet
EndChar
StartChar: bracketleft
Encoding: 91 91 59
Width: 351
GlyphClass: 2
Flags: W
LayerCount: 2
Back
Fore
SplineSet
311 -132 m 1,0,-1
 93 -132 l 1,1,-1
 93 732 l 1,2,-1
 311 732 l 1,3,-1
 311 673 l 1,4,-1
 212 673 l 1,5,-1
 212 -73 l 1,6,-1
 311 -73 l 1,7,-1
 311 -132 l 1,0,-1
EndSplineSet
EndChar
StartChar: bracketright
Encoding: 93 93 61
Width: 350
GlyphClass: 2
Flags: W
LayerCount: 2
Back
Fore
SplineSet
258 -132 m 1,0,-1
 40 -132 l 1,1,-1
 40 -73 l 1,2,-1
 139 -73 l 1,3,-1
 139 673 l 1,4,-1
 40 673 l 1,5,-1
 40 732 l 1,6,-1
 258 732 l 1,7,-1
 258 -132 l 1,0,-1
EndSplineSet
EndChar
StartChar: asciicircum
Encoding: 94 94 62
Width: 618
GlyphClass: 2
Flags: W
LayerCount: 2
Back
Fore
SplineSet
591 0 m 1,0,-1
 500 0 l 1,1,-1
 330 368 l 1,2,-1
 157 0 l 1,3,-1
 69 0 l 1,4,-1
 304 498 l 1,5,-1
 356 498 l 1,6,-1
 591 0 l 1,0,-1
EndSplineSet
EndChar
StartChar: underscore
Encoding: 95 95 63
Width: 499
GlyphClass: 2
Flags: W
LayerCount: 2
Back
Fore
SplineSet
504 -143 m 1,0,-1
 -4 -143 l 1,1,-1
 -4 -47 l 1,2,-1
 504 -47 l 1,3,-1
 504 -143 l 1,0,-1
EndSplineSet
EndChar
StartChar: grave
Encoding: 96 96 64
Width: 281
GlyphClass: 2
Flags: W
LayerCount: 2
Back
Fore
SplineSet
258 590 m 1,0,-1
 155 590 l 1,1,-1
 4 755 l 1,2,-1
 149 755 l 1,3,-1
 258 590 l 1,0,-1
EndSplineSet
EndChar
StartChar: a
Encoding: 97 97 65
Width: 494
GlyphClass: 2
Flags: W
LayerCount: 2
Back
Fore
SplineSet
516 19 m 1,0,1
 507 17 507 17 488.5 11 c 128,-1,2
 470 5 470 5 458 1.5 c 128,-1,3
 446 -2 446 -2 429.5 -5 c 128,-1,4
 413 -8 413 -8 400 -8 c 0,5,6
 370 -8 370 -8 349 10.5 c 128,-1,7
 328 29 328 29 321 59 c 1,8,9
 271 -11 271 -11 171 -11 c 0,10,11
 110 -11 110 -11 70 23 c 128,-1,12
 30 57 30 57 30 117 c 0,13,14
 30 169 30 169 55 205 c 128,-1,15
 80 241 80 241 123 258.5 c 128,-1,16
 166 276 166 276 209 283.5 c 128,-1,17
 252 291 252 291 301 291 c 1,18,-1
 301 356 l 2,19,20
 301 395 301 395 284 410.5 c 128,-1,21
 267 426 267 426 229 426 c 0,22,23
 176 426 176 426 101 368 c 1,24,-1
 52 447 l 1,25,26
 143 509 143 509 254 509 c 0,27,28
 334 509 334 509 377.5 468 c 128,-1,29
 421 427 421 427 421 347 c 2,30,-1
 421 130 l 2,31,32
 421 80 421 80 445 80 c 0,33,34
 453 80 453 80 495 92 c 1,35,-1
 516 19 l 1,0,1
301 186 m 2,36,-1
 301 209 l 1,37,38
 155 209 155 209 155 129 c 0,39,40
 155 107 155 107 172.5 94 c 128,-1,41
 190 81 190 81 213 81 c 0,42,43
 252 81 252 81 276.5 113.5 c 128,-1,44
 301 146 301 146 301 186 c 2,36,-1
EndSplineSet
EndChar
StartChar: b
Encoding: 98 98 66
Width: 558
GlyphClass: 2
Flags: W
LayerCount: 2
Back
Fore
SplineSet
530 251 m 0,0,1
 530 141 530 141 466.5 64.5 c 128,-1,2
 403 -12 403 -12 295 -12 c 0,3,4
 203 -12 203 -12 147 57 c 1,5,-1
 126 -1 l 1,6,-1
 64 -1 l 1,7,8
 68 43 68 43 68 65 c 2,9,-1
 68 713 l 2,10,11
 68 714 68 714 61.5 739.5 c 128,-1,12
 55 765 55 765 54 768 c 2,13,-1
 188 768 l 1,14,-1
 188 526 l 2,15,16
 188 502 188 502 187 480.5 c 128,-1,17
 186 459 186 459 186 457 c 1,18,19
 246 508 246 508 327 508 c 0,20,21
 391 508 391 508 438.5 468 c 128,-1,22
 486 428 486 428 508 370.5 c 128,-1,23
 530 313 530 313 530 251 c 0,0,1
399 245 m 0,24,25
 399 283 399 283 389 319.5 c 128,-1,26
 379 356 379 356 352 386 c 128,-1,27
 325 416 325 416 286 416 c 0,28,29
 231 416 231 416 188 368 c 1,30,-1
 188 205 l 2,31,32
 188 148 188 148 213 109 c 128,-1,33
 238 70 238 70 292 70 c 0,34,35
 332 70 332 70 357.5 101.5 c 128,-1,36
 383 133 383 133 391 169.5 c 128,-1,37
 399 206 399 206 399 245 c 0,24,25
EndSplineSet
EndChar
StartChar: c
Encoding: 99 99 67
Width: 450
GlyphClass: 2
Flags: W
LayerCount: 2
Back
Fore
SplineSet
442 35 m 1,0,1
 392 10 392 10 355 -1 c 128,-1,2
 318 -12 318 -12 269 -12 c 0,3,4
 153 -12 153 -12 89.5 59.5 c 128,-1,5
 26 131 26 131 26 249 c 0,6,7
 26 366 26 366 96.5 438 c 128,-1,8
 167 510 167 510 283 510 c 0,9,10
 320 510 320 510 362 497 c 128,-1,11
 404 484 404 484 434 462 c 1,12,-1
 374 386 l 1,13,14
 322 425 322 425 272 425 c 0,15,16
 214 425 214 425 186 370 c 128,-1,17
 158 315 158 315 158 251 c 0,18,19
 158 206 158 206 169.5 167.5 c 128,-1,20
 181 129 181 129 211 100.5 c 128,-1,21
 241 72 241 72 287 72 c 256,22,23
 333 72 333 72 391 121 c 1,24,-1
 442 35 l 1,0,1
EndSplineSet
EndChar
StartChar: d
Encoding: 100 100 68
Width: 558
GlyphClass: 2
Flags: W
LayerCount: 2
Back
Fore
SplineSet
515 3 m 1,0,-1
 394 -9 l 1,1,2
 386 13 386 13 379 51 c 1,3,4
 359 22 359 22 319.5 5 c 128,-1,5
 280 -12 280 -12 241 -12 c 0,6,7
 140 -12 140 -12 84 64.5 c 128,-1,8
 28 141 28 141 28 245 c 0,9,10
 28 359 28 359 88.5 434 c 128,-1,11
 149 509 149 509 260 509 c 0,12,13
 332 509 332 509 371 477 c 1,14,15
 370 504 370 504 370 538 c 2,16,-1
 370 714 l 1,17,-1
 355 768 l 1,18,-1
 490 768 l 1,19,-1
 490 142 l 2,20,21
 490 49 490 49 515 3 c 1,0,-1
370 129 m 1,22,-1
 370 292 l 2,23,24
 370 349 370 349 347 386.5 c 128,-1,25
 324 424 324 424 271 424 c 0,26,27
 230 424 230 424 203.5 393.5 c 128,-1,28
 177 363 177 363 168 326.5 c 128,-1,29
 159 290 159 290 159 250 c 0,30,31
 159 184 159 184 187 130.5 c 128,-1,32
 215 77 215 77 275 77 c 0,33,34
 302 77 302 77 328.5 91.5 c 128,-1,35
 355 106 355 106 370 129 c 1,22,-1
EndSplineSet
EndChar
StartChar: e
Encoding: 101 101 69
Width: 494
GlyphClass: 2
Flags: W
LayerCount: 2
Back
Fore
SplineSet
466 294 m 0,0,1
 466 234 466 234 415 234 c 2,2,-1
 153 234 l 1,3,4
 153 170 153 170 187 119.5 c 128,-1,5
 221 69 221 69 282 69 c 0,6,7
 313 69 313 69 346.5 84 c 128,-1,8
 380 99 380 99 403 122 c 1,9,-1
 454 42 l 1,10,11
 423 16 423 16 372.5 2.5 c 128,-1,12
 322 -11 322 -11 276 -11 c 0,13,14
 160 -11 160 -11 93 58.5 c 128,-1,15
 26 128 26 128 26 245 c 0,16,17
 26 356 26 356 88.5 433.5 c 128,-1,18
 151 511 151 511 259 511 c 0,19,20
 357 511 357 511 411.5 452 c 128,-1,21
 466 393 466 393 466 294 c 0,0,1
341 335 m 0,22,23
 341 376 341 376 320 402.5 c 128,-1,24
 299 429 299 429 260 429 c 0,25,26
 220 429 220 429 189 392 c 128,-1,27
 158 355 158 355 156 313 c 1,28,-1
 324 313 l 2,29,30
 341 313 341 313 341 335 c 0,22,23
EndSplineSet
EndChar
StartChar: f
Encoding: 102 102 70
Width: 288
GlyphClass: 2
Flags: W
LayerCount: 2
Back
Fore
SplineSet
408 753 m 1,0,-1
 376 672 l 1,1,2
 345 694 345 694 314 694 c 0,3,4
 278 694 278 694 254.5 677.5 c 128,-1,5
 231 661 231 661 221 630 c 128,-1,6
 211 599 211 599 208 573 c 128,-1,7
 205 547 205 547 205 511 c 2,8,-1
 205 497 l 1,9,-1
 327 497 l 1,10,-1
 304 417 l 1,11,-1
 205 417 l 1,12,-1
 205 -1 l 1,13,-1
 85 -1 l 1,14,-1
 85 417 l 1,15,-1
 3 417 l 1,16,-1
 3 488 l 1,17,18
 78 488 78 488 87 532 c 0,19,20
 90 544 90 544 96 577 c 128,-1,21
 102 610 102 610 105.5 621.5 c 128,-1,22
 109 633 109 633 117.5 655.5 c 128,-1,23
 126 678 126 678 139 694.5 c 128,-1,24
 152 711 152 711 172 730 c 0,25,26
 224 776 224 776 309 776 c 0,27,28
 371 776 371 776 408 753 c 1,0,-1
EndSplineSet
EndChar
StartChar: g
Encoding: 103 103 71
Width: 478
GlyphClass: 2
Flags: W
LayerCount: 2
Back
Fore
SplineSet
248 91 m 2,0,-1
 294 91 l 2,1,2
 324 91 324 91 345 89.5 c 128,-1,3
 366 88 366 88 392 81.5 c 128,-1,4
 418 75 418 75 434.5 63.5 c 128,-1,5
 451 52 451 52 462 30 c 128,-1,6
 473 8 473 8 473 -23 c 0,7,8
 473 -91 473 -91 429.5 -140 c 128,-1,9
 386 -189 386 -189 326 -209.5 c 128,-1,10
 266 -230 266 -230 200 -230 c 0,11,12
 166 -230 166 -230 134.5 -224.5 c 128,-1,13
 103 -219 103 -219 71 -206.5 c 128,-1,14
 39 -194 39 -194 19.5 -168 c 128,-1,15
 0 -142 0 -142 0 -105 c 0,16,17
 0 -63 0 -63 25.5 -28.5 c 128,-1,18
 51 6 51 6 88 23 c 1,19,-1
 88 27 l 1,20,21
 70 32 70 32 56 52 c 128,-1,22
 42 72 42 72 42 95 c 0,23,24
 42 103 42 103 52.5 113.5 c 128,-1,25
 63 124 63 124 82.5 145 c 128,-1,26
 102 166 102 166 118 193 c 1,27,28
 29 243 29 243 29 340 c 0,29,30
 29 416 29 416 84.5 464 c 128,-1,31
 140 512 140 512 218 512 c 0,32,33
 240 512 240 512 274 504.5 c 128,-1,34
 308 497 308 497 325 497 c 0,35,36
 375 497 375 497 503 508 c 1,37,-1
 481 425 l 1,38,-1
 396 425 l 2,39,40
 390 425 390 425 373 430 c 1,41,42
 405 389 405 389 405 341 c 0,43,44
 405 264 405 264 348.5 216 c 128,-1,45
 292 168 292 168 213 168 c 0,46,47
 194 168 194 168 180 155 c 128,-1,48
 166 142 166 142 166 123 c 0,49,50
 166 91 166 91 248 91 c 2,0,-1
262 0 m 2,51,-1
 171 0 l 1,52,53
 150 -11 150 -11 136 -34.5 c 128,-1,54
 122 -58 122 -58 122 -82 c 0,55,56
 122 -114 122 -114 151 -129 c 128,-1,57
 180 -144 180 -144 215 -144 c 0,58,59
 241 -144 241 -144 264 -140 c 128,-1,60
 287 -136 287 -136 309.5 -126.5 c 128,-1,61
 332 -117 332 -117 345.5 -97.5 c 128,-1,62
 359 -78 359 -78 359 -50 c 0,63,64
 359 0 359 0 262 0 c 2,51,-1
171 266 m 256,65,66
 188 238 188 238 217 238 c 256,67,68
 246 238 246 238 263.5 266 c 128,-1,69
 281 294 281 294 281 337 c 128,-1,70
 281 380 281 380 263.5 408.5 c 128,-1,71
 246 437 246 437 217 437 c 256,72,73
 188 437 188 437 171 408.5 c 128,-1,74
 154 380 154 380 154 337 c 128,-1,75
 154 294 154 294 171 266 c 256,65,66
EndSplineSet
EndChar
StartChar: h
Encoding: 104 104 72
Width: 547
GlyphClass: 2
Flags: W
LayerCount: 2
Back
Fore
SplineSet
481 0 m 1,0,-1
 360 0 l 1,1,-1
 360 324 l 2,2,3
 360 352 360 352 357 369.5 c 128,-1,4
 354 387 354 387 339 401.5 c 128,-1,5
 324 416 324 416 297 416 c 0,6,7
 275 416 275 416 240.5 397.5 c 128,-1,8
 206 379 206 379 189 361 c 1,9,-1
 189 0 l 1,10,-1
 70 0 l 1,11,-1
 70 715 l 1,12,-1
 58 769 l 1,13,-1
 189 769 l 1,14,-1
 189 450 l 1,15,16
 263 511 263 511 333 511 c 0,17,18
 414 511 414 511 447.5 466 c 128,-1,19
 481 421 481 421 481 336 c 2,20,-1
 481 0 l 1,0,-1
EndSplineSet
EndChar
StartChar: i
Encoding: 105 105 73
Width: 251
GlyphClass: 2
Flags: W
LayerCount: 2
Back
Fore
SplineSet
185 0 m 1,0,-1
 65 0 l 1,1,-1
 65 443 l 2,2,3
 65 444 65 444 62.5 456 c 128,-1,4
 60 468 60 468 57 482 c 128,-1,5
 54 496 54 496 54 497 c 2,6,-1
 185 497 l 1,7,-1
 185 0 l 1,0,-1
179 733 m 0,8,9
 202 710 202 710 202 678 c 128,-1,10
 202 646 202 646 179.5 623.5 c 128,-1,11
 157 601 157 601 125 601 c 256,12,13
 93 601 93 601 70.5 623.5 c 128,-1,14
 48 646 48 646 48 678 c 128,-1,15
 48 710 48 710 70.5 733 c 128,-1,16
 93 756 93 756 125 756 c 256,17,18
 157 756 157 756 179 733 c 0,8,9
EndSplineSet
EndChar
StartChar: j
Encoding: 106 106 74
Width: 251
GlyphClass: 2
Flags: W
LayerCount: 2
Back
Fore
SplineSet
185 66 m 2,0,1
 185 22 185 22 182 -12.5 c 128,-1,2
 179 -47 179 -47 168.5 -86 c 128,-1,3
 158 -125 158 -125 139.5 -152 c 128,-1,4
 121 -179 121 -179 88.5 -199 c 128,-1,5
 56 -219 56 -219 11 -224 c 1,6,-1
 -11 -169 l 1,7,8
 16 -154 16 -154 32.5 -131.5 c 128,-1,9
 49 -109 49 -109 55.5 -76 c 128,-1,10
 62 -43 62 -43 63.5 -21 c 128,-1,11
 65 1 65 1 65 40 c 2,12,-1
 65 444 l 2,13,14
 65 445 65 445 62 457 c 128,-1,15
 59 469 59 469 56 482 c 128,-1,16
 53 495 53 495 53 497 c 2,17,-1
 185 497 l 1,18,-1
 185 66 l 2,0,1
178 733 m 0,19,20
 201 710 201 710 201 678 c 128,-1,21
 201 646 201 646 178.5 623.5 c 128,-1,22
 156 601 156 601 124 601 c 256,23,24
 92 601 92 601 69.5 623.5 c 128,-1,25
 47 646 47 646 47 678 c 128,-1,26
 47 710 47 710 69.5 733 c 128,-1,27
 92 756 92 756 124 756 c 256,28,29
 156 756 156 756 178 733 c 0,19,20
EndSplineSet
EndChar
StartChar: k
Encoding: 107 107 75
Width: 465
GlyphClass: 2
Flags: W
LayerCount: 2
Back
Fore
SplineSet
491 0 m 1,0,-1
 356 0 l 1,1,-1
 191 255 l 1,2,-1
 191 0 l 1,3,-1
 68 0 l 1,4,-1
 68 715 l 1,5,-1
 55 769 l 1,6,-1
 191 769 l 1,7,-1
 191 292 l 1,8,-1
 345 497 l 1,9,-1
 462 497 l 1,10,-1
 301 287 l 1,11,-1
 491 0 l 1,0,-1
EndSplineSet
EndChar
StartChar: l
Encoding: 108 108 76
Width: 251
GlyphClass: 2
Flags: W
LayerCount: 2
Back
Fore
SplineSet
185 0 m 1,0,-1
 63 0 l 1,1,-1
 63 715 l 2,2,3
 63 716 63 716 60.5 728 c 128,-1,4
 58 740 58 740 55 754 c 128,-1,5
 52 768 52 768 52 769 c 2,6,-1
 185 769 l 1,7,-1
 185 0 l 1,0,-1
EndSplineSet
EndChar
StartChar: m
Encoding: 109 109 77
Width: 829
GlyphClass: 2
Flags: W
LayerCount: 2
Back
Fore
SplineSet
766 0 m 1,0,-1
 646 0 l 1,1,-1
 646 332 l 2,2,3
 646 373 646 373 632 394.5 c 128,-1,4
 618 416 618 416 580 416 c 0,5,6
 557 416 557 416 528.5 399 c 128,-1,7
 500 382 500 382 480 362 c 1,8,-1
 480 0 l 1,9,-1
 359 0 l 1,10,-1
 359 335 l 2,11,12
 359 416 359 416 296 416 c 0,13,14
 272 416 272 416 243.5 399.5 c 128,-1,15
 215 383 215 383 195 361 c 1,16,-1
 195 0 l 1,17,-1
 75 0 l 1,18,-1
 75 356 l 2,19,20
 75 456 75 456 44 493 c 1,21,-1
 170 508 l 1,22,23
 182 482 182 482 187 444 c 1,24,25
 263 510 263 510 340 510 c 0,26,27
 433 510 433 510 464 437 c 1,28,29
 537 510 537 510 626 510 c 0,30,31
 703 510 703 510 734.5 465 c 128,-1,32
 766 420 766 420 766 339 c 2,33,-1
 766 0 l 1,0,-1
EndSplineSet
EndChar
StartChar: n
Encoding: 110 110 78
Width: 547
GlyphClass: 2
Flags: W
LayerCount: 2
Back
Fore
SplineSet
486 0 m 1,0,-1
 365 0 l 1,1,-1
 365 324 l 2,2,3
 365 352 365 352 362 369.5 c 128,-1,4
 359 387 359 387 344 401.5 c 128,-1,5
 329 416 329 416 302 416 c 0,6,7
 280 416 280 416 245.5 397.5 c 128,-1,8
 211 379 211 379 194 361 c 1,9,-1
 194 0 l 1,10,-1
 74 0 l 1,11,-1
 74 356 l 2,12,13
 74 456 74 456 43 493 c 1,14,-1
 169 508 l 1,15,16
 181 482 181 482 186 444 c 1,17,18
 260 511 260 511 338 511 c 0,19,20
 419 511 419 511 452.5 466 c 128,-1,21
 486 421 486 421 486 336 c 2,22,-1
 486 0 l 1,0,-1
EndSplineSet
EndChar
StartChar: o
Encoding: 111 111 79
Width: 536
GlyphClass: 2
Flags: W
LayerCount: 2
Back
Fore
SplineSet
26 249 m 0,0,1
 26 359 26 359 92.5 434.5 c 128,-1,2
 159 510 159 510 268 510 c 0,3,4
 378 510 378 510 444 435 c 128,-1,5
 510 360 510 360 510 249 c 128,-1,6
 510 138 510 138 444 63 c 128,-1,7
 378 -12 378 -12 268 -12 c 256,8,9
 158 -12 158 -12 92 63 c 128,-1,10
 26 138 26 138 26 249 c 0,0,1
268 428 m 0,11,12
 226 428 226 428 199.5 396 c 128,-1,13
 173 364 173 364 165.5 327 c 128,-1,14
 158 290 158 290 158 248 c 128,-1,15
 158 206 158 206 165.5 169 c 128,-1,16
 173 132 173 132 199.5 100 c 128,-1,17
 226 68 226 68 268 68 c 0,18,19
 301 68 301 68 324.5 85 c 128,-1,20
 348 102 348 102 358.5 131 c 128,-1,21
 369 160 369 160 373.5 188 c 128,-1,22
 378 216 378 216 378 248 c 128,-1,23
 378 280 378 280 373.5 308 c 128,-1,24
 369 336 369 336 358.5 365 c 128,-1,25
 348 394 348 394 324.5 411 c 128,-1,26
 301 428 301 428 268 428 c 0,11,12
EndSplineSet
EndChar
StartChar: p
Encoding: 112 112 80
Width: 556
GlyphClass: 2
Flags: W
LayerCount: 2
Back
Fore
SplineSet
530 254 m 0,0,1
 530 140 530 140 469 65 c 128,-1,2
 408 -10 408 -10 297 -10 c 0,3,4
 227 -10 227 -10 186 22 c 1,5,6
 188 -19 188 -19 188 -36 c 2,7,-1
 188 -162 l 1,8,9
 200 -212 200 -212 202 -217 c 1,10,-1
 67 -217 l 1,11,-1
 67 357 l 2,12,13
 67 451 67 451 38 493 c 1,14,-1
 163 508 l 1,15,16
 173 481 173 481 178 448 c 1,17,18
 199 477 199 477 239 494 c 128,-1,19
 279 511 279 511 316 511 c 0,20,21
 417 511 417 511 473.5 435 c 128,-1,22
 530 359 530 359 530 254 c 0,0,1
399 249 m 0,23,24
 399 315 399 315 371 368.5 c 128,-1,25
 343 422 343 422 283 422 c 0,26,27
 256 422 256 422 229.5 407.5 c 128,-1,28
 203 393 203 393 188 370 c 1,29,-1
 188 207 l 2,30,31
 188 150 188 150 211 112.5 c 128,-1,32
 234 75 234 75 287 75 c 0,33,34
 328 75 328 75 354.5 105.5 c 128,-1,35
 381 136 381 136 390 172.5 c 128,-1,36
 399 209 399 209 399 249 c 0,23,24
EndSplineSet
EndChar
StartChar: q
Encoding: 113 113 81
Width: 556
GlyphClass: 2
Flags: W
LayerCount: 2
Back
Fore
SplineSet
502 -217 m 2,0,-1
 368 -217 l 1,1,-1
 368 -35 l 2,2,3
 368 -10 368 -10 369 11 c 128,-1,4
 370 32 370 32 370 41 c 1,5,6
 309 -11 309 -11 229 -11 c 0,7,8
 135 -11 135 -11 81 68 c 128,-1,9
 27 147 27 147 27 246 c 0,10,11
 27 357 27 357 90 433 c 128,-1,12
 153 509 153 509 261 509 c 0,13,14
 353 509 353 509 409 441 c 1,15,-1
 430 497 l 1,16,-1
 492 497 l 1,17,18
 489 464 489 464 489 433 c 2,19,-1
 489 -162 l 2,20,21
 489 -163 489 -163 492 -175.5 c 128,-1,22
 495 -188 495 -188 498.5 -201.5 c 128,-1,23
 502 -215 502 -215 502 -217 c 2,0,-1
368 125 m 1,24,-1
 368 293 l 2,25,26
 368 350 368 350 343 389 c 128,-1,27
 318 428 318 428 265 428 c 0,28,29
 234 428 234 428 212 410.5 c 128,-1,30
 190 393 190 393 178.5 364.5 c 128,-1,31
 167 336 167 336 162 306 c 128,-1,32
 157 276 157 276 157 244 c 0,33,34
 157 206 157 206 167 170 c 128,-1,35
 177 134 177 134 204 105 c 128,-1,36
 231 76 231 76 270 76 c 0,37,38
 326 76 326 76 368 125 c 1,24,-1
EndSplineSet
EndChar
StartChar: r
Encoding: 114 114 82
Width: 349
GlyphClass: 2
Flags: W
LayerCount: 2
Back
Fore
SplineSet
352 507 m 1,0,-1
 332 388 l 1,1,-1
 328 388 l 2,2,3
 284 388 284 388 251.5 363.5 c 128,-1,4
 219 339 219 339 188 296 c 1,5,-1
 188 0 l 1,6,-1
 68 0 l 1,7,-1
 68 363 l 2,8,9
 68 454 68 454 36 497 c 1,10,-1
 163 507 l 1,11,12
 185 457 185 457 187 402 c 1,13,14
 213 446 213 446 258.5 476.5 c 128,-1,15
 304 507 304 507 352 507 c 1,0,-1
EndSplineSet
EndChar
StartChar: s
Encoding: 115 115 83
Width: 430
GlyphClass: 2
Flags: W
LayerCount: 2
Back
Fore
SplineSet
393 155 m 0,0,1
 393 78 393 78 335 32 c 128,-1,2
 277 -14 277 -14 198 -14 c 0,3,4
 110 -14 110 -14 32 29 c 1,5,-1
 75 111 l 1,6,7
 143 71 143 71 188 71 c 0,8,9
 220 71 220 71 241.5 87.5 c 128,-1,10
 263 104 263 104 263 135 c 0,11,12
 263 162 263 162 240.5 180 c 128,-1,13
 218 198 218 198 186 209 c 128,-1,14
 154 220 154 220 121.5 234.5 c 128,-1,15
 89 249 89 249 66.5 279 c 128,-1,16
 44 309 44 309 44 354 c 0,17,18
 44 429 44 429 101.5 469.5 c 128,-1,19
 159 510 159 510 236 510 c 0,20,21
 321 510 321 510 383 479 c 1,22,-1
 341 395 l 1,23,24
 297 429 297 429 242 429 c 0,25,26
 214 429 214 429 194 415.5 c 128,-1,27
 174 402 174 402 174 376 c 0,28,29
 174 351 174 351 196.5 335 c 128,-1,30
 219 319 219 319 251.5 307.5 c 128,-1,31
 284 296 284 296 316 281 c 128,-1,32
 348 266 348 266 370.5 234.5 c 128,-1,33
 393 203 393 203 393 155 c 0,0,1
EndSplineSet
EndChar
StartChar: t
Encoding: 116 116 84
Width: 327
GlyphClass: 2
Flags: W
LayerCount: 2
Back
Fore
SplineSet
327 11 m 1,0,1
 260 -10 260 -10 209 -10 c 0,2,3
 144 -10 144 -10 114 20 c 128,-1,4
 84 50 84 50 84 116 c 2,5,-1
 84 418 l 1,6,-1
 2 418 l 1,7,-1
 2 484 l 1,8,9
 40 485 40 485 70 511 c 128,-1,10
 100 537 100 537 115 570 c 128,-1,11
 130 603 130 603 139 642 c 1,12,-1
 226 642 l 1,13,14
 206 557 206 557 206 497 c 1,15,-1
 327 497 l 1,16,-1
 303 418 l 1,17,-1
 206 418 l 1,18,-1
 206 143 l 2,19,20
 206 76 206 76 248 76 c 0,21,22
 271 76 271 76 313 86 c 1,23,-1
 327 11 l 1,0,1
EndSplineSet
EndChar
StartChar: u
Encoding: 117 117 85
Width: 553
GlyphClass: 2
Flags: W
LayerCount: 2
Back
Fore
SplineSet
574 19 m 1,0,1
 567 17 567 17 539 8.5 c 128,-1,2
 511 0 511 0 492.5 -4 c 128,-1,3
 474 -8 474 -8 457 -8 c 0,4,5
 427 -8 427 -8 406 10.5 c 128,-1,6
 385 29 385 29 379 59 c 1,7,8
 308 -14 308 -14 215 -14 c 0,9,10
 133 -14 133 -14 99.5 31.5 c 128,-1,11
 66 77 66 77 66 161 c 2,12,-1
 66 443 l 1,13,-1
 55 497 l 1,14,-1
 188 497 l 1,15,-1
 188 182 l 2,16,17
 188 82 188 82 253 82 c 0,18,19
 297 82 297 82 328 109 c 128,-1,20
 359 136 359 136 359 179 c 2,21,-1
 359 443 l 2,22,23
 359 444 359 444 356 456 c 128,-1,24
 353 468 353 468 350 481.5 c 128,-1,25
 347 495 347 495 347 497 c 2,26,-1
 481 497 l 1,27,-1
 481 132 l 2,28,29
 481 80 481 80 506 80 c 0,30,31
 508 80 508 80 553 92 c 1,32,-1
 574 19 l 1,0,1
EndSplineSet
EndChar
StartChar: v
Encoding: 118 118 86
Width: 455
GlyphClass: 2
Flags: W
LayerCount: 2
Back
Fore
SplineSet
457 497 m 1,0,-1
 281 -4 l 1,1,-1
 173 -4 l 1,2,-1
 -2 497 l 1,3,-1
 127 497 l 1,4,-1
 218 235 l 2,5,6
 227 211 227 211 239 151 c 1,7,8
 252 222 252 222 256 235 c 2,9,-1
 349 497 l 1,10,-1
 457 497 l 1,0,-1
EndSplineSet
EndChar
StartChar: w
Encoding: 119 119 87
Width: 658
GlyphClass: 2
Flags: W
LayerCount: 2
Back
Fore
SplineSet
670 497 m 1,0,-1
 512 -4 l 1,1,-1
 419 -4 l 1,2,3
 413 18 413 18 388 96.5 c 128,-1,4
 363 175 363 175 349.5 226 c 128,-1,5
 336 277 336 277 327 329 c 1,6,7
 320 289 320 289 308 242.5 c 128,-1,8
 296 196 296 196 285.5 163 c 128,-1,9
 275 130 275 130 257.5 76.5 c 128,-1,10
 240 23 240 23 231 -4 c 1,11,-1
 136 -4 l 1,12,-1
 -12 497 l 1,13,-1
 114 497 l 1,14,-1
 181 272 l 2,15,16
 188 249 188 249 197 173 c 1,17,18
 198 181 198 181 200.5 203.5 c 128,-1,19
 203 226 203 226 206 241.5 c 128,-1,20
 209 257 209 257 214 272 c 2,21,-1
 286 497 l 1,22,-1
 397 497 l 1,23,-1
 464 272 l 2,24,25
 468 257 468 257 471 241.5 c 128,-1,26
 474 226 474 226 476.5 205 c 128,-1,27
 479 184 479 184 480 174 c 1,28,29
 489 248 489 248 496 272 c 2,30,-1
 567 497 l 1,31,-1
 670 497 l 1,0,-1
EndSplineSet
EndChar
StartChar: x
Encoding: 120 120 88
Width: 446
GlyphClass: 2
Flags: W
LayerCount: 2
Back
Fore
SplineSet
460 0 m 1,0,-1
 326 0 l 1,1,-1
 217 170 l 1,2,-1
 104 0 l 1,3,-1
 -14 0 l 1,4,-1
 160 261 l 1,5,-1
 8 497 l 1,6,-1
 143 497 l 1,7,-1
 229 364 l 1,8,-1
 316 497 l 1,9,-1
 435 497 l 1,10,-1
 286 274 l 1,11,-1
 460 0 l 1,0,-1
EndSplineSet
EndChar
StartChar: y
Encoding: 121 121 89
Width: 456
GlyphClass: 2
Flags: W
LayerCount: 2
Back
Fore
SplineSet
458 497 m 1,0,-1
 281 -3 l 2,1,2
 205 -221 205 -221 64 -221 c 2,3,-1
 27 -221 l 1,4,-1
 27 -136 l 1,5,6
 39 -139 39 -139 53 -139 c 0,7,8
 80 -139 80 -139 101.5 -126.5 c 128,-1,9
 123 -114 123 -114 137.5 -90 c 128,-1,10
 152 -66 152 -66 160.5 -46.5 c 128,-1,11
 169 -27 169 -27 178 1 c 1,12,-1
 -2 497 l 1,13,-1
 127 497 l 1,14,15
 134 476 134 476 170 375.5 c 128,-1,16
 206 275 206 275 224 221 c 0,17,18
 228 208 228 208 232.5 180.5 c 128,-1,19
 237 153 237 153 238 146 c 1,20,21
 249 210 249 210 252 221 c 2,22,-1
 348 497 l 1,23,-1
 458 497 l 1,0,-1
EndSplineSet
EndChar
StartChar: z
Encoding: 122 122 90
Width: 445
GlyphClass: 2
Flags: W
LayerCount: 2
Back
Fore
SplineSet
428 83 m 1,0,-1
 414 0 l 1,1,-1
 17 0 l 1,2,-1
 17 61 l 1,3,-1
 251 414 l 1,4,-1
 42 414 l 1,5,-1
 42 497 l 1,6,-1
 414 497 l 1,7,-1
 414 435 l 1,8,-1
 177 83 l 1,9,-1
 428 83 l 1,0,-1
EndSplineSet
EndChar
StartChar: braceleft
Encoding: 123 123 91
Width: 349
GlyphClass: 2
Flags: W
LayerCount: 2
Back
Fore
SplineSet
322 -147 m 1,0,-1
 276 -147 l 2,1,2
 117 -147 117 -147 117 24 c 2,3,-1
 117 183 l 2,4,5
 117 216 117 216 100.5 241 c 128,-1,6
 84 266 84 266 52 266 c 1,7,-1
 52 327 l 1,8,9
 116 327 116 327 116 416 c 2,10,-1
 116 569 l 2,11,12
 116 647 116 647 151.5 693 c 128,-1,13
 187 739 187 739 263 739 c 2,14,-1
 322 739 l 1,15,-1
 322 677 l 1,16,17
 270 677 270 677 252 660.5 c 128,-1,18
 234 644 234 644 234 593 c 2,19,-1
 234 427 l 2,20,21
 234 325 234 325 179 296 c 1,22,23
 233 267 233 267 233 166 c 2,24,-1
 233 0 l 2,25,26
 233 -54 233 -54 249.5 -69 c 128,-1,27
 266 -84 266 -84 322 -84 c 1,28,-1
 322 -147 l 1,0,-1
EndSplineSet
EndChar
StartChar: bar
Encoding: 124 124 92
Width: 235
GlyphClass: 2
Flags: W
LayerCount: 2
Back
Fore
SplineSet
168 -116 m 1,0,-1
 70 -116 l 1,1,-1
 70 745 l 1,2,-1
 168 745 l 1,3,-1
 168 -116 l 1,0,-1
EndSplineSet
EndChar
StartChar: braceright
Encoding: 125 125 93
Width: 349
GlyphClass: 2
Flags: W
LayerCount: 2
Back
Fore
SplineSet
297 267 m 1,0,1
 265 267 265 267 249 242 c 128,-1,2
 233 217 233 217 233 183 c 2,3,-1
 233 24 l 2,4,5
 233 -147 233 -147 73 -147 c 2,6,-1
 27 -147 l 1,7,-1
 27 -85 l 1,8,9
 85 -85 85 -85 100 -70.5 c 128,-1,10
 115 -56 115 -56 115 0 c 2,11,-1
 115 166 l 2,12,13
 115 267 115 267 170 296 c 1,14,15
 116 325 116 325 116 427 c 2,16,-1
 116 593 l 2,17,18
 116 643 116 643 97.5 659.5 c 128,-1,19
 79 676 79 676 27 676 c 1,20,-1
 27 739 l 1,21,-1
 86 739 l 2,22,23
 162 739 162 739 197 693 c 128,-1,24
 232 647 232 647 232 569 c 2,25,-1
 232 416 l 2,26,27
 232 380 232 380 247.5 354 c 128,-1,28
 263 328 263 328 297 328 c 1,29,-1
 297 267 l 1,0,1
EndSplineSet
EndChar
StartChar: asciitilde
Encoding: 126 126 94
Width: 663
GlyphClass: 2
Flags: W
LayerCount: 2
Back
Fore
SplineSet
591 299 m 1,0,1
 564 258 564 258 522 226 c 128,-1,2
 480 194 480 194 439 194 c 256,3,4
 398 194 398 194 328.5 229 c 128,-1,5
 259 264 259 264 223 264 c 0,6,7
 178 264 178 264 142 189 c 1,8,-1
 77 244 l 1,9,10
 97 289 97 289 137.5 321.5 c 128,-1,11
 178 354 178 354 223 354 c 0,12,13
 272 354 272 354 344 319 c 128,-1,14
 416 284 416 284 439 284 c 0,15,16
 487 284 487 284 528 357 c 1,17,-1
 591 299 l 1,0,1
EndSplineSet
EndChar
StartChar: exclamdown
Encoding: 161 161 95
Width: 329
GlyphClass: 2
Flags: W
LayerCount: 2
Back
Fore
SplineSet
237 -92 m 2,0,1
 237 -124 237 -124 199 -124 c 2,2,-1
 128 -124 l 2,3,4
 89 -124 89 -124 89 -89 c 2,5,-1
 118 382 l 1,6,-1
 207 382 l 1,7,-1
 237 -92 l 2,0,1
214 594 m 0,8,9
 237 571 237 571 237 539 c 128,-1,10
 237 507 237 507 214.5 484.5 c 128,-1,11
 192 462 192 462 160 462 c 256,12,13
 128 462 128 462 105.5 484.5 c 128,-1,14
 83 507 83 507 83 539 c 128,-1,15
 83 571 83 571 105.5 594 c 128,-1,16
 128 617 128 617 160 617 c 256,17,18
 192 617 192 617 214 594 c 0,8,9
EndSplineSet
EndChar
StartChar: cent
Encoding: 162 162 96
Width: 450
GlyphClass: 2
Flags: W
LayerCount: 2
Back
Fore
SplineSet
442 35 m 1,0,1
 354 -12 354 -12 256 -12 c 1,2,-1
 245 -128 l 1,3,-1
 173 -128 l 1,4,-1
 205 -5 l 1,5,6
 115 15 115 15 70.5 83.5 c 128,-1,7
 26 152 26 152 26 249 c 0,8,9
 26 358 26 358 87 428.5 c 128,-1,10
 148 499 148 499 255 509 c 1,11,-1
 264 622 l 1,12,-1
 338 622 l 1,13,-1
 310 508 l 1,14,15
 378 501 378 501 434 462 c 1,16,-1
 374 386 l 1,17,18
 322 425 322 425 272 425 c 0,19,20
 214 425 214 425 186 370 c 128,-1,21
 158 315 158 315 158 251 c 0,22,23
 158 206 158 206 169.5 167.5 c 128,-1,24
 181 129 181 129 211 100.5 c 128,-1,25
 241 72 241 72 287 72 c 256,26,27
 333 72 333 72 391 121 c 1,28,-1
 442 35 l 1,0,1
EndSplineSet
EndChar
StartChar: sterling
Encoding: 163 163 97
Width: 581
GlyphClass: 2
Flags: W
LayerCount: 2
Back
Fore
SplineSet
555 0 m 1,0,-1
 34 0 l 1,1,-1
 34 100 l 1,2,-1
 127 100 l 1,3,-1
 127 342 l 1,4,-1
 50 342 l 1,5,-1
 50 441 l 1,6,-1
 127 441 l 1,7,-1
 127 538 l 2,8,9
 127 635 127 635 188.5 689.5 c 128,-1,10
 250 744 250 744 348 744 c 0,11,12
 471 744 471 744 544 629 c 1,13,-1
 446 575 l 1,14,15
 408 648 408 648 347 648 c 0,16,17
 306 648 306 648 284 621 c 128,-1,18
 262 594 262 594 262 552 c 2,19,-1
 262 441 l 1,20,-1
 392 441 l 1,21,-1
 392 342 l 1,22,-1
 262 342 l 1,23,-1
 262 100 l 1,24,-1
 555 100 l 1,25,-1
 555 0 l 1,0,-1
EndSplineSet
EndChar
StartChar: yen
Encoding: 165 165 99
Width: 502
GlyphClass: 2
Flags: W
LayerCount: 2
Back
Fore
SplineSet
478 497 m 1,0,-1
 376 320 l 1,1,-1
 476 320 l 1,2,-1
 476 271 l 1,3,-1
 347 271 l 1,4,-1
 315 216 l 1,5,-1
 315 211 l 1,6,-1
 476 211 l 1,7,-1
 476 162 l 1,8,-1
 315 162 l 1,9,-1
 315 0 l 1,10,-1
 194 0 l 1,11,-1
 194 162 l 1,12,-1
 25 162 l 1,13,-1
 25 211 l 1,14,-1
 194 211 l 1,15,-1
 194 216 l 1,16,-1
 160 271 l 1,17,-1
 25 271 l 1,18,-1
 25 320 l 1,19,-1
 131 320 l 1,20,-1
 24 497 l 1,21,-1
 170 497 l 1,22,-1
 264 332 l 1,23,-1
 355 497 l 1,24,-1
 478 497 l 1,0,-1
EndSplineSet
EndChar
StartChar: section
Encoding: 167 167 101
Width: 503
GlyphClass: 2
Flags: W
LayerCount: 2
Back
Fore
SplineSet
39 -21 m 1,0,-1
 97 66 l 1,1,2
 146 28 146 28 209 28 c 0,3,4
 248 28 248 28 273.5 42.5 c 128,-1,5
 299 57 299 57 299 84 c 128,-1,6
 299 111 299 111 271 130.5 c 128,-1,7
 243 150 243 150 203.5 165.5 c 128,-1,8
 164 181 164 181 124.5 201.5 c 128,-1,9
 85 222 85 222 57 261.5 c 128,-1,10
 29 301 29 301 29 357 c 0,11,12
 29 441 29 441 108 491 c 1,13,14
 80 527 80 527 80 581 c 0,15,16
 80 664 80 664 142 703 c 128,-1,17
 204 742 204 742 300 742 c 0,18,19
 348 742 348 742 396 727 c 128,-1,20
 444 712 444 712 464 695 c 1,21,-1
 406 608 l 1,22,23
 357 646 357 646 294 646 c 0,24,25
 255 646 255 646 229.5 631.5 c 128,-1,26
 204 617 204 617 204 590 c 128,-1,27
 204 563 204 563 232 543.5 c 128,-1,28
 260 524 260 524 299.5 508.5 c 128,-1,29
 339 493 339 493 378.5 472.5 c 128,-1,30
 418 452 418 452 446 412.5 c 128,-1,31
 474 373 474 373 474 317 c 0,32,33
 474 233 474 233 394 183 c 1,34,35
 423 146 423 146 423 93 c 0,36,37
 423 10 423 10 361 -29 c 128,-1,38
 299 -68 299 -68 203 -68 c 0,39,40
 155 -68 155 -68 107 -53 c 128,-1,41
 59 -38 59 -38 39 -21 c 1,0,-1
186 433 m 1,42,43
 152 411 152 411 152 376 c 0,44,45
 152 353 152 353 160.5 335.5 c 128,-1,46
 169 318 169 318 189 304.5 c 128,-1,47
 209 291 209 291 224.5 282.5 c 128,-1,48
 240 274 240 274 271 261 c 128,-1,49
 302 248 302 248 316 241 c 1,50,51
 351 262 351 262 351 298 c 0,52,53
 351 321 351 321 342 338.5 c 128,-1,54
 333 356 333 356 314 369.5 c 128,-1,55
 295 383 295 383 278 391.5 c 128,-1,56
 261 400 261 400 231.5 412.5 c 128,-1,57
 202 425 202 425 186 433 c 1,42,43
EndSplineSet
EndChar
StartChar: dieresis
Encoding: 168 168 102
Width: 276
GlyphClass: 2
Flags: W
LayerCount: 2
Back
Fore
SplineSet
219 566 m 0,0,1
 196 566 196 566 179 583 c 128,-1,2
 162 600 162 600 162 623 c 128,-1,3
 162 646 162 646 179 663 c 128,-1,4
 196 680 196 680 219 680 c 0,5,6
 243 680 243 680 260 663.5 c 128,-1,7
 277 647 277 647 277 623 c 128,-1,8
 277 599 277 599 260 582.5 c 128,-1,9
 243 566 243 566 219 566 c 0,0,1
98 666 m 0,10,11
 116 648 116 648 116 623 c 128,-1,12
 116 598 116 598 98.5 580 c 128,-1,13
 81 562 81 562 55 562 c 256,14,15
 29 562 29 562 11.5 580 c 128,-1,16
 -6 598 -6 598 -6 623 c 128,-1,17
 -6 648 -6 648 11.5 666 c 128,-1,18
 29 684 29 684 55 684 c 256,19,20
 81 684 81 684 98 666 c 0,10,11
EndSplineSet
EndChar
StartChar: copyright
Encoding: 169 169 103
Width: 635
GlyphClass: 2
Flags: W
LayerCount: 2
Back
Fore
SplineSet
316 -27 m 0,0,1
 201 -27 201 -27 120 54 c 128,-1,2
 39 135 39 135 39 250 c 128,-1,3
 39 365 39 365 120 446 c 128,-1,4
 201 527 201 527 316 527 c 0,5,6
 430 527 430 527 511.5 445.5 c 128,-1,7
 593 364 593 364 593 250 c 128,-1,8
 593 136 593 136 511.5 54.5 c 128,-1,9
 430 -27 430 -27 316 -27 c 0,0,1
483 82 m 0,10,11
 553 152 553 152 553 250 c 128,-1,12
 553 348 553 348 483.5 417.5 c 128,-1,13
 414 487 414 487 316 487 c 256,14,15
 218 487 218 487 148.5 417.5 c 128,-1,16
 79 348 79 348 79 250 c 128,-1,17
 79 152 79 152 148.5 82.5 c 128,-1,18
 218 13 218 13 316 13 c 256,19,20
 414 13 414 13 483 82 c 0,10,11
435 112 m 1,21,22
 373 80 373 80 319 80 c 0,23,24
 244 80 244 80 202.5 127 c 128,-1,25
 161 174 161 174 161 250 c 128,-1,26
 161 326 161 326 207 373.5 c 128,-1,27
 253 421 253 421 328 421 c 0,28,29
 383 421 383 421 430 386 c 1,30,-1
 386 330 l 1,31,32
 352 357 352 357 321 357 c 0,33,34
 287 357 287 357 270.5 323.5 c 128,-1,35
 254 290 254 290 254 251 c 0,36,37
 254 208 254 208 272.5 175.5 c 128,-1,38
 291 143 291 143 331 143 c 0,39,40
 366 143 366 143 397 176 c 1,41,-1
 435 112 l 1,21,22
EndSplineSet
EndChar
StartChar: ordfeminine
Encoding: 170 170 104
Width: 315
GlyphClass: 2
Flags: W
LayerCount: 2
Back
Fore
SplineSet
269 272 m 1,0,-1
 30 272 l 1,1,-1
 30 330 l 1,2,-1
 269 330 l 1,3,-1
 269 272 l 1,0,-1
312 454 m 1,4,-1
 326 406 l 1,5,6
 287 388 287 388 255 388 c 0,7,8
 209 388 209 388 198 432 c 1,9,10
 153 386 153 386 96 386 c 0,11,12
 52 386 52 386 24.5 411 c 128,-1,13
 -3 436 -3 436 -3 476 c 0,14,15
 -3 510 -3 510 14 534 c 128,-1,16
 31 558 31 558 60.5 569.5 c 128,-1,17
 90 581 90 581 120 586 c 128,-1,18
 150 591 150 591 185 591 c 1,19,-1
 185 628 l 2,20,21
 185 674 185 674 132 674 c 0,22,23
 93 674 93 674 44 636 c 1,24,-1
 11 688 l 1,25,26
 72 729 72 729 144 729 c 0,27,28
 262 729 262 729 262 622 c 2,29,-1
 262 480 l 2,30,31
 262 446 262 446 283 446 c 0,32,33
 296 446 296 446 312 454 c 1,4,-1
185 516 m 2,34,-1
 185 537 l 1,35,36
 79 537 79 537 79 484 c 0,37,38
 79 468 79 468 89 457.5 c 128,-1,39
 99 447 99 447 117 447 c 0,40,41
 145 447 145 447 165 467.5 c 128,-1,42
 185 488 185 488 185 516 c 2,34,-1
EndSplineSet
EndChar
StartChar: logicalnot
Encoding: 172 172 106
Width: 638
GlyphClass: 2
Flags: W
LayerCount: 2
Back
Fore
SplineSet
568 79 m 1,0,-1
 482 79 l 1,1,-1
 482 267 l 1,2,-1
 70 267 l 1,3,-1
 70 350 l 1,4,-1
 568 350 l 1,5,-1
 568 79 l 1,0,-1
EndSplineSet
EndChar
StartChar: registered
Encoding: 174 174 108
Width: 459
GlyphClass: 2
Flags: W
LayerCount: 2
Back
Fore
SplineSet
380 759 m 256,0,1
 442 697 442 697 442 610 c 128,-1,2
 442 523 442 523 380 461 c 128,-1,3
 318 399 318 399 231 399 c 256,4,5
 144 399 144 399 82.5 461 c 128,-1,6
 21 523 21 523 21 610 c 128,-1,7
 21 697 21 697 82.5 759 c 128,-1,8
 144 821 144 821 231 821 c 256,9,10
 318 821 318 821 380 759 c 256,0,1
407 610 m 0,11,12
 407 682 407 682 355.5 733.5 c 128,-1,13
 304 785 304 785 231 785 c 0,14,15
 159 785 159 785 107.5 734 c 128,-1,16
 56 683 56 683 56 610 c 128,-1,17
 56 537 56 537 107.5 486 c 128,-1,18
 159 435 159 435 231 435 c 0,19,20
 304 435 304 435 355.5 486 c 128,-1,21
 407 537 407 537 407 610 c 0,11,12
353 497 m 1,22,-1
 282 497 l 1,23,-1
 216 593 l 1,24,-1
 206 593 l 1,25,-1
 206 497 l 1,26,-1
 146 497 l 1,27,-1
 146 732 l 1,28,-1
 239 732 l 2,29,30
 322 732 322 732 322 663 c 0,31,32
 322 623 322 623 279 604 c 1,33,-1
 353 497 l 1,22,-1
262 665 m 0,34,35
 262 685 262 685 232 685 c 2,36,-1
 206 685 l 1,37,-1
 206 640 l 1,38,-1
 225 640 l 2,39,40
 262 640 262 640 262 665 c 0,34,35
EndSplineSet
EndChar
StartChar: macron
Encoding: 175 175 109
Width: 274
GlyphClass: 2
Flags: W
LayerCount: 2
Back
Fore
SplineSet
284 581 m 1,0,-1
 -11 581 l 1,1,-1
 -11 655 l 1,2,-1
 284 655 l 1,3,-1
 284 581 l 1,0,-1
EndSplineSet
EndChar
StartChar: degree
Encoding: 176 176 110
Width: 388
GlyphClass: 2
Flags: W
LayerCount: 2
Back
Fore
SplineSet
340 593 m 0,0,1
 340 532 340 532 297.5 490 c 128,-1,2
 255 448 255 448 194 448 c 0,3,4
 134 448 134 448 91.5 490.5 c 128,-1,5
 49 533 49 533 49 593 c 128,-1,6
 49 653 49 653 91.5 695.5 c 128,-1,7
 134 738 134 738 194 738 c 256,8,9
 254 738 254 738 297 695.5 c 128,-1,10
 340 653 340 653 340 593 c 0,0,1
250 536 m 256,11,12
 273 560 273 560 273 593 c 128,-1,13
 273 626 273 626 250 650 c 128,-1,14
 227 674 227 674 194 674 c 256,15,16
 161 674 161 674 138.5 650 c 128,-1,17
 116 626 116 626 116 593 c 128,-1,18
 116 560 116 560 138.5 536 c 128,-1,19
 161 512 161 512 194 512 c 256,20,21
 227 512 227 512 250 536 c 256,11,12
EndSplineSet
EndChar
StartChar: plusminus
Encoding: 177 177 111
Width: 632
GlyphClass: 2
Flags: W
LayerCount: 2
Back
Fore
SplineSet
565 267 m 1,0,-1
 360 267 l 1,1,-1
 360 120 l 1,2,-1
 272 120 l 1,3,-1
 272 266 l 1,4,-1
 67 266 l 1,5,-1
 67 351 l 1,6,-1
 272 351 l 1,7,-1
 272 497 l 1,8,-1
 360 497 l 1,9,-1
 360 352 l 1,10,-1
 565 352 l 1,11,-1
 565 267 l 1,0,-1
565 1 m 1,12,-1
 69 1 l 1,13,-1
 69 89 l 1,14,-1
 565 89 l 1,15,-1
 565 1 l 1,12,-1
EndSplineSet
EndChar
StartChar: twosuperior
Encoding: 178 178 112
Width: 455
GlyphClass: 2
Flags: W
LayerCount: 2
Back
Fore
SplineSet
392 438 m 1,0,-1
 43 438 l 1,1,-1
 43 489 l 1,2,3
 53 497 53 497 69 510.5 c 128,-1,4
 85 524 85 524 126.5 563 c 128,-1,5
 168 602 168 602 200 637.5 c 128,-1,6
 232 673 232 673 258 717.5 c 128,-1,7
 284 762 284 762 284 794 c 0,8,9
 284 822 284 822 266.5 839 c 128,-1,10
 249 856 249 856 221 856 c 0,11,12
 194 856 194 856 163 841.5 c 128,-1,13
 132 827 132 827 114 812 c 2,14,-1
 97 798 l 1,15,-1
 53 864 l 1,16,17
 61 872 61 872 77 884 c 128,-1,18
 93 896 93 896 142.5 915.5 c 128,-1,19
 192 935 192 935 243 935 c 0,20,21
 321 935 321 935 361.5 897.5 c 128,-1,22
 402 860 402 860 402 804 c 0,23,24
 402 763 402 763 381.5 720 c 128,-1,25
 361 677 361 677 331.5 645 c 128,-1,26
 302 613 302 613 273 587 c 128,-1,27
 244 561 244 561 224 547 c 2,28,-1
 203 533 l 1,29,-1
 419 533 l 1,30,-1
 392 438 l 1,0,-1
EndSplineSet
EndChar
StartChar: threesuperior
Encoding: 179 179 113
Width: 455
GlyphClass: 2
Flags: W
LayerCount: 2
Back
Fore
SplineSet
63 425 m 1,0,-1
 48 494 l 1,1,2
 165 500 165 500 228.5 531.5 c 128,-1,3
 292 563 292 563 292 613 c 0,4,5
 292 672 292 672 189 672 c 1,6,-1
 154 670 l 1,7,-1
 143 728 l 1,8,9
 275 755 275 755 275 821 c 0,10,11
 275 837 275 837 260.5 846.5 c 128,-1,12
 246 856 246 856 226 856 c 0,13,14
 158 856 158 856 96 806 c 1,15,-1
 53 867 l 1,16,17
 90 896 90 896 142.5 915.5 c 128,-1,18
 195 935 195 935 242 935 c 0,19,20
 301 935 301 935 342.5 913.5 c 128,-1,21
 384 892 384 892 384 841 c 0,22,23
 384 768 384 768 299 738 c 1,24,25
 406 719 406 719 406 622 c 0,26,27
 406 599 406 599 398.5 577 c 128,-1,28
 391 555 391 555 368.5 528 c 128,-1,29
 346 501 346 501 310 480 c 128,-1,30
 274 459 274 459 210 443.5 c 128,-1,31
 146 428 146 428 63 425 c 1,0,-1
EndSplineSet
EndChar
StartChar: acute
Encoding: 180 180 114
Width: 281
GlyphClass: 2
Flags: W
LayerCount: 2
Back
Fore
SplineSet
287 755 m 1,0,-1
 136 590 l 1,1,-1
 33 590 l 1,2,-1
 142 755 l 1,3,-1
 287 755 l 1,0,-1
EndSplineSet
EndChar
StartChar: mu
Encoding: 181 181 115
AltUni2: 0003bc.ffffffff.0
Width: 549
GlyphClass: 2
Flags: W
LayerCount: 2
Back
Fore
SplineSet
574 19 m 1,0,1
 567 17 567 17 539 8.5 c 128,-1,2
 511 0 511 0 492.5 -4 c 128,-1,3
 474 -8 474 -8 457 -8 c 0,4,5
 427 -8 427 -8 406.5 10 c 128,-1,6
 386 28 386 28 379 58 c 1,7,8
 321 -10 321 -10 256 -10 c 0,9,10
 223 -10 223 -10 191 5 c 1,11,-1
 191 -186 l 1,12,-1
 67 -186 l 1,13,-1
 67 445 l 2,14,15
 67 446 67 446 64.5 458 c 128,-1,16
 62 470 62 470 59 483.5 c 128,-1,17
 56 497 56 497 56 498 c 2,18,-1
 188 498 l 1,19,-1
 188 187 l 2,20,21
 188 84 188 84 254 84 c 0,22,23
 314 84 314 84 359 131 c 1,24,-1
 359 445 l 2,25,26
 359 446 359 446 356 458 c 128,-1,27
 353 470 353 470 350 483 c 128,-1,28
 347 496 347 496 347 498 c 2,29,-1
 480 498 l 1,30,-1
 480 132 l 2,31,32
 480 80 480 80 505 80 c 0,33,34
 508 80 508 80 553 92 c 1,35,-1
 574 19 l 1,0,1
EndSplineSet
EndChar
StartChar: paragraph
Encoding: 182 182 116
Width: 500
GlyphClass: 2
Flags: W
LayerCount: 2
Back
Fore
SplineSet
455 664 m 1,0,-1
 399 664 l 1,1,-1
 399 10 l 2,2,3
 399 -36 399 -36 366.5 -68.5 c 128,-1,4
 334 -101 334 -101 288 -101 c 0,5,6
 283 -101 283 -101 271 -99 c 1,7,8
 256 -126 256 -126 230 -142 c 128,-1,9
 204 -158 204 -158 173 -158 c 0,10,11
 127 -158 127 -158 94.5 -125.5 c 128,-1,12
 62 -93 62 -93 62 -47 c 128,-1,13
 62 -1 62 -1 94.5 31.5 c 128,-1,14
 127 64 127 64 173 64 c 1,15,-1
 173 10 l 1,16,17
 150 10 150 10 133 -7 c 128,-1,18
 116 -24 116 -24 116 -47 c 128,-1,19
 116 -70 116 -70 133 -87 c 128,-1,20
 150 -104 150 -104 173 -104 c 256,21,22
 196 -104 196 -104 212.5 -87 c 128,-1,23
 229 -70 229 -70 229 -47 c 2,24,-1
 229 332 l 1,25,26
 150 332 150 332 95 386 c 128,-1,27
 40 440 40 440 40 520 c 0,28,29
 40 618 40 618 101.5 668 c 128,-1,30
 163 718 163 718 263 718 c 2,31,-1
 455 718 l 1,32,-1
 455 664 l 1,0,-1
345 10 m 2,33,-1
 345 664 l 1,34,-1
 284 664 l 1,35,-1
 284 -47 l 1,36,-1
 288 -47 l 2,37,38
 311 -47 311 -47 328 -30 c 128,-1,39
 345 -13 345 -13 345 10 c 2,33,-1
EndSplineSet
EndChar
StartChar: periodcentered
Encoding: 183 183 117
Width: 293
GlyphClass: 2
Flags: W
LayerCount: 2
Back
Fore
SplineSet
199 313 m 0,0,1
 222 290 222 290 222 258 c 128,-1,2
 222 226 222 226 199.5 203.5 c 128,-1,3
 177 181 177 181 145 181 c 256,4,5
 113 181 113 181 90.5 203.5 c 128,-1,6
 68 226 68 226 68 258 c 128,-1,7
 68 290 68 290 90.5 313 c 128,-1,8
 113 336 113 336 145 336 c 256,9,10
 177 336 177 336 199 313 c 0,0,1
EndSplineSet
EndChar
StartChar: cedilla
Encoding: 184 184 118
Width: 280
GlyphClass: 2
Flags: W
LayerCount: 2
Back
Fore
SplineSet
117 -220 m 0,0,1
 76 -220 76 -220 25 -190 c 1,2,-1
 53 -140 l 1,3,4
 94 -162 94 -162 120 -162 c 0,5,6
 136 -162 136 -162 147.5 -152.5 c 128,-1,7
 159 -143 159 -143 159 -129 c 0,8,9
 159 -100 159 -100 126 -100 c 2,10,-1
 79 -100 l 2,11,12
 60 -100 60 -100 60 -83 c 0,13,14
 60 -78 60 -78 63 -73 c 2,15,-1
 111 9 l 1,16,-1
 170 9 l 1,17,-1
 138 -48 l 1,18,-1
 142 -48 l 2,19,20
 188 -48 188 -48 220 -66 c 128,-1,21
 252 -84 252 -84 252 -126 c 0,22,23
 252 -220 252 -220 117 -220 c 0,0,1
EndSplineSet
EndChar
StartChar: onesuperior
Encoding: 185 185 119
Width: 455
GlyphClass: 2
Flags: W
LayerCount: 2
Back
Fore
SplineSet
416 438 m 1,0,-1
 62 438 l 1,1,-1
 62 517 l 1,2,-1
 195 517 l 1,3,-1
 195 820 l 1,4,-1
 70 785 l 1,5,-1
 45 855 l 1,6,7
 137 883 137 883 224 924 c 1,8,-1
 309 924 l 1,9,-1
 309 517 l 1,10,-1
 416 517 l 1,11,-1
 416 438 l 1,0,-1
EndSplineSet
EndChar
StartChar: ordmasculine
Encoding: 186 186 120
Width: 332
GlyphClass: 2
Flags: W
LayerCount: 2
Back
Fore
SplineSet
289 686 m 256,0,1
 333 637 333 637 333 560 c 128,-1,2
 333 483 333 483 288.5 434.5 c 128,-1,3
 244 386 244 386 168 386 c 256,4,5
 92 386 92 386 48 434.5 c 128,-1,6
 4 483 4 483 4 560 c 128,-1,7
 4 637 4 637 48.5 686 c 128,-1,8
 93 735 93 735 169 735 c 256,9,10
 245 735 245 735 289 686 c 256,0,1
287 272 m 1,11,-1
 48 272 l 1,12,-1
 48 330 l 1,13,-1
 287 330 l 1,14,-1
 287 272 l 1,11,-1
244 560 m 0,15,16
 244 608 244 608 227 644 c 128,-1,17
 210 680 210 680 168 680 c 0,18,19
 93 680 93 680 93 560 c 0,20,21
 93 512 93 512 110 476.5 c 128,-1,22
 127 441 127 441 169 441 c 0,23,24
 244 441 244 441 244 560 c 0,15,16
EndSplineSet
EndChar
StartChar: onequarter
Encoding: 188 188 122
Width: 1049
GlyphClass: 2
Flags: W
LayerCount: 2
Back
Fore
SplineSet
447 -27 m 1,0,-1
 364 -27 l 1,1,-1
 675 753 l 1,2,-1
 759 753 l 1,3,-1
 447 -27 l 1,0,-1
949 0 m 1,4,-1
 835 0 l 1,5,-1
 835 101 l 1,6,-1
 610 101 l 1,7,-1
 610 153 l 1,8,-1
 836 486 l 1,9,-1
 949 486 l 1,10,-1
 949 180 l 1,11,-1
 1021 180 l 1,12,-1
 996 101 l 1,13,-1
 949 101 l 1,14,-1
 949 0 l 1,4,-1
835 180 m 1,15,-1
 835 297 l 1,16,-1
 843 386 l 1,17,18
 827 334 827 334 793 283 c 2,19,-1
 725 180 l 1,20,-1
 835 180 l 1,15,-1
416 246 m 1,21,-1
 62 246 l 1,22,-1
 62 325 l 1,23,-1
 195 325 l 1,24,-1
 195 628 l 1,25,-1
 70 593 l 1,26,-1
 45 663 l 1,27,28
 137 691 137 691 224 732 c 1,29,-1
 309 732 l 1,30,-1
 309 325 l 1,31,-1
 416 325 l 1,32,-1
 416 246 l 1,21,-1
EndSplineSet
EndChar
StartChar: onehalf
Encoding: 189 189 123
Width: 1097
GlyphClass: 2
Flags: W
LayerCount: 2
Back
Fore
SplineSet
1033 0 m 1,0,-1
 686 0 l 1,1,-1
 686 52 l 1,2,-1
 695 60 l 2,3,4
 926 268 926 268 926 352 c 0,5,6
 926 378 926 378 908 393.5 c 128,-1,7
 890 409 890 409 863 409 c 0,8,9
 807 409 807 409 740 357 c 1,10,-1
 696 426 l 1,11,12
 788 497 788 497 889 497 c 0,13,14
 959 497 959 497 1005.5 464 c 128,-1,15
 1052 431 1052 431 1052 363 c 128,-1,16
 1052 295 1052 295 996 225.5 c 128,-1,17
 940 156 940 156 869 106 c 1,18,-1
 1061 106 l 1,19,-1
 1033 0 l 1,0,-1
447 -27 m 1,20,-1
 364 -27 l 1,21,-1
 675 753 l 1,22,-1
 759 753 l 1,23,-1
 447 -27 l 1,20,-1
416 246 m 1,24,-1
 62 246 l 1,25,-1
 62 325 l 1,26,-1
 195 325 l 1,27,-1
 195 628 l 1,28,-1
 70 593 l 1,29,-1
 45 663 l 1,30,31
 137 691 137 691 224 732 c 1,32,-1
 309 732 l 1,33,-1
 309 325 l 1,34,-1
 416 325 l 1,35,-1
 416 246 l 1,24,-1
EndSplineSet
EndChar
StartChar: threequarters
Encoding: 190 190 124
Width: 1004
GlyphClass: 2
Flags: W
LayerCount: 2
Back
Fore
SplineSet
402 -27 m 1,0,-1
 319 -27 l 1,1,-1
 630 753 l 1,2,-1
 714 753 l 1,3,-1
 402 -27 l 1,0,-1
904 0 m 1,4,-1
 790 0 l 1,5,-1
 790 101 l 1,6,-1
 565 101 l 1,7,-1
 565 153 l 1,8,-1
 791 486 l 1,9,-1
 904 486 l 1,10,-1
 904 180 l 1,11,-1
 976 180 l 1,12,-1
 951 101 l 1,13,-1
 904 101 l 1,14,-1
 904 0 l 1,4,-1
790 180 m 1,15,-1
 790 297 l 1,16,-1
 798 386 l 1,17,18
 782 334 782 334 748 283 c 2,19,-1
 680 180 l 1,20,-1
 790 180 l 1,15,-1
63 233 m 1,21,-1
 48 302 l 1,22,23
 165 308 165 308 228.5 339.5 c 128,-1,24
 292 371 292 371 292 421 c 0,25,26
 292 480 292 480 189 480 c 1,27,-1
 154 478 l 1,28,-1
 143 536 l 1,29,30
 275 563 275 563 275 629 c 0,31,32
 275 645 275 645 260.5 654.5 c 128,-1,33
 246 664 246 664 226 664 c 0,34,35
 158 664 158 664 96 614 c 1,36,-1
 53 675 l 1,37,38
 90 704 90 704 142.5 723.5 c 128,-1,39
 195 743 195 743 242 743 c 0,40,41
 301 743 301 743 342.5 721.5 c 128,-1,42
 384 700 384 700 384 649 c 0,43,44
 384 576 384 576 299 546 c 1,45,46
 406 527 406 527 406 430 c 0,47,48
 406 407 406 407 398.5 385 c 128,-1,49
 391 363 391 363 368.5 336 c 128,-1,50
 346 309 346 309 310 288 c 128,-1,51
 274 267 274 267 210 251.5 c 128,-1,52
 146 236 146 236 63 233 c 1,21,-1
EndSplineSet
EndChar
StartChar: questiondown
Encoding: 191 191 125
Width: 431
GlyphClass: 2
Flags: W
LayerCount: 2
Back
Fore
SplineSet
409 -78 m 1,0,1
 341 -122 341 -122 246 -122 c 0,2,3
 157 -122 157 -122 91.5 -75.5 c 128,-1,4
 26 -29 26 -29 26 56 c 0,5,6
 26 183 26 183 178 243 c 0,7,8
 191 248 191 248 191 264 c 2,9,-1
 191 383 l 1,10,-1
 298 383 l 1,11,-1
 298 178 l 1,12,13
 245 174 245 174 200 143.5 c 128,-1,14
 155 113 155 113 155 64 c 0,15,16
 155 23 155 23 186 -1 c 128,-1,17
 217 -25 217 -25 259 -25 c 0,18,19
 311 -25 311 -25 363 10 c 1,20,-1
 409 -78 l 1,0,1
299 590 m 0,21,22
 322 567 322 567 322 535 c 128,-1,23
 322 503 322 503 299.5 480.5 c 128,-1,24
 277 458 277 458 245 458 c 256,25,26
 213 458 213 458 190.5 480.5 c 128,-1,27
 168 503 168 503 168 535 c 128,-1,28
 168 567 168 567 190.5 590 c 128,-1,29
 213 613 213 613 245 613 c 256,30,31
 277 613 277 613 299 590 c 0,21,22
EndSplineSet
EndChar
StartChar: Aacute
Encoding: 193 193 127
Width: 631
GlyphClass: 2
Flags: W
LayerCount: 2
Back
Fore
SplineSet
629 0 m 1,0,-1
 485 0 l 1,1,-1
 414 190 l 1,2,-1
 190 190 l 1,3,-1
 118 0 l 1,4,-1
 2 0 l 1,5,-1
 259 680 l 1,6,-1
 370 680 l 1,7,-1
 629 0 l 1,0,-1
376 288 m 1,8,9
 348 371 348 371 302 539 c 1,10,11
 272 427 272 427 227 288 c 1,12,-1
 376 288 l 1,8,9
499 881 m 1,13,-1
 348 716 l 1,14,-1
 245 716 l 1,15,-1
 354 881 l 1,16,-1
 499 881 l 1,13,-1
EndSplineSet
EndChar
StartChar: Acircumflex
Encoding: 194 194 128
Width: 631
GlyphClass: 2
Flags: W
LayerCount: 2
Back
Fore
SplineSet
629 0 m 1,0,-1
 485 0 l 1,1,-1
 414 190 l 1,2,-1
 190 190 l 1,3,-1
 118 0 l 1,4,-1
 2 0 l 1,5,-1
 259 680 l 1,6,-1
 370 680 l 1,7,-1
 629 0 l 1,0,-1
376 288 m 1,8,9
 348 371 348 371 302 539 c 1,10,11
 272 427 272 427 227 288 c 1,12,-1
 376 288 l 1,8,9
460 713 m 1,13,-1
 382 713 l 1,14,-1
 312 787 l 1,15,-1
 243 713 l 1,16,-1
 167 713 l 1,17,-1
 263 858 l 1,18,-1
 361 858 l 1,19,-1
 460 713 l 1,13,-1
EndSplineSet
EndChar
StartChar: Atilde
Encoding: 195 195 129
Width: 631
GlyphClass: 2
Flags: W
LayerCount: 2
Back
Fore
SplineSet
629 0 m 1,0,-1
 485 0 l 1,1,-1
 414 190 l 1,2,-1
 190 190 l 1,3,-1
 118 0 l 1,4,-1
 2 0 l 1,5,-1
 259 680 l 1,6,-1
 370 680 l 1,7,-1
 629 0 l 1,0,-1
376 288 m 1,8,9
 348 371 348 371 302 539 c 1,10,11
 272 427 272 427 227 288 c 1,12,-1
 376 288 l 1,8,9
489 830 m 1,13,14
 489 780 489 780 460.5 746.5 c 128,-1,15
 432 713 432 713 383 713 c 0,16,17
 353 713 353 713 311.5 733 c 128,-1,18
 270 753 270 753 253 753 c 0,19,20
 238 753 238 753 225.5 745 c 128,-1,21
 213 737 213 737 213 723 c 1,22,-1
 148 723 l 1,23,24
 148 773 148 773 176.5 806.5 c 128,-1,25
 205 840 205 840 254 840 c 0,26,27
 284 840 284 840 325.5 820 c 128,-1,28
 367 800 367 800 384 800 c 0,29,30
 398 800 398 800 411 808 c 128,-1,31
 424 816 424 816 425 830 c 1,32,-1
 489 830 l 1,13,14
EndSplineSet
EndChar
StartChar: Adieresis
Encoding: 196 196 130
Width: 631
GlyphClass: 2
Flags: W
LayerCount: 2
Back
Fore
SplineSet
629 0 m 1,0,-1
 485 0 l 1,1,-1
 414 190 l 1,2,-1
 190 190 l 1,3,-1
 118 0 l 1,4,-1
 2 0 l 1,5,-1
 259 680 l 1,6,-1
 370 680 l 1,7,-1
 629 0 l 1,0,-1
376 288 m 1,8,9
 348 371 348 371 302 539 c 1,10,11
 272 427 272 427 227 288 c 1,12,-1
 376 288 l 1,8,9
396 735 m 0,13,14
 373 735 373 735 356 752 c 128,-1,15
 339 769 339 769 339 792 c 128,-1,16
 339 815 339 815 356 832 c 128,-1,17
 373 849 373 849 396 849 c 0,18,19
 420 849 420 849 437 832.5 c 128,-1,20
 454 816 454 816 454 792 c 128,-1,21
 454 768 454 768 437 751.5 c 128,-1,22
 420 735 420 735 396 735 c 0,13,14
276 832 m 0,23,24
 293 816 293 816 293 792 c 128,-1,25
 293 768 293 768 276.5 751.5 c 128,-1,26
 260 735 260 735 236 735 c 256,27,28
 212 735 212 735 195.5 751.5 c 128,-1,29
 179 768 179 768 179 792 c 128,-1,30
 179 816 179 816 195.5 832.5 c 128,-1,31
 212 849 212 849 236 849 c 256,32,33
 260 849 260 849 276 832 c 0,23,24
EndSplineSet
EndChar
StartChar: Aring
Encoding: 197 197 131
Width: 631
GlyphClass: 2
Flags: W
LayerCount: 2
Back
Fore
SplineSet
629 0 m 1,0,-1
 485 0 l 1,1,-1
 414 190 l 1,2,-1
 190 190 l 1,3,-1
 118 0 l 1,4,-1
 2 0 l 1,5,-1
 253 664 l 1,6,7
 207 696 207 696 207 751 c 0,8,9
 207 795 207 795 238 825 c 128,-1,10
 269 855 269 855 313 855 c 0,11,12
 358 855 358 855 389.5 825.5 c 128,-1,13
 421 796 421 796 421 752 c 0,14,15
 421 697 421 697 376 665 c 1,16,-1
 629 0 l 1,0,-1
273 752 m 0,17,18
 273 735 273 735 285 723 c 128,-1,19
 297 711 297 711 313 711 c 0,20,21
 330 711 330 711 342 723.5 c 128,-1,22
 354 736 354 736 354 752 c 128,-1,23
 354 768 354 768 341.5 780 c 128,-1,24
 329 792 329 792 313 792 c 256,25,26
 297 792 297 792 285 780 c 128,-1,27
 273 768 273 768 273 752 c 0,17,18
376 288 m 1,28,29
 348 371 348 371 302 539 c 1,30,31
 272 427 272 427 227 288 c 1,32,-1
 376 288 l 1,28,29
EndSplineSet
EndChar
StartChar: AE
Encoding: 198 198 132
Width: 924
GlyphClass: 2
Flags: W
LayerCount: 2
Back
Fore
SplineSet
887 0 m 1,0,-1
 442 0 l 1,1,-1
 442 210 l 1,2,-1
 227 210 l 1,3,-1
 120 0 l 1,4,-1
 -2 0 l 1,5,-1
 337 670 l 1,6,-1
 323 732 l 1,7,-1
 887 732 l 1,8,-1
 887 633 l 1,9,-1
 580 633 l 1,10,-1
 580 426 l 1,11,-1
 815 426 l 1,12,-1
 815 327 l 1,13,-1
 580 327 l 1,14,-1
 580 99 l 1,15,-1
 887 99 l 1,16,-1
 887 0 l 1,0,-1
442 308 m 1,17,-1
 442 633 l 1,18,-1
 278 308 l 1,19,-1
 442 308 l 1,17,-1
EndSplineSet
EndChar
StartChar: Ccedilla
Encoding: 199 199 133
Width: 624
GlyphClass: 2
Flags: W
LayerCount: 2
Back
Fore
SplineSet
612 62 m 1,0,1
 549 23 549 23 494.5 5.5 c 128,-1,2
 440 -12 440 -12 368 -12 c 1,3,-1
 348 -48 l 1,4,-1
 352 -48 l 2,5,6
 396 -48 396 -48 429 -66.5 c 128,-1,7
 462 -85 462 -85 462 -126 c 0,8,9
 462 -220 462 -220 327 -220 c 0,10,11
 286 -220 286 -220 235 -190 c 1,12,-1
 263 -140 l 1,13,14
 304 -162 304 -162 330 -162 c 0,15,16
 346 -162 346 -162 357.5 -152.5 c 128,-1,17
 369 -143 369 -143 369 -129 c 0,18,19
 369 -100 369 -100 336 -100 c 2,20,-1
 289 -100 l 2,21,22
 270 -100 270 -100 270 -83 c 0,23,24
 270 -78 270 -78 273 -73 c 2,25,-1
 311 -8 l 1,26,27
 170 10 170 10 95 113 c 128,-1,28
 20 216 20 216 20 371 c 0,29,30
 20 534 20 534 115 640 c 128,-1,31
 210 746 210 746 371 746 c 0,32,33
 433 746 433 746 501 728 c 128,-1,34
 569 710 569 710 608 675 c 1,35,-1
 536 583 l 1,36,37
 509 613 509 613 464 631 c 128,-1,38
 419 649 419 649 376 649 c 0,39,40
 302 649 302 649 253.5 607 c 128,-1,41
 205 565 205 565 187 506 c 128,-1,42
 169 447 169 447 169 374 c 0,43,44
 169 326 169 326 181.5 276.5 c 128,-1,45
 194 227 194 227 218 182.5 c 128,-1,46
 242 138 242 138 284 110 c 128,-1,47
 326 82 326 82 378 82 c 0,48,49
 471 82 471 82 549 157 c 1,50,-1
 612 62 l 1,0,1
EndSplineSet
EndChar
StartChar: Egrave
Encoding: 200 200 134
Width: 549
GlyphClass: 2
Flags: W
LayerCount: 2
Back
Fore
SplineSet
513 0 m 1,0,-1
 68 0 l 1,1,-1
 68 613 l 2,2,3
 68 614 68 614 64.5 628 c 128,-1,4
 61 642 61 642 57.5 657 c 128,-1,5
 54 672 54 672 54 674 c 2,6,-1
 513 674 l 1,7,-1
 513 575 l 1,8,-1
 206 575 l 1,9,-1
 206 391 l 1,10,-1
 441 391 l 1,11,-1
 441 292 l 1,12,-1
 206 292 l 1,13,-1
 206 99 l 1,14,-1
 513 99 l 1,15,-1
 513 0 l 1,0,-1
366 717 m 1,16,-1
 263 717 l 1,17,-1
 112 882 l 1,18,-1
 257 882 l 1,19,-1
 366 717 l 1,16,-1
EndSplineSet
EndChar
StartChar: Edieresis
Encoding: 203 203 137
Width: 549
GlyphClass: 2
Flags: W
LayerCount: 2
Back
Fore
SplineSet
513 0 m 1,0,-1
 68 0 l 1,1,-1
 68 613 l 2,2,3
 68 614 68 614 64.5 628 c 128,-1,4
 61 642 61 642 57.5 657 c 128,-1,5
 54 672 54 672 54 674 c 2,6,-1
 513 674 l 1,7,-1
 513 575 l 1,8,-1
 206 575 l 1,9,-1
 206 391 l 1,10,-1
 441 391 l 1,11,-1
 441 292 l 1,12,-1
 206 292 l 1,13,-1
 206 99 l 1,14,-1
 513 99 l 1,15,-1
 513 0 l 1,0,-1
378 735 m 0,16,17
 355 735 355 735 338 752 c 128,-1,18
 321 769 321 769 321 792 c 128,-1,19
 321 815 321 815 338 832 c 128,-1,20
 355 849 355 849 378 849 c 0,21,22
 402 849 402 849 419 832.5 c 128,-1,23
 436 816 436 816 436 792 c 128,-1,24
 436 768 436 768 419 751.5 c 128,-1,25
 402 735 402 735 378 735 c 0,16,17
258 832 m 0,26,27
 275 816 275 816 275 792 c 128,-1,28
 275 768 275 768 258.5 751.5 c 128,-1,29
 242 735 242 735 218 735 c 256,30,31
 194 735 194 735 177.5 751.5 c 128,-1,32
 161 768 161 768 161 792 c 128,-1,33
 161 816 161 816 177.5 832.5 c 128,-1,34
 194 849 194 849 218 849 c 256,35,36
 242 849 242 849 258 832 c 0,26,27
EndSplineSet
EndChar
StartChar: Igrave
Encoding: 204 204 138
Width: 261
GlyphClass: 2
Flags: W
LayerCount: 2
Back
Fore
SplineSet
205 0 m 1,0,-1
 67 0 l 1,1,-1
 67 613 l 2,2,3
 67 614 67 614 63.5 628 c 128,-1,4
 60 642 60 642 56.5 657 c 128,-1,5
 53 672 53 672 53 674 c 2,6,-1
 205 674 l 1,7,-1
 205 0 l 1,0,-1
204 717 m 1,8,-1
 101 717 l 1,9,-1
 -50 882 l 1,10,-1
 95 882 l 1,11,-1
 204 717 l 1,8,-1
EndSplineSet
EndChar
StartChar: Iacute
Encoding: 205 205 139
Width: 261
GlyphClass: 2
Flags: W
LayerCount: 2
Back
Fore
SplineSet
204 0 m 1,0,-1
 66 0 l 1,1,-1
 66 613 l 2,2,3
 66 614 66 614 62.5 628 c 128,-1,4
 59 642 59 642 55.5 657 c 128,-1,5
 52 672 52 672 52 674 c 2,6,-1
 204 674 l 1,7,-1
 204 0 l 1,0,-1
300 881 m 1,8,-1
 149 716 l 1,9,-1
 46 716 l 1,10,-1
 155 881 l 1,11,-1
 300 881 l 1,8,-1
EndSplineSet
EndChar
StartChar: Icircumflex
Encoding: 206 206 140
Width: 261
GlyphClass: 2
Flags: W
LayerCount: 2
Back
Fore
SplineSet
205 0 m 1,0,-1
 67 0 l 1,1,-1
 67 613 l 2,2,3
 67 614 67 614 63.5 628 c 128,-1,4
 60 642 60 642 56.5 657 c 128,-1,5
 53 672 53 672 53 674 c 2,6,-1
 205 674 l 1,7,-1
 205 0 l 1,0,-1
282 713 m 1,8,-1
 204 713 l 1,9,-1
 134 787 l 1,10,-1
 65 713 l 1,11,-1
 -11 713 l 1,12,-1
 85 858 l 1,13,-1
 183 858 l 1,14,-1
 282 713 l 1,8,-1
EndSplineSet
EndChar
StartChar: Idieresis
Encoding: 207 207 141
Width: 261
GlyphClass: 2
Flags: W
LayerCount: 2
Back
Fore
SplineSet
205 0 m 1,0,-1
 67 0 l 1,1,-1
 67 613 l 2,2,3
 67 614 67 614 63.5 628 c 128,-1,4
 60 642 60 642 56.5 657 c 128,-1,5
 53 672 53 672 53 674 c 2,6,-1
 205 674 l 1,7,-1
 205 0 l 1,0,-1
214 735 m 0,8,9
 191 735 191 735 174 752 c 128,-1,10
 157 769 157 769 157 792 c 128,-1,11
 157 815 157 815 174 832 c 128,-1,12
 191 849 191 849 214 849 c 0,13,14
 238 849 238 849 255 832.5 c 128,-1,15
 272 816 272 816 272 792 c 128,-1,16
 272 768 272 768 255 751.5 c 128,-1,17
 238 735 238 735 214 735 c 0,8,9
94 832 m 0,18,19
 111 816 111 816 111 792 c 128,-1,20
 111 768 111 768 94.5 751.5 c 128,-1,21
 78 735 78 735 54 735 c 256,22,23
 30 735 30 735 13.5 751.5 c 128,-1,24
 -3 768 -3 768 -3 792 c 128,-1,25
 -3 816 -3 816 13.5 832.5 c 128,-1,26
 30 849 30 849 54 849 c 256,27,28
 78 849 78 849 94 832 c 0,18,19
EndSplineSet
EndChar
StartChar: Eth
Encoding: 208 208 142
Width: 715
GlyphClass: 2
Flags: W
LayerCount: 2
Back
Fore
SplineSet
327 0 m 2,0,-1
 67 0 l 1,1,-1
 67 324 l 1,2,-1
 -16 324 l 1,3,-1
 -16 412 l 1,4,-1
 67 412 l 1,5,-1
 67 672 l 2,6,7
 66 675 66 675 59 702 c 128,-1,8
 52 729 52 729 51 732 c 2,9,-1
 328 732 l 2,10,11
 493 732 493 732 586.5 631.5 c 128,-1,12
 680 531 680 531 680 365 c 0,13,14
 680 197 680 197 577 95 c 0,15,16
 482 0 482 0 327 0 c 2,0,-1
205 99 m 1,17,-1
 321 99 l 2,18,19
 376 99 376 99 418 120.5 c 128,-1,20
 460 142 460 142 484 179.5 c 128,-1,21
 508 217 508 217 520 262.5 c 128,-1,22
 532 308 532 308 532 361 c 0,23,24
 532 433 532 433 512 492 c 128,-1,25
 492 551 492 551 442.5 592 c 128,-1,26
 393 633 393 633 319 633 c 2,27,-1
 205 633 l 1,28,-1
 205 412 l 1,29,-1
 355 412 l 1,30,-1
 355 324 l 1,31,-1
 205 324 l 1,32,-1
 205 99 l 1,17,-1
EndSplineSet
EndChar
StartChar: Ntilde
Encoding: 209 209 143
Width: 714
GlyphClass: 2
Flags: W
LayerCount: 2
Back
Fore
SplineSet
669 -5 m 1,0,-1
 569 -5 l 1,1,-1
 232 439 l 2,2,3
 223 451 223 451 207.5 476.5 c 128,-1,4
 192 502 192 502 190 506 c 1,5,6
 196 440 196 440 196 439 c 2,7,-1
 196 0 l 1,8,-1
 85 0 l 1,9,-1
 85 613 l 2,10,11
 85 614 85 614 81.5 628 c 128,-1,12
 78 642 78 642 74.5 657 c 128,-1,13
 71 672 71 672 71 674 c 2,14,-1
 218 674 l 1,15,-1
 523 270 l 2,16,17
 524 269 524 269 564 204 c 1,18,19
 558 279 558 279 558 281 c 2,20,-1
 558 674 l 1,21,-1
 669 674 l 1,22,-1
 669 -5 l 1,0,-1
559 830 m 1,23,24
 559 780 559 780 530.5 746.5 c 128,-1,25
 502 713 502 713 453 713 c 0,26,27
 423 713 423 713 381.5 733 c 128,-1,28
 340 753 340 753 323 753 c 0,29,30
 308 753 308 753 295.5 745 c 128,-1,31
 283 737 283 737 283 723 c 1,32,-1
 218 723 l 1,33,34
 218 773 218 773 246.5 806.5 c 128,-1,35
 275 840 275 840 324 840 c 0,36,37
 354 840 354 840 395.5 820 c 128,-1,38
 437 800 437 800 454 800 c 0,39,40
 468 800 468 800 481 808 c 128,-1,41
 494 816 494 816 495 830 c 1,42,-1
 559 830 l 1,23,24
EndSplineSet
EndChar
StartChar: Ograve
Encoding: 210 210 144
Width: 736
GlyphClass: 2
Flags: W
LayerCount: 2
Back
Fore
SplineSet
369 -12 m 0,0,1
 211 -12 211 -12 115 83.5 c 128,-1,2
 19 179 19 179 19 336 c 128,-1,3
 19 493 19 493 115 588.5 c 128,-1,4
 211 684 211 684 368 684 c 0,5,6
 526 684 526 684 622 588.5 c 128,-1,7
 718 493 718 493 718 336 c 128,-1,8
 718 179 718 179 622 83.5 c 128,-1,9
 526 -12 526 -12 369 -12 c 0,0,1
571 336 m 0,10,11
 571 444 571 444 520.5 516.5 c 128,-1,12
 470 589 470 589 369 589 c 0,13,14
 267 589 267 589 216 516 c 128,-1,15
 165 443 165 443 165 337 c 0,16,17
 165 287 165 287 176.5 243 c 128,-1,18
 188 199 188 199 211.5 162.5 c 128,-1,19
 235 126 235 126 275 105 c 128,-1,20
 315 84 315 84 367 84 c 0,21,22
 469 84 469 84 520 157 c 128,-1,23
 571 230 571 230 571 336 c 0,10,11
417 717 m 1,24,-1
 314 717 l 1,25,-1
 163 882 l 1,26,-1
 308 882 l 1,27,-1
 417 717 l 1,24,-1
EndSplineSet
EndChar
StartChar: Odieresis
Encoding: 214 214 148
Width: 736
GlyphClass: 2
Flags: W
LayerCount: 2
Back
Fore
SplineSet
369 -12 m 0,0,1
 211 -12 211 -12 115 83.5 c 128,-1,2
 19 179 19 179 19 336 c 128,-1,3
 19 493 19 493 115 588.5 c 128,-1,4
 211 684 211 684 368 684 c 0,5,6
 526 684 526 684 622 588.5 c 128,-1,7
 718 493 718 493 718 336 c 128,-1,8
 718 179 718 179 622 83.5 c 128,-1,9
 526 -12 526 -12 369 -12 c 0,0,1
571 336 m 0,10,11
 571 444 571 444 520.5 516.5 c 128,-1,12
 470 589 470 589 369 589 c 0,13,14
 267 589 267 589 216 516 c 128,-1,15
 165 443 165 443 165 337 c 0,16,17
 165 287 165 287 176.5 243 c 128,-1,18
 188 199 188 199 211.5 162.5 c 128,-1,19
 235 126 235 126 275 105 c 128,-1,20
 315 84 315 84 367 84 c 0,21,22
 469 84 469 84 520 157 c 128,-1,23
 571 230 571 230 571 336 c 0,10,11
444 735 m 0,24,25
 421 735 421 735 404 752 c 128,-1,26
 387 769 387 769 387 792 c 128,-1,27
 387 815 387 815 404 832 c 128,-1,28
 421 849 421 849 444 849 c 0,29,30
 468 849 468 849 485 832.5 c 128,-1,31
 502 816 502 816 502 792 c 128,-1,32
 502 768 502 768 485 751.5 c 128,-1,33
 468 735 468 735 444 735 c 0,24,25
324 832 m 0,34,35
 341 816 341 816 341 792 c 128,-1,36
 341 768 341 768 324.5 751.5 c 128,-1,37
 308 735 308 735 284 735 c 256,38,39
 260 735 260 735 243.5 751.5 c 128,-1,40
 227 768 227 768 227 792 c 128,-1,41
 227 816 227 816 243.5 832.5 c 128,-1,42
 260 849 260 849 284 849 c 256,43,44
 308 849 308 849 324 832 c 0,34,35
EndSplineSet
EndChar
StartChar: multiply
Encoding: 215 215 149
Width: 534
GlyphClass: 2
Flags: W
LayerCount: 2
Back
Fore
SplineSet
474 104 m 1,0,-1
 412 42 l 1,1,-1
 267 186 l 1,2,-1
 122 42 l 1,3,-1
 60 104 l 1,4,-1
 205 248 l 1,5,-1
 60 393 l 1,6,-1
 122 455 l 1,7,-1
 267 311 l 1,8,-1
 412 455 l 1,9,-1
 474 393 l 1,10,-1
 329 248 l 1,11,-1
 474 104 l 1,0,-1
EndSplineSet
EndChar
StartChar: Oslash
Encoding: 216 216 150
Width: 736
GlyphClass: 2
Flags: W
LayerCount: 2
Back
Fore
SplineSet
717 365 m 0,0,1
 717 200 717 200 622 94.5 c 128,-1,2
 527 -11 527 -11 364 -11 c 0,3,4
 262 -11 262 -11 183 35 c 1,5,-1
 124 -56 l 1,6,-1
 71 -25 l 1,7,-1
 134 72 l 1,8,9
 19 172 19 172 19 367 c 0,10,11
 19 533 19 533 110.5 638 c 128,-1,12
 202 743 202 743 365 743 c 0,13,14
 466 743 466 743 544 702 c 1,15,-1
 593 777 l 1,16,-1
 646 744 l 1,17,-1
 595 667 l 1,18,19
 717 566 717 566 717 365 c 0,0,1
482 608 m 1,20,21
 435 648 435 648 367 648 c 0,22,23
 312 648 312 648 271 623.5 c 128,-1,24
 230 599 230 599 208 557.5 c 128,-1,25
 186 516 186 516 176 469.5 c 128,-1,26
 166 423 166 423 166 371 c 0,27,28
 166 255 166 255 206 183 c 1,29,-1
 482 608 l 1,20,21
569 361 m 0,30,31
 569 483 569 483 524 558 c 1,32,-1
 245 131 l 1,33,34
 295 84 295 84 368 84 c 0,35,36
 423 84 423 84 464 108.5 c 128,-1,37
 505 133 505 133 527 174.5 c 128,-1,38
 549 216 549 216 559 262.5 c 128,-1,39
 569 309 569 309 569 361 c 0,30,31
EndSplineSet
EndChar
StartChar: Ucircumflex
Encoding: 219 219 153
Width: 707
GlyphClass: 2
Flags: W
LayerCount: 2
Back
Fore
SplineSet
644 674 m 1,0,-1
 644 269 l 2,1,2
 644 125 644 125 566 57 c 128,-1,3
 488 -11 488 -11 356 -11 c 0,4,5
 217 -11 217 -11 142.5 63.5 c 128,-1,6
 68 138 68 138 68 278 c 2,7,-1
 68 614 l 1,8,-1
 52 674 l 1,9,-1
 209 674 l 1,10,-1
 209 245 l 2,11,12
 209 172 209 172 253 128 c 128,-1,13
 297 84 297 84 370 84 c 0,14,15
 444 84 444 84 487.5 127 c 128,-1,16
 531 170 531 170 531 245 c 2,17,-1
 531 674 l 1,18,-1
 644 674 l 1,0,-1
517 718 m 1,19,-1
 439 718 l 1,20,-1
 369 792 l 1,21,-1
 300 718 l 1,22,-1
 224 718 l 1,23,-1
 320 863 l 1,24,-1
 418 863 l 1,25,-1
 517 718 l 1,19,-1
EndSplineSet
EndChar
StartChar: Udieresis
Encoding: 220 220 154
Width: 707
GlyphClass: 2
Flags: W
LayerCount: 2
Back
Fore
SplineSet
644 674 m 1,0,-1
 644 269 l 2,1,2
 644 125 644 125 566 57 c 128,-1,3
 488 -11 488 -11 356 -11 c 0,4,5
 217 -11 217 -11 142.5 63.5 c 128,-1,6
 68 138 68 138 68 278 c 2,7,-1
 68 614 l 1,8,-1
 52 674 l 1,9,-1
 209 674 l 1,10,-1
 209 245 l 2,11,12
 209 172 209 172 253 128 c 128,-1,13
 297 84 297 84 370 84 c 0,14,15
 444 84 444 84 487.5 127 c 128,-1,16
 531 170 531 170 531 245 c 2,17,-1
 531 674 l 1,18,-1
 644 674 l 1,0,-1
450 735 m 0,19,20
 427 735 427 735 410 752 c 128,-1,21
 393 769 393 769 393 792 c 128,-1,22
 393 815 393 815 410 832 c 128,-1,23
 427 849 427 849 450 849 c 0,24,25
 474 849 474 849 491 832.5 c 128,-1,26
 508 816 508 816 508 792 c 128,-1,27
 508 768 508 768 491 751.5 c 128,-1,28
 474 735 474 735 450 735 c 0,19,20
330 832 m 0,29,30
 347 816 347 816 347 792 c 128,-1,31
 347 768 347 768 330.5 751.5 c 128,-1,32
 314 735 314 735 290 735 c 256,33,34
 266 735 266 735 249.5 751.5 c 128,-1,35
 233 768 233 768 233 792 c 128,-1,36
 233 816 233 816 249.5 832.5 c 128,-1,37
 266 849 266 849 290 849 c 256,38,39
 314 849 314 849 330 832 c 0,29,30
EndSplineSet
EndChar
StartChar: Yacute
Encoding: 221 221 155
Width: 584
GlyphClass: 2
Flags: W
LayerCount: 2
Back
Fore
SplineSet
574 674 m 1,0,-1
 357 274 l 1,1,-1
 357 0 l 1,2,-1
 224 0 l 1,3,-1
 224 274 l 1,4,-1
 10 674 l 1,5,-1
 158 674 l 1,6,-1
 304 401 l 1,7,-1
 454 674 l 1,8,-1
 574 674 l 1,0,-1
512 881 m 1,9,-1
 361 716 l 1,10,-1
 258 716 l 1,11,-1
 367 881 l 1,12,-1
 512 881 l 1,9,-1
EndSplineSet
EndChar
StartChar: Thorn
Encoding: 222 222 156
Width: 575
GlyphClass: 2
Flags: W
LayerCount: 2
Back
Fore
SplineSet
203 0 m 1,0,-1
 66 0 l 1,1,-1
 66 671 l 2,2,3
 66 672 66 672 63 686 c 128,-1,4
 60 700 60 700 56.5 715 c 128,-1,5
 53 730 53 730 53 732 c 2,6,-1
 205 732 l 1,7,-1
 205 617 l 1,8,-1
 283 617 l 2,9,10
 403 617 403 617 476 565.5 c 128,-1,11
 549 514 549 514 549 398 c 0,12,13
 549 290 549 290 472.5 234.5 c 128,-1,14
 396 179 396 179 285 179 c 2,15,-1
 203 179 l 1,16,-1
 203 0 l 1,0,-1
204 276 m 1,17,-1
 288 276 l 2,18,19
 342 276 342 276 372.5 309.5 c 128,-1,20
 403 343 403 343 403 398 c 0,21,22
 403 454 403 454 374 486 c 128,-1,23
 345 518 345 518 289 518 c 2,24,-1
 204 518 l 1,25,-1
 204 276 l 1,17,-1
EndSplineSet
EndChar
StartChar: germandbls
Encoding: 223 223 157
Width: 590
GlyphClass: 2
Flags: W
LayerCount: 2
Back
Fore
SplineSet
572 189 m 0,0,1
 572 98 572 98 510 43.5 c 128,-1,2
 448 -11 448 -11 355 -11 c 0,3,4
 290 -11 290 -11 225 19 c 1,5,-1
 264 96 l 1,6,7
 311 79 311 79 343 79 c 0,8,9
 379 79 379 79 408.5 106.5 c 128,-1,10
 438 134 438 134 438 170 c 0,11,12
 438 207 438 207 426.5 230 c 128,-1,13
 415 253 415 253 385 270 c 0,14,15
 376 275 376 275 344.5 289 c 128,-1,16
 313 303 313 303 293 314 c 128,-1,17
 273 325 273 325 255 344 c 128,-1,18
 237 363 237 363 237 384 c 0,19,20
 237 412 237 412 251.5 432.5 c 128,-1,21
 266 453 266 453 286.5 465.5 c 128,-1,22
 307 478 307 478 327.5 491.5 c 128,-1,23
 348 505 348 505 362.5 527 c 128,-1,24
 377 549 377 549 377 580 c 0,25,26
 377 607 377 607 355.5 627.5 c 128,-1,27
 334 648 334 648 307 648 c 0,28,29
 198 648 198 648 198 465 c 2,30,-1
 198 0 l 1,31,-1
 75 0 l 1,32,-1
 75 416 l 1,33,-1
 0 416 l 1,34,-1
 0 502 l 1,35,36
 73 502 73 502 82 539 c 0,37,38
 105 637 105 637 157.5 691 c 128,-1,39
 210 745 210 745 306 745 c 0,40,41
 393 745 393 745 452 702 c 128,-1,42
 511 659 511 659 511 575 c 0,43,44
 511 530 511 530 489.5 499.5 c 128,-1,45
 468 469 468 469 443 457.5 c 128,-1,46
 418 446 418 446 396.5 433 c 128,-1,47
 375 420 375 420 375 406 c 0,48,49
 375 393 375 393 406 378.5 c 128,-1,50
 437 364 437 364 473.5 349 c 128,-1,51
 510 334 510 334 541 292.5 c 128,-1,52
 572 251 572 251 572 189 c 0,0,1
EndSplineSet
EndChar
StartChar: ae
Encoding: 230 230 164
Width: 750
GlyphClass: 2
Flags: W
LayerCount: 2
Back
Fore
SplineSet
735 283 m 0,0,1
 735 223 735 223 684 223 c 2,2,-1
 422 223 l 1,3,4
 422 163 422 163 457.5 116 c 128,-1,5
 493 69 493 69 551 69 c 0,6,7
 582 69 582 69 615.5 84 c 128,-1,8
 649 99 649 99 672 122 c 1,9,-1
 723 42 l 1,10,11
 692 17 692 17 641 3 c 128,-1,12
 590 -11 590 -11 545 -11 c 0,13,14
 412 -11 412 -11 350 73 c 1,15,16
 292 -11 292 -11 169 -11 c 0,17,18
 110 -11 110 -11 69 27 c 128,-1,19
 28 65 28 65 28 124 c 0,20,21
 28 176 28 176 53 213 c 128,-1,22
 78 250 78 250 120.5 268.5 c 128,-1,23
 163 287 163 287 206.5 294.5 c 128,-1,24
 250 302 250 302 299 302 c 1,25,-1
 299 356 l 2,26,27
 299 395 299 395 282 410.5 c 128,-1,28
 265 426 265 426 227 426 c 0,29,30
 174 426 174 426 99 368 c 1,31,-1
 50 447 l 1,32,33
 141 509 141 509 252 509 c 0,34,35
 345 509 345 509 385 456 c 1,36,37
 409 482 409 482 449 496.5 c 128,-1,38
 489 511 489 511 528 511 c 0,39,40
 629 511 629 511 682 448.5 c 128,-1,41
 735 386 735 386 735 283 c 0,0,1
609 324 m 0,42,43
 609 428 609 428 530 428 c 0,44,45
 485 428 485 428 455 388 c 128,-1,46
 425 348 425 348 425 302 c 1,47,-1
 593 302 l 2,48,49
 609 302 609 302 609 324 c 0,42,43
299 223 m 1,50,51
 265 223 265 223 235 217 c 128,-1,52
 205 211 205 211 179 189.5 c 128,-1,53
 153 168 153 168 153 134 c 0,54,55
 153 108 153 108 169 94.5 c 128,-1,56
 185 81 185 81 212 81 c 0,57,58
 299 81 299 81 299 223 c 1,50,51
EndSplineSet
EndChar
StartChar: ccedilla
Encoding: 231 231 165
Width: 450
GlyphClass: 2
Flags: W
LayerCount: 2
Back
Fore
SplineSet
442 35 m 1,0,1
 392 10 392 10 355 -1 c 128,-1,2
 318 -12 318 -12 268 -12 c 1,3,-1
 248 -48 l 1,4,-1
 252 -48 l 2,5,6
 296 -48 296 -48 329 -66.5 c 128,-1,7
 362 -85 362 -85 362 -126 c 0,8,9
 362 -220 362 -220 227 -220 c 0,10,11
 186 -220 186 -220 135 -190 c 1,12,-1
 163 -140 l 1,13,14
 204 -162 204 -162 230 -162 c 0,15,16
 246 -162 246 -162 257.5 -152.5 c 128,-1,17
 269 -143 269 -143 269 -129 c 0,18,19
 269 -100 269 -100 236 -100 c 2,20,-1
 189 -100 l 2,21,22
 170 -100 170 -100 170 -83 c 0,23,24
 170 -78 170 -78 173 -73 c 2,25,-1
 212 -7 l 1,26,27
 122 10 122 10 74 78 c 128,-1,28
 26 146 26 146 26 249 c 0,29,30
 26 366 26 366 96.5 438 c 128,-1,31
 167 510 167 510 283 510 c 0,32,33
 320 510 320 510 362 497 c 128,-1,34
 404 484 404 484 434 462 c 1,35,-1
 374 386 l 1,36,37
 322 425 322 425 272 425 c 0,38,39
 214 425 214 425 186 370 c 128,-1,40
 158 315 158 315 158 251 c 0,41,42
 158 206 158 206 169.5 167.5 c 128,-1,43
 181 129 181 129 211 100.5 c 128,-1,44
 241 72 241 72 287 72 c 256,45,46
 333 72 333 72 391 121 c 1,47,-1
 442 35 l 1,0,1
EndSplineSet
EndChar
StartChar: eth
Encoding: 240 240 174
Width: 536
GlyphClass: 2
Flags: W
LayerCount: 2
Back
Fore
SplineSet
414 723 m 1,0,-1
 323 672 l 1,1,2
 510 447 510 447 510 249 c 0,3,4
 510 138 510 138 444 63.5 c 128,-1,5
 378 -11 378 -11 268 -11 c 256,6,7
 158 -11 158 -11 92 63.5 c 128,-1,8
 26 138 26 138 26 249 c 0,9,10
 26 359 26 359 92.5 434.5 c 128,-1,11
 159 510 159 510 268 510 c 0,12,13
 280 510 280 510 300 508 c 1,14,15
 264 572 264 572 228 619 c 1,16,-1
 135 568 l 1,17,-1
 90 626 l 1,18,-1
 182 677 l 1,19,20
 164 697 164 697 130 731 c 1,21,-1
 218 783 l 1,22,23
 235 767 235 767 274 728 c 1,24,-1
 374 783 l 1,25,-1
 414 723 l 1,0,-1
268 72 m 0,26,27
 378 72 378 72 378 248 c 0,28,29
 378 280 378 280 373.5 308 c 128,-1,30
 369 336 369 336 358.5 365 c 128,-1,31
 348 394 348 394 324.5 411 c 128,-1,32
 301 428 301 428 268 428 c 0,33,34
 226 428 226 428 199.5 396 c 128,-1,35
 173 364 173 364 165.5 327 c 128,-1,36
 158 290 158 290 158 248 c 128,-1,37
 158 206 158 206 165.5 170 c 128,-1,38
 173 134 173 134 199.5 103 c 128,-1,39
 226 72 226 72 268 72 c 0,26,27
EndSplineSet
EndChar
StartChar: divide
Encoding: 247 247 181
Width: 630
GlyphClass: 2
Flags: W
LayerCount: 2
Back
Fore
SplineSet
564 204 m 1,0,-1
 68 204 l 1,1,-1
 68 292 l 1,2,-1
 564 292 l 1,3,-1
 564 204 l 1,0,-1
370 121 m 0,4,5
 393 98 393 98 393 66 c 128,-1,6
 393 34 393 34 370.5 11.5 c 128,-1,7
 348 -11 348 -11 316 -11 c 256,8,9
 284 -11 284 -11 261.5 11.5 c 128,-1,10
 239 34 239 34 239 66 c 128,-1,11
 239 98 239 98 261.5 121 c 128,-1,12
 284 144 284 144 316 144 c 256,13,14
 348 144 348 144 370 121 c 0,4,5
369 486 m 0,15,16
 392 463 392 463 392 431 c 128,-1,17
 392 399 392 399 369.5 376.5 c 128,-1,18
 347 354 347 354 315 354 c 256,19,20
 283 354 283 354 260.5 376.5 c 128,-1,21
 238 399 238 399 238 431 c 128,-1,22
 238 463 238 463 260.5 486 c 128,-1,23
 283 509 283 509 315 509 c 256,24,25
 347 509 347 509 369 486 c 0,15,16
EndSplineSet
EndChar
StartChar: oslash
Encoding: 248 248 182
Width: 537
GlyphClass: 2
Flags: W
LayerCount: 2
Back
Fore
SplineSet
511 249 m 0,0,1
 511 137 511 137 445 62.5 c 128,-1,2
 379 -12 379 -12 269 -12 c 0,3,4
 204 -12 204 -12 154 15 c 1,5,-1
 89 -91 l 1,6,-1
 44 -57 l 1,7,-1
 108 47 l 1,8,9
 26 122 26 122 26 249 c 0,10,11
 26 360 26 360 92.5 435 c 128,-1,12
 159 510 159 510 269 510 c 0,13,14
 330 510 330 510 380 485 c 1,15,-1
 434 571 l 1,16,-1
 483 545 l 1,17,-1
 426 454 l 1,18,19
 511 379 511 379 511 249 c 0,0,1
331 405 m 1,20,21
 307 428 307 428 269 428 c 0,22,23
 227 428 227 428 200.5 396 c 128,-1,24
 174 364 174 364 166.5 327 c 128,-1,25
 159 290 159 290 159 248 c 0,26,27
 159 192 159 192 172 150 c 1,28,-1
 331 405 l 1,20,21
378 248 m 0,29,30
 378 311 378 311 364 353 c 1,31,-1
 204 95 l 1,32,33
 231 68 231 68 269 68 c 0,34,35
 302 68 302 68 325 85 c 128,-1,36
 348 102 348 102 358.5 131 c 128,-1,37
 369 160 369 160 373.5 188 c 128,-1,38
 378 216 378 216 378 248 c 0,29,30
EndSplineSet
EndChar
StartChar: thorn
Encoding: 254 254 188
Width: 558
GlyphClass: 2
Flags: W
LayerCount: 2
Back
Fore
SplineSet
188 768 m 1,0,-1
 188 457 l 1,1,2
 248 508 248 508 327 508 c 0,3,4
 391 508 391 508 438.5 468 c 128,-1,5
 486 428 486 428 508 370.5 c 128,-1,6
 530 313 530 313 530 251 c 0,7,8
 530 141 530 141 466.5 64.5 c 128,-1,9
 403 -12 403 -12 295 -12 c 0,10,11
 233 -12 233 -12 188 18 c 1,12,-1
 188 -217 l 1,13,-1
 68 -217 l 1,14,-1
 68 715 l 2,15,16
 67 719 67 719 62 744 c 2,17,-1
 57 768 l 1,18,-1
 188 768 l 1,0,-1
188 368 m 1,19,-1
 188 205 l 2,20,21
 188 148 188 148 213 109 c 128,-1,22
 238 70 238 70 292 70 c 0,23,24
 332 70 332 70 357.5 101.5 c 128,-1,25
 383 133 383 133 391 169.5 c 128,-1,26
 399 206 399 206 399 245 c 0,27,28
 399 283 399 283 389 319.5 c 128,-1,29
 379 356 379 356 352 386 c 128,-1,30
 325 416 325 416 286 416 c 0,31,32
 231 416 231 416 188 368 c 1,19,-1
EndSplineSet
EndChar
StartChar: dotlessi
Encoding: 305 305 190
Width: 251
GlyphClass: 2
Flags: W
LayerCount: 2
Back
Fore
SplineSet
185 0 m 1,0,-1
 65 0 l 1,1,-1
 65 443 l 2,2,3
 65 444 65 444 62.5 456 c 128,-1,4
 60 468 60 468 57 482 c 128,-1,5
 54 496 54 496 54 497 c 2,6,-1
 185 497 l 1,7,-1
 185 0 l 1,0,-1
EndSplineSet
EndChar
StartChar: Lslash
Encoding: 321 321 191
Width: 492
GlyphClass: 2
Flags: W
LayerCount: 2
Back
Fore
SplineSet
492 0 m 1,0,-1
 66 0 l 1,1,-1
 66 245 l 1,2,-1
 1 215 l 1,3,-1
 1 312 l 1,4,-1
 66 342 l 1,5,-1
 66 672 l 2,6,7
 65 676 65 676 59 704 c 2,8,-1
 53 732 l 1,9,-1
 205 732 l 1,10,-1
 205 406 l 1,11,-1
 402 498 l 1,12,-1
 402 400 l 1,13,-1
 205 309 l 1,14,-1
 205 99 l 1,15,-1
 492 99 l 1,16,-1
 492 0 l 1,0,-1
EndSplineSet
EndChar
StartChar: lslash
Encoding: 322 322 192
Width: 251
GlyphClass: 2
Flags: W
LayerCount: 2
Back
Fore
SplineSet
185 0 m 1,0,-1
 63 0 l 1,1,-1
 63 274 l 1,2,-1
 3 246 l 1,3,-1
 3 343 l 1,4,-1
 63 371 l 1,5,-1
 63 715 l 2,6,7
 62 719 62 719 57 744 c 2,8,-1
 52 768 l 1,9,-1
 185 768 l 1,10,-1
 185 428 l 1,11,-1
 249 458 l 1,12,-1
 249 360 l 1,13,-1
 185 330 l 1,14,-1
 185 0 l 1,0,-1
EndSplineSet
EndChar
StartChar: OE
Encoding: 338 338 193
Width: 1055
GlyphClass: 2
Flags: W
LayerCount: 2
Back
Fore
SplineSet
1030 0 m 1,0,-1
 585 0 l 1,1,-1
 585 54 l 1,2,3
 496 -11 496 -11 373 -11 c 0,4,5
 210 -11 210 -11 117 95 c 128,-1,6
 24 201 24 201 24 366 c 0,7,8
 24 532 24 532 117 637.5 c 128,-1,9
 210 743 210 743 373 743 c 0,10,11
 498 743 498 743 585 680 c 1,12,-1
 585 732 l 1,13,-1
 1030 732 l 1,14,-1
 1030 633 l 1,15,-1
 722 633 l 1,16,-1
 722 426 l 1,17,-1
 958 426 l 1,18,-1
 958 327 l 1,19,-1
 722 327 l 1,20,-1
 722 99 l 1,21,-1
 1030 99 l 1,22,-1
 1030 0 l 1,0,-1
373 88 m 0,23,24
 428 88 428 88 469 112.5 c 128,-1,25
 510 137 510 137 532 178.5 c 128,-1,26
 554 220 554 220 564.5 267 c 128,-1,27
 575 314 575 314 575 366 c 0,28,29
 575 419 575 419 565 465 c 128,-1,30
 555 511 555 511 533.5 553 c 128,-1,31
 512 595 512 595 471 619.5 c 128,-1,32
 430 644 430 644 373 644 c 0,33,34
 318 644 318 644 277 619.5 c 128,-1,35
 236 595 236 595 214 553 c 128,-1,36
 192 511 192 511 181.5 464.5 c 128,-1,37
 171 418 171 418 171 366 c 0,38,39
 171 313 171 313 181 266.5 c 128,-1,40
 191 220 191 220 213 178.5 c 128,-1,41
 235 137 235 137 276 112.5 c 128,-1,42
 317 88 317 88 373 88 c 0,23,24
EndSplineSet
EndChar
StartChar: oe
Encoding: 339 339 194
Width: 848
GlyphClass: 2
Flags: W
LayerCount: 2
Back
Fore
SplineSet
756 125 m 1,0,-1
 807 42 l 1,1,2
 776 16 776 16 725.5 2.5 c 128,-1,3
 675 -11 675 -11 629 -11 c 0,4,5
 511 -11 511 -11 443 62 c 1,6,7
 378 -11 378 -11 269 -11 c 0,8,9
 159 -11 159 -11 93 63.5 c 128,-1,10
 27 138 27 138 27 249 c 0,11,12
 27 359 27 359 93.5 434.5 c 128,-1,13
 160 510 160 510 269 510 c 256,14,15
 378 510 378 510 444 436 c 1,16,17
 508 511 508 511 612 511 c 0,18,19
 710 511 710 511 764.5 452 c 128,-1,20
 819 393 819 393 819 294 c 0,21,22
 819 234 819 234 768 234 c 2,23,-1
 506 234 l 1,24,25
 506 170 506 170 539.5 121 c 128,-1,26
 573 72 573 72 635 72 c 0,27,28
 666 72 666 72 699.5 87 c 128,-1,29
 733 102 733 102 756 125 c 1,0,-1
269 72 m 0,30,31
 379 72 379 72 379 248 c 0,32,33
 379 280 379 280 374.5 308 c 128,-1,34
 370 336 370 336 359.5 365 c 128,-1,35
 349 394 349 394 325.5 411 c 128,-1,36
 302 428 302 428 269 428 c 0,37,38
 227 428 227 428 200.5 396 c 128,-1,39
 174 364 174 364 166.5 327 c 128,-1,40
 159 290 159 290 159 248 c 128,-1,41
 159 206 159 206 166.5 170 c 128,-1,42
 174 134 174 134 200.5 103 c 128,-1,43
 227 72 227 72 269 72 c 0,30,31
509 313 m 1,44,-1
 677 313 l 2,45,46
 694 313 694 313 694 335 c 0,47,48
 694 376 694 376 673 402.5 c 128,-1,49
 652 429 652 429 613 429 c 0,50,51
 573 429 573 429 542 392 c 128,-1,52
 511 355 511 355 509 313 c 1,44,-1
EndSplineSet
EndChar
StartChar: Scaron
Encoding: 352 352 195
Width: 516
GlyphClass: 2
Flags: W
LayerCount: 2
Back
Fore
SplineSet
497 197 m 0,0,1
 497 100 497 100 422 44 c 128,-1,2
 347 -12 347 -12 239 -12 c 0,3,4
 103 -12 103 -12 4 41 c 1,5,-1
 51 151 l 1,6,7
 130 84 130 84 226 84 c 0,8,9
 277 84 277 84 314 108.5 c 128,-1,10
 351 133 351 133 351 174 c 0,11,12
 351 211 351 211 317.5 238.5 c 128,-1,13
 284 266 284 266 237 285.5 c 128,-1,14
 190 305 190 305 142.5 327.5 c 128,-1,15
 95 350 95 350 61.5 391.5 c 128,-1,16
 28 433 28 433 28 491 c 0,17,18
 28 585 28 585 99.5 634 c 128,-1,19
 171 683 171 683 291 683 c 0,20,21
 337 683 337 683 395 667.5 c 128,-1,22
 453 652 453 652 485 628 c 1,23,-1
 416 541 l 1,24,25
 359 587 359 587 278 587 c 0,26,27
 235 587 235 587 204.5 568.5 c 128,-1,28
 174 550 174 550 174 517 c 0,29,30
 174 481 174 481 207.5 455 c 128,-1,31
 241 429 241 429 288.5 409.5 c 128,-1,32
 336 390 336 390 383 366.5 c 128,-1,33
 430 343 430 343 463.5 300 c 128,-1,34
 497 257 497 257 497 197 c 0,0,1
404 861 m 1,35,-1
 308 716 l 1,36,-1
 210 716 l 1,37,-1
 111 861 l 1,38,-1
 189 861 l 1,39,-1
 259 787 l 1,40,-1
 328 861 l 1,41,-1
 404 861 l 1,35,-1
EndSplineSet
EndChar
StartChar: Ydieresis
Encoding: 376 376 197
Width: 584
GlyphClass: 2
Flags: W
LayerCount: 2
Back
Fore
SplineSet
574 674 m 1,0,-1
 357 274 l 1,1,-1
 357 0 l 1,2,-1
 224 0 l 1,3,-1
 224 274 l 1,4,-1
 10 674 l 1,5,-1
 158 674 l 1,6,-1
 304 401 l 1,7,-1
 454 674 l 1,8,-1
 574 674 l 1,0,-1
386 735 m 0,9,10
 363 735 363 735 346 752 c 128,-1,11
 329 769 329 769 329 792 c 128,-1,12
 329 815 329 815 346 832 c 128,-1,13
 363 849 363 849 386 849 c 0,14,15
 410 849 410 849 427 832.5 c 128,-1,16
 444 816 444 816 444 792 c 128,-1,17
 444 768 444 768 427 751.5 c 128,-1,18
 410 735 410 735 386 735 c 0,9,10
266 832 m 0,19,20
 283 816 283 816 283 792 c 128,-1,21
 283 768 283 768 266.5 751.5 c 128,-1,22
 250 735 250 735 226 735 c 256,23,24
 202 735 202 735 185.5 751.5 c 128,-1,25
 169 768 169 768 169 792 c 128,-1,26
 169 816 169 816 185.5 832.5 c 128,-1,27
 202 849 202 849 226 849 c 256,28,29
 250 849 250 849 266 832 c 0,19,20
EndSplineSet
EndChar
StartChar: Zcaron
Encoding: 381 381 198
Width: 571
GlyphClass: 2
Flags: W
LayerCount: 2
Back
Fore
SplineSet
558 99 m 1,0,-1
 546 0 l 1,1,-1
 13 0 l 1,2,-1
 13 82 l 1,3,-1
 364 576 l 1,4,-1
 37 576 l 1,5,-1
 37 674 l 1,6,-1
 540 674 l 1,7,-1
 540 601 l 1,8,-1
 182 99 l 1,9,-1
 558 99 l 1,0,-1
447 861 m 1,10,-1
 351 716 l 1,11,-1
 253 716 l 1,12,-1
 154 861 l 1,13,-1
 232 861 l 1,14,-1
 302 787 l 1,15,-1
 371 861 l 1,16,-1
 447 861 l 1,10,-1
EndSplineSet
EndChar
StartChar: florin
Encoding: 402 402 200
Width: 297
GlyphClass: 2
Flags: W
LayerCount: 2
Back
Fore
SplineSet
426 706 m 1,0,-1
 392 636 l 1,1,2
 352 661 352 661 316 661 c 0,3,4
 243 661 243 661 215 497 c 1,5,-1
 359 497 l 1,6,-1
 334 417 l 1,7,-1
 203 417 l 1,8,9
 167 178 167 178 131 1 c 0,10,11
 113 -87 113 -87 65.5 -140.5 c 128,-1,12
 18 -194 18 -194 -65 -194 c 0,13,14
 -87 -194 -87 -194 -114 -189 c 1,15,-1
 -91 -111 l 1,16,-1
 -82 -111 l 2,17,18
 -51 -111 -51 -111 -29 -92 c 128,-1,19
 -7 -73 -7 -73 -1 -39 c 2,20,-1
 81 417 l 1,21,-1
 6 417 l 1,22,-1
 6 487 l 1,23,24
 87 489 87 489 104 532 c 0,25,26
 108 541 108 541 123 589.5 c 128,-1,27
 138 638 138 638 154 662 c 0,28,29
 207 743 207 743 320 743 c 0,30,31
 376 743 376 743 426 706 c 1,0,-1
EndSplineSet
EndChar
StartChar: circumflex
Encoding: 710 710 201
Width: 275
GlyphClass: 2
Flags: W
LayerCount: 2
Back
Fore
SplineSet
285 588 m 1,0,-1
 207 588 l 1,1,-1
 137 662 l 1,2,-1
 68 588 l 1,3,-1
 -8 588 l 1,4,-1
 88 733 l 1,5,-1
 186 733 l 1,6,-1
 285 588 l 1,0,-1
EndSplineSet
EndChar
StartChar: caron
Encoding: 711 711 202
Width: 275
GlyphClass: 2
Flags: W
LayerCount: 2
Back
Fore
SplineSet
285 733 m 1,0,-1
 189 588 l 1,1,-1
 91 588 l 1,2,-1
 -8 733 l 1,3,-1
 70 733 l 1,4,-1
 140 659 l 1,5,-1
 209 733 l 1,6,-1
 285 733 l 1,0,-1
EndSplineSet
EndChar
StartChar: breve
Encoding: 728 728 203
Width: 276
GlyphClass: 2
Flags: W
LayerCount: 2
Back
Fore
SplineSet
289 732 m 1,0,1
 279 655 279 655 245 613.5 c 128,-1,2
 211 572 211 572 138 572 c 0,3,4
 68 572 68 572 31 615.5 c 128,-1,5
 -6 659 -6 659 -12 732 c 1,6,-1
 55 732 l 1,7,8
 64 696 64 696 83 679 c 128,-1,9
 102 662 102 662 138 662 c 0,10,11
 204 662 204 662 220 732 c 1,12,-1
 289 732 l 1,0,1
EndSplineSet
EndChar
StartChar: dotaccent
Encoding: 729 729 204
Width: 285
GlyphClass: 2
Flags: W
LayerCount: 2
Back
Fore
SplineSet
187 668 m 0,0,1
 205 650 205 650 205 625 c 128,-1,2
 205 600 205 600 187.5 582 c 128,-1,3
 170 564 170 564 144 564 c 256,4,5
 118 564 118 564 100.5 582 c 128,-1,6
 83 600 83 600 83 625 c 128,-1,7
 83 650 83 650 100.5 668 c 128,-1,8
 118 686 118 686 144 686 c 256,9,10
 170 686 170 686 187 668 c 0,0,1
EndSplineSet
EndChar
StartChar: ring
Encoding: 730 730 205
Width: 281
GlyphClass: 2
Flags: W
LayerCount: 2
Back
Fore
SplineSet
217 713 m 0,0,1
 249 682 249 682 249 638 c 128,-1,2
 249 594 249 594 217 562.5 c 128,-1,3
 185 531 185 531 141 531 c 256,4,5
 97 531 97 531 65.5 562.5 c 128,-1,6
 34 594 34 594 34 638 c 128,-1,7
 34 682 34 682 65.5 713.5 c 128,-1,8
 97 745 97 745 141 745 c 256,9,10
 185 745 185 745 217 713 c 0,0,1
111 666 m 0,11,12
 100 654 100 654 100 637 c 128,-1,13
 100 620 100 620 111.5 608.5 c 128,-1,14
 123 597 123 597 140 597 c 256,15,16
 157 597 157 597 169 608.5 c 128,-1,17
 181 620 181 620 181 637 c 128,-1,18
 181 654 181 654 169 666 c 128,-1,19
 157 678 157 678 140 678 c 256,20,21
 123 678 123 678 111 666 c 0,11,12
EndSplineSet
EndChar
StartChar: ogonek
Encoding: 731 731 206
Width: 279
GlyphClass: 2
Flags: W
LayerCount: 2
Back
Fore
SplineSet
274 -154 m 1,0,1
 203 -211 203 -211 132 -211 c 0,2,3
 86 -211 86 -211 57 -187 c 128,-1,4
 28 -163 28 -163 28 -118 c 0,5,6
 28 -80 28 -80 63.5 -46 c 128,-1,7
 99 -12 99 -12 142 7.5 c 128,-1,8
 185 27 185 27 223 33 c 1,9,-1
 258 14 l 2,10,11
 254 12 254 12 230 -1 c 128,-1,12
 206 -14 206 -14 193 -22 c 128,-1,13
 180 -30 180 -30 162 -44 c 128,-1,14
 144 -58 144 -58 135 -72.5 c 128,-1,15
 126 -87 126 -87 126 -102 c 0,16,17
 126 -140 126 -140 168 -140 c 0,18,19
 193 -140 193 -140 251 -104 c 1,20,-1
 274 -154 l 1,0,1
EndSplineSet
EndChar
StartChar: tilde
Encoding: 732 732 207
Width: 353
GlyphClass: 2
Flags: W
LayerCount: 2
Back
Fore
SplineSet
349 682 m 1,0,1
 349 632 349 632 320.5 598.5 c 128,-1,2
 292 565 292 565 243 565 c 0,3,4
 213 565 213 565 171.5 585 c 128,-1,5
 130 605 130 605 113 605 c 0,6,7
 98 605 98 605 85.5 597 c 128,-1,8
 73 589 73 589 73 575 c 1,9,-1
 8 575 l 1,10,11
 8 625 8 625 36.5 658.5 c 128,-1,12
 65 692 65 692 114 692 c 0,13,14
 144 692 144 692 185.5 672 c 128,-1,15
 227 652 227 652 244 652 c 0,16,17
 258 652 258 652 271 660 c 128,-1,18
 284 668 284 668 285 682 c 1,19,-1
 349 682 l 1,0,1
EndSplineSet
EndChar
StartChar: hungarumlaut
Encoding: 733 733 208
Width: 405
GlyphClass: 2
Flags: W
LayerCount: 2
Back
Fore
SplineSet
371 732 m 1,0,-1
 260 590 l 1,1,-1
 167 590 l 1,2,-1
 236 732 l 1,3,-1
 371 732 l 1,0,-1
214 732 m 1,4,-1
 103 590 l 1,5,-1
 10 590 l 1,6,-1
 79 732 l 1,7,-1
 214 732 l 1,4,-1
EndSplineSet
EndChar
StartChar: pi
Encoding: 960 960 209
Width: 669
GlyphClass: 2
Flags: W
LayerCount: 2
Back
Fore
SplineSet
583 98 m 1,0,-1
 615 31 l 1,1,2
 574 -10 574 -10 507 -10 c 0,3,4
 438 -10 438 -10 404.5 43 c 128,-1,5
 371 96 371 96 371 170 c 0,6,7
 371 335 371 335 424 407 c 1,8,-1
 293 407 l 1,9,-1
 293 380 l 2,10,11
 293 340 293 340 292.5 318 c 128,-1,12
 292 296 292 296 290 258 c 128,-1,13
 288 220 288 220 283.5 196 c 128,-1,14
 279 172 279 172 271 140 c 128,-1,15
 263 108 263 108 249.5 85.5 c 128,-1,16
 236 63 236 63 218 39.5 c 128,-1,17
 200 16 200 16 174.5 -1 c 128,-1,18
 149 -18 149 -18 117 -30 c 1,19,-1
 80 25 l 1,20,21
 121 51 121 51 145.5 92.5 c 128,-1,22
 170 134 170 134 170 181 c 2,23,-1
 170 371 l 2,24,25
 170 372 170 372 177 407 c 1,26,-1
 165 407 l 2,27,28
 134 407 134 407 111 383 c 128,-1,29
 88 359 88 359 82 326 c 1,30,-1
 15 344 l 1,31,32
 22 417 22 417 68.5 457 c 128,-1,33
 115 497 115 497 189 497 c 2,34,-1
 517 497 l 2,35,36
 551 497 551 497 570 501.5 c 128,-1,37
 589 506 589 506 620 520 c 1,38,-1
 654 462 l 1,39,40
 634 434 634 434 603 423 c 128,-1,41
 572 412 572 412 526 407 c 1,42,43
 487 271 487 271 487 171 c 0,44,45
 487 137 487 137 500.5 113.5 c 128,-1,46
 514 90 514 90 545 90 c 0,47,48
 564 90 564 90 583 98 c 1,0,-1
EndSplineSet
EndChar
StartChar: endash
Encoding: 8211 8211 210
Width: 502
GlyphClass: 2
Flags: W
LayerCount: 2
Back
Fore
SplineSet
489 211 m 1,0,-1
 13 211 l 1,1,-1
 13 305 l 1,2,-1
 489 305 l 1,3,-1
 489 211 l 1,0,-1
EndSplineSet
EndChar
StartChar: emdash
Encoding: 8212 8212 211
Width: 852
GlyphClass: 2
Flags: W
LayerCount: 2
Back
Fore
SplineSet
839 211 m 1,0,-1
 13 211 l 1,1,-1
 13 305 l 1,2,-1
 839 305 l 1,3,-1
 839 211 l 1,0,-1
EndSplineSet
EndChar
StartChar: quoteleft
Encoding: 8216 8216 212
Width: 286
GlyphClass: 2
Flags: W
LayerCount: 2
Back
Fore
SplineSet
218 536 m 0,0,1
 218 507 218 507 198 486.5 c 128,-1,2
 178 466 178 466 149 466 c 0,3,4
 112 466 112 466 90 493.5 c 128,-1,5
 68 521 68 521 68 559 c 0,6,7
 68 660 68 660 177 739 c 1,8,9
 204 712 204 712 216 698 c 1,10,11
 201 684 201 684 185.5 661.5 c 128,-1,12
 170 639 170 639 170 625 c 0,13,14
 170 615 170 615 182 604 c 128,-1,15
 194 593 194 593 206 576.5 c 128,-1,16
 218 560 218 560 218 536 c 0,0,1
EndSplineSet
EndChar
StartChar: quoteright
Encoding: 8217 8217 213
Width: 286
GlyphClass: 2
Flags: W
LayerCount: 2
Back
Fore
SplineSet
228 652 m 0,0,1
 228 552 228 552 119 472 c 1,2,3
 92 499 92 499 80 513 c 1,4,5
 126 559 126 559 126 586 c 0,6,7
 126 596 126 596 114 607 c 128,-1,8
 102 618 102 618 90 634.5 c 128,-1,9
 78 651 78 651 78 675 c 0,10,11
 78 705 78 705 97.5 725 c 128,-1,12
 117 745 117 745 147 745 c 0,13,14
 184 745 184 745 206 717.5 c 128,-1,15
 228 690 228 690 228 652 c 0,0,1
EndSplineSet
EndChar
StartChar: dagger
Encoding: 8224 8224 218
Width: 523
GlyphClass: 2
Flags: W
LayerCount: 2
Back
Fore
SplineSet
482 481 m 1,0,-1
 418 430 l 1,1,-1
 299 452 l 1,2,-1
 325 309 l 1,3,-1
 291 -138 l 1,4,-1
 245 -138 l 1,5,-1
 208 309 l 1,6,-1
 233 452 l 1,7,-1
 117 430 l 1,8,-1
 51 485 l 1,9,-1
 117 539 l 1,10,-1
 233 514 l 1,11,-1
 207 658 l 1,12,-1
 264 740 l 1,13,-1
 326 658 l 1,14,-1
 299 514 l 1,15,-1
 418 539 l 1,16,-1
 482 481 l 1,0,-1
EndSplineSet
EndChar
StartChar: daggerdbl
Encoding: 8225 8225 219
Width: 523
GlyphClass: 2
Flags: W
LayerCount: 2
Back
Fore
SplineSet
477 112 m 1,0,-1
 410 58 l 1,1,-1
 298 83 l 1,2,-1
 321 -61 l 1,3,-1
 265 -139 l 1,4,-1
 202 -61 l 1,5,-1
 228 83 l 1,6,-1
 112 58 l 1,7,-1
 46 117 l 1,8,-1
 112 165 l 1,9,-1
 229 145 l 1,10,-1
 203 309 l 1,11,-1
 228 452 l 1,12,-1
 112 430 l 1,13,-1
 46 485 l 1,14,-1
 112 539 l 1,15,-1
 228 514 l 1,16,-1
 202 658 l 1,17,-1
 259 740 l 1,18,-1
 321 658 l 1,19,-1
 294 514 l 1,20,-1
 413 539 l 1,21,-1
 477 481 l 1,22,-1
 413 430 l 1,23,-1
 294 452 l 1,24,-1
 321 309 l 1,25,-1
 297 145 l 1,26,-1
 410 165 l 1,27,-1
 477 112 l 1,0,-1
EndSplineSet
EndChar
StartChar: perthousand
Encoding: 8240 8240 222
Width: 1148
GlyphClass: 2
Flags: W
LayerCount: 2
Back
Fore
SplineSet
1126 348 m 0,0,1
 1171 291 1171 291 1171 201 c 128,-1,2
 1171 111 1171 111 1126.5 53.5 c 128,-1,3
 1082 -4 1082 -4 994 -4 c 256,4,5
 906 -4 906 -4 861.5 53.5 c 128,-1,6
 817 111 817 111 817 201 c 128,-1,7
 817 291 817 291 861.5 348 c 128,-1,8
 906 405 906 405 994 405 c 256,9,10
 1082 405 1082 405 1126 348 c 0,0,1
740 348 m 0,11,12
 785 291 785 291 785 201 c 128,-1,13
 785 111 785 111 740.5 53.5 c 128,-1,14
 696 -4 696 -4 608 -4 c 256,15,16
 520 -4 520 -4 475.5 53.5 c 128,-1,17
 431 111 431 111 431 201 c 128,-1,18
 431 291 431 291 475.5 348 c 128,-1,19
 520 405 520 405 608 405 c 256,20,21
 696 405 696 405 740 348 c 0,11,12
611 699 m 1,22,-1
 264 -13 l 1,23,-1
 197 -13 l 1,24,-1
 520 645 l 1,25,-1
 350 645 l 1,26,27
 387 590 387 590 387 509 c 0,28,29
 387 419 387 419 342 361.5 c 128,-1,30
 297 304 297 304 210 304 c 0,31,32
 122 304 122 304 77.5 361.5 c 128,-1,33
 33 419 33 419 33 509 c 128,-1,34
 33 599 33 599 77.5 656 c 128,-1,35
 122 713 122 713 210 713 c 0,36,37
 252 713 252 713 284 699 c 1,38,-1
 611 699 l 1,22,-1
1062 201 m 0,39,40
 1062 326 1062 326 994 326 c 256,41,42
 926 326 926 326 926 201 c 0,43,44
 926 75 926 75 994 75 c 256,45,46
 1062 75 1062 75 1062 201 c 0,39,40
676 201 m 0,47,48
 676 326 676 326 608 326 c 256,49,50
 540 326 540 326 540 201 c 0,51,52
 540 75 540 75 608 75 c 256,53,54
 676 75 676 75 676 201 c 0,47,48
278 509 m 0,55,56
 278 634 278 634 210 634 c 256,57,58
 142 634 142 634 142 509 c 0,59,60
 142 383 142 383 210 383 c 256,61,62
 278 383 278 383 278 509 c 0,55,56
EndSplineSet
EndChar
StartChar: guilsinglleft
Encoding: 8249 8249 223
Width: 298
GlyphClass: 2
Flags: W
LayerCount: 2
Back
Fore
SplineSet
265 173 m 1,0,-1
 189 162 l 1,1,-1
 33 332 l 1,2,-1
 185 504 l 1,3,-1
 262 490 l 1,4,-1
 143 332 l 1,5,-1
 265 173 l 1,0,-1
EndSplineSet
EndChar
StartChar: guilsinglright
Encoding: 8250 8250 224
Width: 329
GlyphClass: 2
Flags: W
LayerCount: 2
Back
Fore
SplineSet
280 332 m 1,0,-1
 124 162 l 1,1,-1
 49 173 l 1,2,-1
 171 332 l 1,3,-1
 51 490 l 1,4,-1
 128 504 l 1,5,-1
 280 332 l 1,0,-1
EndSplineSet
EndChar
StartChar: Euro
Encoding: 8364 8364 226
Width: 513
GlyphClass: 2
Flags: W
LayerCount: 2
Back
Fore
SplineSet
452 106 m 1,0,-1
 483 20 l 1,1,2
 421 -11 421 -11 345 -11 c 0,3,4
 242 -11 242 -11 179 41 c 128,-1,5
 116 93 116 93 97 182 c 1,6,-1
 10 182 l 1,7,-1
 21 229 l 1,8,-1
 90 229 l 1,9,10
 89 239 89 239 89 259 c 0,11,12
 89 280 89 280 90 291 c 1,13,-1
 35 291 l 1,14,-1
 44 338 l 1,15,-1
 98 338 l 1,16,17
 120 423 120 423 184.5 473 c 128,-1,18
 249 523 249 523 346 523 c 0,19,20
 416 523 416 523 473 500 c 1,21,-1
 452 407 l 1,22,23
 408 439 408 439 349 439 c 0,24,25
 248 439 248 439 226 338 c 1,26,-1
 437 338 l 1,27,-1
 426 291 l 1,28,-1
 219 291 l 1,29,-1
 219 262 l 2,30,31
 219 240 219 240 220 229 c 1,32,-1
 413 229 l 1,33,-1
 402 182 l 1,34,-1
 229 182 l 1,35,36
 258 74 258 74 351 74 c 0,37,38
 408 74 408 74 452 106 c 1,0,-1
EndSplineSet
EndChar
StartChar: trademark
Encoding: 8482 8482 227
Width: 568
GlyphClass: 2
Flags: W
LayerCount: 2
Back
Fore
SplineSet
513 497 m 1,0,-1
 454 497 l 1,1,-1
 454 625 l 1,2,-1
 403 497 l 1,3,-1
 367 497 l 1,4,5
 340 564 340 564 315 631 c 1,6,-1
 315 497 l 1,7,-1
 263 497 l 1,8,-1
 263 733 l 1,9,-1
 337 733 l 1,10,-1
 389 596 l 1,11,-1
 440 732 l 1,12,-1
 513 732 l 1,13,-1
 513 497 l 1,0,-1
251 686 m 1,14,-1
 179 686 l 1,15,-1
 179 497 l 1,16,-1
 119 497 l 1,17,-1
 119 686 l 1,18,-1
 48 686 l 1,19,-1
 48 733 l 1,20,-1
 251 733 l 1,21,-1
 251 686 l 1,14,-1
EndSplineSet
EndChar
StartChar: Omega
Encoding: 8486 8486 228
Width: 781
GlyphClass: 2
Flags: W
LayerCount: 2
Back
Fore
SplineSet
751 0 m 1,0,-1
 456 0 l 1,1,-1
 456 76 l 1,2,3
 526 102 526 102 558 178.5 c 128,-1,4
 590 255 590 255 590 349 c 0,5,6
 590 402 590 402 580 450.5 c 128,-1,7
 570 499 570 499 548.5 544 c 128,-1,8
 527 589 527 589 486.5 616.5 c 128,-1,9
 446 644 446 644 391 644 c 256,10,11
 336 644 336 644 295 616.5 c 128,-1,12
 254 589 254 589 232.5 544 c 128,-1,13
 211 499 211 499 201 450 c 128,-1,14
 191 401 191 401 191 349 c 0,15,16
 191 255 191 255 223 178.5 c 128,-1,17
 255 102 255 102 325 76 c 1,18,-1
 325 0 l 1,19,-1
 30 0 l 1,20,-1
 30 99 l 1,21,-1
 97 99 l 1,22,-1
 169 93 l 1,23,24
 114 126 114 126 79 204.5 c 128,-1,25
 44 283 44 283 44 367 c 0,26,27
 44 533 44 533 136 638 c 128,-1,28
 228 743 228 743 391 743 c 256,29,30
 554 743 554 743 645.5 638 c 128,-1,31
 737 533 737 533 737 367 c 0,32,33
 737 283 737 283 702 204.5 c 128,-1,34
 667 126 667 126 612 93 c 1,35,-1
 684 99 l 1,36,-1
 751 99 l 1,37,-1
 751 0 l 1,0,-1
EndSplineSet
EndChar
StartChar: partialdiff
Encoding: 8706 8706 229
Width: 555
GlyphClass: 2
Flags: W
LayerCount: 2
Back
Fore
SplineSet
372 385 m 1,0,1
 371 423 371 423 363 462.5 c 128,-1,2
 355 502 355 502 338 543 c 128,-1,3
 321 584 321 584 288 610 c 128,-1,4
 255 636 255 636 212 636 c 0,5,6
 180 636 180 636 151.5 626 c 128,-1,7
 123 616 123 616 110 606 c 2,8,-1
 98 596 l 1,9,10
 49 671 49 671 48 671 c 1,11,12
 50 674 50 674 55 679 c 128,-1,13
 60 684 60 684 77.5 696 c 128,-1,14
 95 708 95 708 115 717.5 c 128,-1,15
 135 727 135 727 169 735 c 128,-1,16
 203 743 203 743 240 743 c 0,17,18
 381 743 381 743 452 633.5 c 128,-1,19
 523 524 523 524 523 334 c 0,20,21
 523 252 523 252 503 188.5 c 128,-1,22
 483 125 483 125 453 88.5 c 128,-1,23
 423 52 423 52 384.5 28.5 c 128,-1,24
 346 5 346 5 313.5 -3 c 128,-1,25
 281 -11 281 -11 250 -11 c 0,26,27
 216 -11 216 -11 181.5 -1 c 128,-1,28
 147 9 147 9 111.5 31.5 c 128,-1,29
 76 54 76 54 54 99 c 128,-1,30
 32 144 32 144 32 206 c 0,31,32
 32 255 32 255 48.5 294 c 128,-1,33
 65 333 65 333 90 356.5 c 128,-1,34
 115 380 115 380 146 395.5 c 128,-1,35
 177 411 177 411 204 417 c 128,-1,36
 231 423 231 423 255 423 c 0,37,38
 280 423 280 423 302.5 417.5 c 128,-1,39
 325 412 325 412 335.5 407 c 128,-1,40
 346 402 346 402 359 394 c 2,41,-1
 372 385 l 1,0,1
370 293 m 1,42,43
 338 325 338 325 280 325 c 0,44,45
 246 325 246 325 221.5 309 c 128,-1,46
 197 293 197 293 186 269 c 128,-1,47
 175 245 175 245 170 226.5 c 128,-1,48
 165 208 165 208 165 196 c 0,49,50
 165 183 165 183 167 171 c 128,-1,51
 169 159 169 159 176 137 c 128,-1,52
 183 115 183 115 203 101.5 c 128,-1,53
 223 88 223 88 253 88 c 0,54,55
 288 88 288 88 313 115 c 128,-1,56
 338 142 338 142 349.5 180.5 c 128,-1,57
 361 219 361 219 365.5 247.5 c 128,-1,58
 370 276 370 276 370 293 c 1,42,43
EndSplineSet
EndChar
StartChar: Delta
Encoding: 8710 8710 230
Width: 631
GlyphClass: 2
Flags: W
LayerCount: 2
Back
Fore
SplineSet
629 0 m 1,0,-1
 2 0 l 1,1,-1
 2 67 l 1,2,-1
 261 732 l 1,3,-1
 370 732 l 1,4,-1
 629 67 l 1,5,-1
 629 0 l 1,0,-1
130 99 m 1,6,-1
 468 99 l 1,7,8
 378 333 378 333 324 487 c 0,9,10
 317 506 317 506 308.5 545.5 c 128,-1,11
 300 585 300 585 300 586 c 1,12,13
 299 582 299 582 294.5 562.5 c 128,-1,14
 290 543 290 543 284.5 521.5 c 128,-1,15
 279 500 279 500 274 486 c 0,16,17
 194 262 194 262 130 99 c 1,6,-1
EndSplineSet
EndChar
StartChar: product
Encoding: 8719 8719 231
Width: 833
GlyphClass: 2
Flags: W
LayerCount: 2
Back
Fore
SplineSet
708 -229 m 1,0,-1
 565 -229 l 1,1,-1
 565 633 l 1,2,-1
 266 633 l 1,3,-1
 266 -229 l 1,4,-1
 123 -229 l 1,5,-1
 123 633 l 1,6,-1
 18 633 l 1,7,-1
 18 732 l 1,8,-1
 815 732 l 1,9,-1
 815 633 l 1,10,-1
 708 633 l 1,11,-1
 708 -229 l 1,0,-1
EndSplineSet
EndChar
StartChar: summation
Encoding: 8721 8721 232
Width: 726
GlyphClass: 2
Flags: W
LayerCount: 2
Back
Fore
SplineSet
686 -229 m 1,0,-1
 40 -229 l 1,1,-1
 40 -99 l 1,2,-1
 326 277 l 1,3,-1
 40 633 l 1,4,-1
 40 732 l 1,5,-1
 676 732 l 1,6,-1
 676 633 l 1,7,-1
 203 633 l 1,8,9
 250 586 250 586 255 580 c 2,10,-1
 474 310 l 1,11,-1
 208 -41 l 2,12,13
 201 -50 201 -50 159 -92 c 1,14,-1
 686 -92 l 1,15,-1
 686 -229 l 1,0,-1
EndSplineSet
EndChar
StartChar: radical
Encoding: 8730 8730 234
Width: 605
GlyphClass: 2
Flags: W
LayerCount: 2
Back
Fore
SplineSet
307 -230 m 1,0,-1
 191 -230 l 1,1,-1
 43 206 l 1,2,-1
 -51 176 l 1,3,-1
 -78 257 l 1,4,-1
 122 324 l 1,5,-1
 256 -78 l 1,6,-1
 569 968 l 1,7,-1
 667 968 l 1,8,-1
 307 -230 l 1,0,-1
EndSplineSet
EndChar
StartChar: infinity
Encoding: 8734 8734 235
Width: 812
GlyphClass: 2
Flags: W
LayerCount: 2
Back
Fore
SplineSet
406 181 m 1,0,1
 364 132 364 132 323.5 103 c 128,-1,2
 283 74 283 74 235 74 c 0,3,4
 159 74 159 74 114.5 123 c 128,-1,5
 70 172 70 172 70 249 c 128,-1,6
 70 326 70 326 114.5 375 c 128,-1,7
 159 424 159 424 235 424 c 0,8,9
 283 424 283 424 323.5 395 c 128,-1,10
 364 366 364 366 406 317 c 1,11,12
 448 366 448 366 488.5 395 c 128,-1,13
 529 424 529 424 577 424 c 0,14,15
 653 424 653 424 697.5 375 c 128,-1,16
 742 326 742 326 742 249 c 128,-1,17
 742 172 742 172 697.5 123 c 128,-1,18
 653 74 653 74 577 74 c 0,19,20
 529 74 529 74 488.5 103 c 128,-1,21
 448 132 448 132 406 181 c 1,0,1
466 249 m 1,22,23
 527 184 527 184 578 184 c 0,24,25
 609 184 609 184 626 201.5 c 128,-1,26
 643 219 643 219 643 249 c 128,-1,27
 643 279 643 279 626 296.5 c 128,-1,28
 609 314 609 314 578 314 c 0,29,30
 527 314 527 314 466 249 c 1,22,23
346 249 m 1,31,32
 285 314 285 314 234 314 c 0,33,34
 203 314 203 314 186 296.5 c 128,-1,35
 169 279 169 279 169 249 c 128,-1,36
 169 219 169 219 186 201.5 c 128,-1,37
 203 184 203 184 234 184 c 0,38,39
 285 184 285 184 346 249 c 1,31,32
EndSplineSet
EndChar
StartChar: integral
Encoding: 8747 8747 236
Width: 256
GlyphClass: 2
Flags: W
LayerCount: 2
Back
Fore
SplineSet
-23 -227 m 1,0,-1
 -23 -147 l 1,1,2
 25 -147 25 -147 51 -114.5 c 128,-1,3
 77 -82 77 -82 77 -34 c 2,4,-1
 77 525 l 2,5,6
 77 636 77 636 122.5 689 c 128,-1,7
 168 742 168 742 282 742 c 1,8,-1
 282 662 l 1,9,10
 199 662 199 662 199 549 c 2,11,-1
 199 -10 l 2,12,13
 199 -121 199 -121 146.5 -174 c 128,-1,14
 94 -227 94 -227 -23 -227 c 1,0,-1
EndSplineSet
EndChar
StartChar: notequal
Encoding: 8800 8800 238
Width: 0
GlyphClass: 2
Flags: W
LayerCount: 2
Back
Fore
SplineSet
565 109 m 1,0,-1
 294 109 l 1,1,-1
 243 0 l 1,2,-1
 148 0 l 1,3,-1
 199 109 l 1,4,-1
 67 109 l 1,5,-1
 67 197 l 1,6,-1
 240 197 l 1,7,-1
 288 302 l 1,8,-1
 67 302 l 1,9,-1
 67 390 l 1,10,-1
 329 390 l 1,11,-1
 379 497 l 1,12,-1
 477 497 l 1,13,-1
 427 390 l 1,14,-1
 565 390 l 1,15,-1
 565 302 l 1,16,-1
 385 302 l 1,17,-1
 336 197 l 1,18,-1
 565 197 l 1,19,-1
 565 109 l 1,0,-1
EndSplineSet
EndChar
StartChar: lessequal
Encoding: 8804 8804 239
Width: 630
GlyphClass: 2
Flags: W
LayerCount: 2
Back
Fore
SplineSet
564 106 m 1,0,-1
 66 283 l 1,1,-1
 66 335 l 1,2,-1
 564 511 l 1,3,-1
 564 421 l 1,4,-1
 306 330 l 2,5,6
 263 314 263 314 200 309 c 1,7,8
 253 307 253 307 304 290 c 2,9,-1
 564 198 l 1,10,-1
 564 106 l 1,0,-1
565 1 m 1,11,-1
 69 1 l 1,12,-1
 69 89 l 1,13,-1
 565 89 l 1,14,-1
 565 1 l 1,11,-1
EndSplineSet
EndChar
StartChar: lozenge
Encoding: 9674 9674 241
Width: 504
GlyphClass: 2
Flags: W
LayerCount: 2
Back
Fore
SplineSet
273 -14 m 1,0,-1
 231 -14 l 1,1,-1
 25 362 l 1,2,-1
 231 739 l 1,3,-1
 273 739 l 1,4,-1
 479 362 l 1,5,-1
 273 -14 l 1,0,-1
254 101 m 1,6,-1
 390 362 l 1,7,-1
 254 624 l 1,8,-1
 250 624 l 1,9,-1
 113 362 l 1,10,-1
 250 101 l 1,11,-1
 254 101 l 1,6,-1
EndSplineSet
EndChar
StartChar: fi
Encoding: 64257 64257 242
Width: 551
GlyphClass: 2
Flags: W
LayerCount: 2
Back
Fore
SplineSet
506 630 m 1,0,-1
 393 600 l 1,1,2
 388 641 388 641 363.5 667.5 c 128,-1,3
 339 694 339 694 313 694 c 0,4,5
 251 694 251 694 229.5 644.5 c 128,-1,6
 208 595 208 595 206 497 c 1,7,-1
 503 497 l 1,8,-1
 503 0 l 1,9,-1
 383 0 l 1,10,-1
 383 417 l 1,11,-1
 206 417 l 1,12,-1
 206 0 l 1,13,-1
 85 0 l 1,14,-1
 85 417 l 1,15,-1
 3 417 l 1,16,-1
 3 486 l 1,17,18
 24 486 24 486 39.5 491.5 c 128,-1,19
 55 497 55 497 64 502.5 c 128,-1,20
 73 508 73 508 80.5 522.5 c 128,-1,21
 88 537 88 537 90 544 c 128,-1,22
 92 551 92 551 96.5 570.5 c 128,-1,23
 101 590 101 590 102 596 c 0,24,25
 124 683 124 683 174 729 c 128,-1,26
 224 775 224 775 314 775 c 0,27,28
 451 775 451 775 506 630 c 1,0,-1
EndSplineSet
EndChar
StartChar: fl
Encoding: 64258 64258 243
Width: 566
GlyphClass: 2
Flags: W
LayerCount: 2
Back
Fore
SplineSet
504 0 m 1,0,-1
 382 0 l 1,1,-1
 382 616 l 2,2,3
 382 647 382 647 362 670.5 c 128,-1,4
 342 694 342 694 306 694 c 0,5,6
 205 694 205 694 205 503 c 2,7,-1
 205 497 l 1,8,-1
 327 497 l 1,9,-1
 304 417 l 1,10,-1
 205 417 l 1,11,-1
 205 0 l 1,12,-1
 85 0 l 1,13,-1
 85 417 l 1,14,-1
 3 417 l 1,15,-1
 3 486 l 1,16,17
 50 486 50 486 69 511.5 c 128,-1,18
 88 537 88 537 102 596 c 0,19,20
 123 684 123 684 168 729 c 128,-1,21
 213 774 213 774 308 774 c 0,22,23
 351 774 351 774 407 745 c 1,24,-1
 504 779 l 1,25,-1
 504 0 l 1,0,-1
EndSplineSet
EndChar
